<svg xmlns="http://www.w3.org/2000/svg" xmlns:xlink="http://www.w3.org/1999/xlink" width="416.974" height="349.959" viewBox="0 0 416.974 349.959">
  <defs>
    <clipPath id="clip-path">
      <rect id="Rectangle_24" data-name="Rectangle 24" width="397.606" height="261.412" fill="#fff"/>
    </clipPath>
    <clipPath id="clip-path-7">
      <rect id="Rectangle_19" data-name="Rectangle 19" width="301.875" height="231.786" transform="translate(0 0)" fill="none"/>
    </clipPath>
  </defs>
  <g id="Group_11448" data-name="Group 11448" transform="translate(-37.012 -139.736)">
    <g id="Group_30" data-name="Group 30" transform="translate(56.379 228.283)">
      <g id="Group_28" data-name="Group 28" clip-path="url(#clip-path)">
        <g id="Group_27" data-name="Group 27">
          <g id="Group_26" data-name="Group 26" clip-path="url(#clip-path)">
            <g id="Group_25" data-name="Group 25" opacity="0.1">
              <g id="Group_24" data-name="Group 24">
                <g id="Group_23" data-name="Group 23" clip-path="url(#clip-path)">
                  <path id="Path_133" data-name="Path 133" d="M122.773,13.7C136.263,1.68,157.439-.771,176.714.188,237.256,3.2,291.907,32.423,339.18,65.485c17.114,11.969,33.962,24.867,45.071,41.349,22.613,33.551,15.906,80.03-15.539,107.671-10.7,9.4-23.668,16.613-36.982,23-23.673,11.364-49.217,20.485-76.085,23.081-19.161,1.852-38.557.346-57.605-2.237C144.819,251.135,92.58,235.175,48.8,207.869c-19.2-11.976-37.3-26.865-45.22-46.24S.728,117.7,20.336,106.235c8.109-4.742,17.806-6.885,27.3-8.9,13.974-2.961,28.171-5.879,40.781-11.9,13.025-6.217,28.447-18.24,25.868-32-2.767-14.765-4.987-27.731,8.488-39.739" transform="translate(0 0)" fill="#fff"/>
                </g>
              </g>
            </g>
          </g>
        </g>
      </g>
    </g>
    <g id="Group_29" data-name="Group 29" transform="translate(56.379 228.283)">
      <g id="Group_28-2" data-name="Group 28" clip-path="url(#clip-path)">
        <g id="Group_27-2" data-name="Group 27">
          <g id="Group_26-2" data-name="Group 26" clip-path="url(#clip-path)">
            <g id="Group_25-2" data-name="Group 25" opacity="0.1">
              <g id="Group_24-2" data-name="Group 24">
                <g id="Group_23-2" data-name="Group 23" clip-path="url(#clip-path)">
                  <path id="Path_133-2" data-name="Path 133" d="M122.773,13.7C136.263,1.68,157.439-.771,176.714.188,237.256,3.2,291.907,32.423,339.18,65.485c17.114,11.969,33.962,24.867,45.071,41.349,22.613,33.551,15.906,80.03-15.539,107.671-10.7,9.4-23.668,16.613-36.982,23-23.673,11.364-49.217,20.485-76.085,23.081-19.161,1.852-38.557.346-57.605-2.237C144.819,251.135,92.58,235.175,48.8,207.869c-19.2-11.976-37.3-26.865-45.22-46.24S.728,117.7,20.336,106.235c8.109-4.742,17.806-6.885,27.3-8.9,13.974-2.961,28.171-5.879,40.781-11.9,13.025-6.217,28.447-18.24,25.868-32-2.767-14.765-4.987-27.731,8.488-39.739" transform="translate(0 0)" fill="#fff"/>
                </g>
              </g>
            </g>
          </g>
        </g>
      </g>
    </g>
    <g id="Group_22" data-name="Group 22" transform="translate(37.012 209.479)">
      <g id="Group_21" data-name="Group 21" transform="translate(0 0)" clip-path="url(#clip-path-7)">
        <path id="Path_9" data-name="Path 9" d="M532.7,1288.931H528.25l-1.2-11.771h6.862Z" transform="translate(-436.847 -1058.586)" fill="#5858c6"/>
        <path id="Path_10" data-name="Path 10" d="M1546.972,1288.931h-4.455l-1.2-11.771h6.862Z" transform="translate(-1277.532 -1058.586)" fill="#5858c6"/>
        <path id="Path_11" data-name="Path 11" d="M1060.19,817.924h69.063a13.3,13.3,0,0,1,13.295,13.295V858.45H1046.9V831.219a13.3,13.3,0,0,1,13.295-13.295" transform="translate(-867.729 -677.944)" fill="#271651"/>
        <path id="Path_12" data-name="Path 12" d="M525.706,817.735H673.121a15.414,15.414,0,0,1,15.414,15.414v33.665H510.292V833.149a15.414,15.414,0,0,1,15.414-15.414" transform="translate(-422.96 -677.787)" fill="#5858c6"/>
        <path id="Path_13" data-name="Path 13" d="M669.47,1089.385l-193.276,0-.013,33.916H669.47Z" transform="translate(-394.687 -902.944)" fill="#5858c6"/>
        <path id="Path_14" data-name="Path 14" d="M417.39,959.259H405.55a6.9,6.9,0,0,1-6.9-6.9V914.407a6.9,6.9,0,0,1,6.9-6.9h11.84a6.9,6.9,0,0,1,6.9,6.9v37.948a6.9,6.9,0,0,1-6.9,6.9" transform="translate(-330.421 -752.192)" fill="#7473e8"/>
        <path id="Path_15" data-name="Path 15" d="M1542.219,959.111h-11.86a6.894,6.894,0,0,1-6.894-6.894V914.4a6.894,6.894,0,0,1,6.894-6.894h11.86a6.894,6.894,0,0,1,6.894,6.894v37.82a6.894,6.894,0,0,1-6.894,6.894" transform="translate(-1262.738 -752.192)" fill="#7473e8"/>
        <path id="Path_16" data-name="Path 16" d="M637.417,1106.215H445.1a7.141,7.141,0,0,1-7.141-7.141v-6.945a7.141,7.141,0,0,1,7.141-7.141H637.417a7.141,7.141,0,0,1,7.141,7.141v6.945a7.141,7.141,0,0,1-7.141,7.141" transform="translate(-363.01 -899.302)" fill="#5963e5"/>
        <path id="Path_17" data-name="Path 17" d="M378.152,1345.986a.784.784,0,0,0-.784-.784H92.962a.8.8,0,1,0,0,1.567H377.369a.784.784,0,0,0,.784-.784" transform="translate(-76.277 -1114.983)" fill="#271651"/>
        <path id="Path_18" data-name="Path 18" d="M390.553,1308.891H387.6l-.8-7.5h4.542Z" transform="translate(-320.61 -1078.667)" fill="#ff862d"/>
        <path id="Path_19" data-name="Path 19" d="M296.477,1308.867h-2.948l-.8-7.508h4.542Z" transform="translate(-242.633 -1078.644)" fill="#ff862d"/>
        <path id="Path_20" data-name="Path 20" d="M467.055,1308.861h-2.948l-.8-7.5h4.542Z" transform="translate(-384.019 -1078.643)" fill="#e27023"/>
        <rect id="Rectangle_9" data-name="Rectangle 9" width="50.601" height="51.312" transform="translate(35.266 171.584)" fill="#ff862d"/>
        <rect id="Rectangle_10" data-name="Rectangle 10" width="14.674" height="51.312" transform="translate(71.193 171.584)" fill="#e27023"/>
        <rect id="Rectangle_11" data-name="Rectangle 11" width="34.547" height="0.885" transform="translate(36.694 188.392)" fill="#e27023"/>
        <rect id="Rectangle_12" data-name="Rectangle 12" width="34.547" height="0.885" transform="translate(36.694 202.589)" fill="#e27023"/>
        <path id="Path_21" data-name="Path 21" d="M56.187,1137.046a.97.97,0,1,0,1.076-.851.97.97,0,0,0-1.076.851" transform="translate(-46.565 -941.74)" fill="#ff862d"/>
        <path id="Path_22" data-name="Path 22" d="M59.069,1140.268a.627.627,0,1,1-.452-.966.628.628,0,0,1,.452.966" transform="translate(-48.004 -944.317)" fill="#ff862d"/>
        <path id="Path_23" data-name="Path 23" d="M19.511,1148.089a.97.97,0,1,1-1.367-.115.97.97,0,0,1,1.367.115" transform="translate(-14.753 -951.319)" fill="#ff862d"/>
        <path id="Path_24" data-name="Path 24" d="M21.669,1151.63a.627.627,0,0,1-.93-.823.635.635,0,0,1,.12-.136.627.627,0,0,1,.809.959" transform="translate(-17.106 -953.622)" fill="#ff862d"/>
        <path id="Path_25" data-name="Path 25" d="M43.969,1136.354a.97.97,0,1,1-.974-.967.97.97,0,0,1,.974.967" transform="translate(-34.835 -941.076)" fill="#ff862d"/>
        <path id="Path_26" data-name="Path 26" d="M44.8,1139.774a.627.627,0,1,1,.625-.63.628.628,0,0,1-.625.63" transform="translate(-36.609 -943.672)" fill="#ff862d"/>
        <path id="Path_27" data-name="Path 27" d="M70.248,1143.085a.97.97,0,1,1-.124-1.367.97.97,0,0,1,.124,1.367" transform="translate(-56.803 -946.138)" fill="#ff862d"/>
        <path id="Path_28" data-name="Path 28" d="M71.025,1145.481a.627.627,0,1,1-.08-.883.628.628,0,0,1,.08.883" transform="translate(-57.95 -948.59)" fill="#ff862d"/>
        <path id="Path_29" data-name="Path 29" d="M26.78,1209.413a.97.97,0,1,0-1.3.432.97.97,0,0,0,1.3-.432" transform="translate(-20.673 -1001.268)" fill="#ff862d"/>
        <path id="Path_30" data-name="Path 30" d="M28.726,1210.037a.627.627,0,1,1-.243-.905A.627.627,0,0,1,28.726,1210.037Z" transform="translate(-22.855 -1002.144)" fill="#ff862d"/>
        <path id="Path_31" data-name="Path 31" d="M10.119,1188.005a.97.97,0,1,0-1.275-.507.97.97,0,0,0,1.275.507" transform="translate(-7.264 -983.146)" fill="#ff862d"/>
        <path id="Path_32" data-name="Path 32" d="M13.009,1188.787a.627.627,0,1,1-.773-.921.628.628,0,0,1,.773.921Z" transform="translate(-9.828 -984.53)" fill="#ff862d"/>
        <path id="Path_33" data-name="Path 33" d="M11.116,1160.9a.97.97,0,1,0-.651-1.208.971.971,0,0,0,.651,1.208" transform="translate(-8.64 -960.644)" fill="#ff862d"/>
        <path id="Path_34" data-name="Path 34" d="M13.544,1162.386a.627.627,0,1,1,1.153-.118.623.623,0,0,1-1.153.118" transform="translate(-11.163 -962.688)" fill="#ff862d"/>
        <path id="Path_35" data-name="Path 35" d="M15.631,1198.932a.97.97,0,1,1-.351,1.327.97.97,0,0,1,.351-1.327" transform="translate(-12.556 -993.636)" fill="#ff862d"/>
        <path id="Path_36" data-name="Path 36" d="M18.532,1201.356a.627.627,0,1,1,.7-.922.628.628,0,0,1-.7.922" transform="translate(-14.974 -994.732)" fill="#ff862d"/>
        <path id="Path_37" data-name="Path 37" d="M29.3,1140.77a.97.97,0,1,0,.277-1.344.971.971,0,0,0-.277,1.344" transform="translate(-24.157 -944.292)" fill="#ff862d"/>
        <path id="Path_38" data-name="Path 38" d="M32.628,1143.441a.626.626,0,1,1,.18-.18.628.628,0,0,1-.18.18" transform="translate(-26.239 -946.797)" fill="#ff862d"/>
        <path id="Path_39" data-name="Path 39" d="M8.316,1172.81a.97.97,0,1,1-1.121.791.971.971,0,0,1,1.121-.791" transform="translate(-5.951 -972.082)" fill="#ff862d"/>
        <path id="Path_40" data-name="Path 40" d="M10.839,1176.1a.627.627,0,1,1,.725-.511.628.628,0,0,1-.725.511" transform="translate(-8.552 -973.792)" fill="#ff862d"/>
        <path id="Path_41" data-name="Path 41" d="M24.5,1151.759l1.184-5.085-.178-.042-1.234,5.3-.628-5.4-.182.021.6,5.186-2.363-4.656-.163.083L24,1152.013l-3.954-3.736-.126.133,3.8,3.586-4.8-2.048-.072.168,5,2.134-5.431-.319-.011.183,5.212.306-5,1.518.053.175,5.206-1.582-4.366,3.246.109.147,4.189-3.116-2.851,4.374.153.1,6.411-9.783-.153-.1Z" transform="translate(-15.256 -950.31)" fill="#ff862d"/>
        <rect id="Rectangle_13" data-name="Rectangle 13" width="0.784" height="24.517" transform="translate(8.396 202.06) rotate(-56.775)" fill="#ff862d"/>
        <path id="Path_42" data-name="Path 42" d="M112.416,992.975a1.642,1.642,0,1,0,2.292-.377,1.643,1.643,0,0,0-2.292.377" transform="translate(-92.922 -822.468)" fill="#ff862d"/>
        <path id="Path_43" data-name="Path 43" d="M115.731,999.1a1.062,1.062,0,1,1,.123-1.8A1.063,1.063,0,0,1,115.731,999.1Z" transform="translate(-94.629 -826.453)" fill="#ff862d"/>
        <path id="Path_44" data-name="Path 44" d="M49.048,979.248a1.642,1.642,0,1,1-1.93-1.292,1.642,1.642,0,0,1,1.93,1.292" transform="translate(-37.957 -810.562)" fill="#ff862d"/>
        <path id="Path_45" data-name="Path 45" d="M51.052,985.249a1.062,1.062,0,1,1,.384-1.924,1.063,1.063,0,0,1-.384,1.924" transform="translate(-41.264 -814.889)" fill="#ff862d"/>
        <path id="Path_46" data-name="Path 46" d="M94.889,981.929a1.642,1.642,0,1,1-.648-2.23,1.643,1.643,0,0,1,.648,2.23" transform="translate(-76.095 -811.863)" fill="#ff862d"/>
        <path id="Path_47" data-name="Path 47" d="M95.039,986.64a1.062,1.062,0,1,1,1.442-.419,1.064,1.064,0,0,1-1.442.419" transform="translate(-78.32 -816.13)" fill="#ff862d"/>
        <path id="Path_48" data-name="Path 48" d="M128.282,1013.447a1.642,1.642,0,1,1,.937-2.125,1.642,1.642,0,0,1-.937,2.125" transform="translate(-104.474 -837.374)" fill="#ff862d"/>
        <path id="Path_49" data-name="Path 49" d="M129.186,1016.624a1.062,1.062,0,1,1,.606-1.374,1.063,1.063,0,0,1-.606,1.374" transform="translate(-105.878 -840.937)" fill="#ff862d"/>
        <path id="Path_50" data-name="Path 50" d="M9.52,1076.022a1.643,1.643,0,1,0-2.283-.429,1.643,1.643,0,0,0,2.283.429" transform="translate(-5.761 -889.386)" fill="#ff862d"/>
        <path id="Path_51" data-name="Path 51" d="M13.6,1077.527a1.062,1.062,0,1,1,.383-1.54A1.061,1.061,0,0,1,13.6,1077.527Z" transform="translate(-9.987 -891.457)" fill="#ff862d"/>
        <path id="Path_52" data-name="Path 52" d="M2.406,1030.657a1.643,1.643,0,1,0-1.473-1.8,1.642,1.642,0,0,0,1.473,1.8" transform="translate(-0.767 -851.553)" fill="#ff862d"/>
        <path id="Path_53" data-name="Path 53" d="M7.748,1033.19a1.062,1.062,0,1,1-.39-2,1.063,1.063,0,0,1,.39,2Z" transform="translate(-5.132 -854.709)" fill="#ff862d"/>
        <path id="Path_54" data-name="Path 54" d="M26.115,991.333a1.643,1.643,0,1,0,.026-2.323,1.642,1.642,0,0,0-.026,2.323" transform="translate(-21.258 -819.362)" fill="#ff862d"/>
        <path id="Path_55" data-name="Path 55" d="M30.211,994.506a1.062,1.062,0,1,1,1.8.771,1.053,1.053,0,0,1-1.8-.771" transform="translate(-25.04 -823.434)" fill="#ff862d"/>
        <path id="Path_56" data-name="Path 56" d="M1.607,1051.358A1.642,1.642,0,1,1,0,1053.035a1.642,1.642,0,0,1,1.607-1.677" transform="translate(0 -871.427)" fill="#ff862d"/>
        <path id="Path_57" data-name="Path 57" d="M5.624,1056.308a1.062,1.062,0,1,1,1.8-.789,1.063,1.063,0,0,1-1.8.789" transform="translate(-4.39 -874.015)" fill="#ff862d"/>
        <path id="Path_58" data-name="Path 58" d="M69.555,976.446a1.642,1.642,0,1,0,1.513-1.763,1.643,1.643,0,0,0-1.513,1.763" transform="translate(-57.647 -807.871)" fill="#ff862d"/>
        <path id="Path_59" data-name="Path 59" d="M74,982.113a1.06,1.06,0,1,1,.414-.119,1.075,1.075,0,0,1-.414.119" transform="translate(-60.389 -812.275)" fill="#ff862d"/>
        <path id="Path_60" data-name="Path 60" d="M12.2,1006.676a1.642,1.642,0,1,1-2.309.252,1.642,1.642,0,0,1,2.309-.252" transform="translate(-7.896 -834.093)" fill="#ff862d"/>
        <path id="Path_61" data-name="Path 61" d="M14.95,1012.612a1.062,1.062,0,1,1,1.493-.163,1.064,1.064,0,0,1-1.493.163" transform="translate(-12.064 -837.746)" fill="#ff862d"/>
        <path id="Path_62" data-name="Path 62" d="M29.5,1002.922l5.924-6.558-.23-.208-6.173,6.834,3.5-8.517-.287-.118-3.362,8.175.32-8.833-.31-.011-.333,9.2-2.791-8.776-.3.094,2.679,8.423-5.432-6.972-.244.19,5.66,7.265-7.781-4.927-.166.262,7.467,4.728L19,1001.326l-.065.3,9.005,1.927-9.127,1.227.041.307,8.759-1.178-7.809,4.138.145.274L37.469,999.1l-.144-.275Z" transform="translate(-15.595 -823.625)" fill="#ff862d"/>
        <rect id="Rectangle_14" data-name="Rectangle 14" width="1.327" height="41.501" transform="matrix(0.885, -0.466, 0.466, 0.885, 12.144, 179.502)" fill="#ff862d"/>
        <path id="Path_63" data-name="Path 63" d="M163.991,1078.542s13.442-9.977,15.283-14.277-1.956-3.814-1.956-3.814,5.428-7.69,3.987-10.231-4.438.7-4.438.7,2.518-10.4.329-10.982c-4.078-1.078-7.424,10.119-7.424,10.119s.3-4.649-2.252-4.023c-3.849.944-1.813,10.952-1.813,10.952s-1.227-1.775-3.338-.086c-3.787,3.029,1.622,21.639,1.622,21.639" transform="translate(-133.466 -861.905)" fill="#7473e8"/>
        <path id="Path_64" data-name="Path 64" d="M159.506,1057.163a3.049,3.049,0,0,1,3.907-.173s-2.036-10.008,1.813-10.952c2.552-.626,2.252,4.022,2.252,4.022s3.346-11.2,7.424-10.119L161.6,1078.511c-.595-2.409-5.628-18.519-2.091-21.348" transform="translate(-131.172 -861.905)" fill="#a4e5ff"/>
        <path id="Path_65" data-name="Path 65" d="M178.468,1168.912s14.016.126,16.859-2.261-.886-2.714-.886-2.714,6.583-3.494,6.487-5.824a1.854,1.854,0,0,0-2.328-1.861s4.55-4.076,3.616-6.052c-1.436-3.036-7.943,2.722-7.943,2.722s.5-2.309-1.521-2.792c-3.044-.728-6.132,7.926-6.132,7.926s1.456-3.9-.635-3.465c-3.752.777-7.518,14.321-7.518,14.321" transform="translate(-147.925 -952.621)" fill="#e9faff"/>
        <path id="Path_66" data-name="Path 66" d="M101.981,1085.753s-12.226-10.433-13.717-14.636,2.092-3.51,2.092-3.51-4.7-7.646-3.173-9.976,4.18.939,4.18.939-1.765-10.051.353-10.469c3.945-.778,6.45,10.077,6.45,10.077s0-4.441,2.387-3.69c3.6,1.132,1.061,10.53,1.061,10.53s1.331-3.513,3.236-1.779c3.42,3.112-2.868,22.514-2.868,22.514" transform="translate(-72.01 -868.695)" fill="#a4e5ff"/>
        <path id="Path_67" data-name="Path 67" d="M129.107,1062.6a2.7,2.7,0,0,0-3.594.431s2.073-7.41-1.532-8.542c-2.39-.75-2.4,3.555-2.4,3.555s-2.487-10.72-6.432-9.942l10.32,37.5c1.121-2.57,6.125-21.2,3.643-23.005" transform="translate(-95.439 -868.692)" fill="#e9faff"/>
        <path id="Path_68" data-name="Path 68" d="M57.418,1209.884s-13.439.061-15.3-.212.2-1.885.2-1.885-4.179.152-4.816-.865,1.07-1.417,1.07-1.417-4.162-1.206-3.963-2.091c.37-1.648,4.967-.574,4.967-.574s-1.707-.828-1.013-1.6c1.046-1.162,5.515,2,5.515,2s-1.678-3.173-.688-3.575c1.776-.721,14.031,10.22,14.031,10.22" transform="translate(-28.678 -994.324)" fill="#e9faff"/>
        <path id="Path_69" data-name="Path 69" d="M89.807,1272.708h22.352a13.379,13.379,0,0,0,4.518-10.11,12.113,12.113,0,0,0-1.292-5.411l-28.819.324a12.822,12.822,0,0,0-1.192,5.6,13.3,13.3,0,0,0,4.433,9.593" transform="translate(-70.762 -1042.03)" fill="#f47458"/>
        <path id="Path_70" data-name="Path 70" d="M193.154,976.136H208A2.578,2.578,0,0,0,208,971H193.154a4.181,4.181,0,0,1,.106,4.995Z" transform="translate(-160.098 -804.818)" fill="#e9faff"/>
        <path id="Path_71" data-name="Path 71" d="M208.274,972.276h0a2.5,2.5,0,0,0-2.411-2.571H190.972a.133.133,0,0,1,0-.266H214.6a2.842,2.842,0,0,1,0,5.673H190.972a.133.133,0,0,1,0-.266h14.891a2.494,2.494,0,0,0,2.411-2.57" transform="translate(-158.185 -803.528)" fill="#5858c6"/>
        <path id="Path_72" data-name="Path 72" d="M774.091,766.875c-1.047-.9-.969,1.626-1.459,1.858-.84.4-.487,1.946-.929,2.389s-2.7,3.108-2.713,3.111c-1,.295-6.664,20.376-7.49,20.73s-9.731-1-9.731-1l-2.123,7.726s16.4,3.008,17.693,1.12c.848-1.234,2.917-12.742,4.251-21.112.4-1.959.925-3.846,1.529-4.468a7.648,7.648,0,0,0,2.322-3.937c.156-.877-.066-5.308-1.349-6.414" transform="translate(-621.351 -635.471)" fill="#f48c7f"/>
        <path id="Path_73" data-name="Path 73" d="M1120.438,990.22l1.348,8.139s-1.348,5.839-.674,6.192,22.244.177,22.244.177,4.044-1.946,1.18-2.654-14.212-3.421-15-4.836-1.685-8.964-1.685-8.964Z" transform="translate(-928.686 -819.14)" fill="#f7a491"/>
        <path id="Path_74" data-name="Path 74" d="M1140.08,1252.291l1.416,8.139s-1.432,5.8-.724,6.154,23.784.039,23.784.039,3.833-1.77.826-2.477-14.921-3.421-15.747-4.836-1.769-8.964-1.769-8.964Z" transform="translate(-944.966 -1036.36)" fill="#f7a491"/>
        <path id="Path_75" data-name="Path 75" d="M511.508,877.751l-9.288-15.657s-21.951-.762-22.292,1.459c-.39,2.544,4.515,8.291,7.563,16.984,2.679,7.64,3.891,15.661,4.511,17.647,1.327,4.246,20.3-10.88,20.3-10.88Z" transform="translate(-397.774 -714.45)" fill="#ff862d"/>
        <path id="Path_76" data-name="Path 76" d="M851.052,855.36a14.631,14.631,0,0,0,6.118-2.241c10.233-7.25,31.183-27.385,36.978-24.711a10.249,10.249,0,0,1,2.477,1.5c6.7,6.6,12.208,30.7,12.208,30.7l-10.439,4.954L891.67,843.8l-19.847,21.1Z" transform="translate(-705.402 -686.433)" fill="#271651"/>
        <path id="Path_77" data-name="Path 77" d="M795.287,973.75l15.565-.379s39.451,5.993,44.223,8.519,8.067,42.657,8.067,42.657l-9.377,1.415-10.2-33.406-31.718.842Z" transform="translate(-659.181 -806.787)" fill="#271651"/>
        <path id="Path_78" data-name="Path 78" d="M638.046,881.951a59.483,59.483,0,0,1,11.977,1.248c4.866,1.248,11.353,2.5,11.353,2.5L659.5,895.55S649.4,893.8,648.9,893.8s-10.854-11.852-10.854-11.852" transform="translate(-528.85 -731.013)" fill="#a4e5ff"/>
        <path id="Path_79" data-name="Path 79" d="M576.283,880.98s-3.088,2.526-1.965,10.947,6,17.417,15.825,21.346,38.349,2.232,38.349,2.232l-.988-20.352s-14.428.148-17.516-.132c-2.444-.222-8.771-13.135-21.88-15.422-3.453-.6-7.377.211-11.825,1.382" transform="translate(-475.825 -728.894)" fill="#e9faff"/>
        <path id="Path_80" data-name="Path 80" d="M550.879,754.152a21.683,21.683,0,0,0-3.746-2.508c-1.567-.7-4.336-3.354-5.294-7.27a7.074,7.074,0,0,1,2.756-7.51c1.4-1.032,7.3-3.253,9.634-3.035s4.18,8.089,4.18,8.089l-.936,6.969Z" transform="translate(-448.921 -608.229)" fill="#271651"/>
        <path id="Path_81" data-name="Path 81" d="M593.635,826.776l3.156,6.174s.278,2.4-.347,3.454c-1.076,1.81-8.544-2.616-8.544-2.616l-3.3-10.6Z" transform="translate(-484.549 -682.309)" fill="#f7a491"/>
        <path id="Path_82" data-name="Path 82" d="M585.57,826.311a10.632,10.632,0,0,0,9.683,3.631l-1.618-3.165-9.037-3.586Z" transform="translate(-484.549 -682.309)" fill="#f47458"/>
        <path id="Path_83" data-name="Path 83" d="M568.886,749.477A5.543,5.543,0,0,1,577.3,750.6a41.894,41.894,0,0,1,2.552,4.691c2.029,4.4,1.629,9.725-.385,10.609s-8.841.459-11.809-5.749c-1.832-3.833-1.442-8.217,1.224-10.678" transform="translate(-469.576 -620.009)" fill="#f7a491"/>
        <path id="Path_84" data-name="Path 84" d="M568.1,811.957a1.614,1.614,0,1,1-2.227-1.135,1.785,1.785,0,0,1,2.227,1.135" transform="translate(-468.31 -671.965)" fill="#f7a491"/>
        <path id="Path_85" data-name="Path 85" d="M560.04,729.627a17.2,17.2,0,0,1-1.855-4.118c-.589-2.145.018-5.7,1.955-6.937s7.145-2.3,7.27-3.88.176-1.443.313-1.734c.313-.663,4.006.19,5.208,3.745s-1.937,4.611-2.5,4.94-6.913.113-8.544.849-1.849,7.136-1.849,7.136" transform="translate(-462.478 -590.77)" fill="#271651"/>
        <path id="Path_86" data-name="Path 86" d="M602.326,1001.5l10.76,10.293,5.053-8.515-8.889-8.7Z" transform="translate(-499.243 -824.366)" fill="#f48c7f"/>
        <path id="Path_87" data-name="Path 87" d="M670.405,821.538s-8.063,19.7-11.057,25.969-1.924,9.657-.593,10.57c1.027.7,6.456,1.31,10.105-5.708s4.632-28.024,5.661-28.024,3.054-3.191,3.182-3.462c.775-1.647-1.26-5.562-1.26-5.562s4.468-5.33,3.833-6.181c-.3-.406-7.262,5.6-8.057,7.375s-1.815,5.023-1.815,5.023" transform="translate(-544.913 -670.647)" fill="#f7a491"/>
        <path id="Path_88" data-name="Path 88" d="M582.549,910.443s-3.867-23.317-14.155-22.032c-1.985.248-3.086,1.584-3.569,3.579-2.02,8.343,7.934,27.063,7.934,27.063s9.229-6.926,9.79-8.611" transform="translate(-467.936 -736.325)" fill="#a4e5ff"/>
        <path id="Path_89" data-name="Path 89" d="M868.834,790.958l.739-2.334a.818.818,0,0,1,.743.112c.613.613-1.076,2.05-1.482,2.222" transform="translate(-720.141 -653.63)" fill="#13375b"/>
        <path id="Path_90" data-name="Path 90" d="M856.989,792.757c-.089.28.207.608.661.733l.141.039c-.157.962-1.816,1.545-1.816,1.545s-1.71-4.129.059-5.4a8.484,8.484,0,0,1,2.265-1.055.818.818,0,0,1,.743.111c.613.613-1.076,2.051-1.482,2.222l-.011,0,0,.038Z" transform="translate(-708.867 -653.63)" fill="#f48c7f"/>
        <path id="Path_91" data-name="Path 91" d="M864.333,802.558l-.347-.137s-.744,1.317-.98,1.847,1.637,1.12,2.167.973-.841-2.683-.841-2.683" transform="translate(-715.294 -665.094)" fill="#f47458"/>
        <path id="Path_92" data-name="Path 92" d="M871.549,744.193l-3.678,11.612c-.089.279-.527.4-.981.277l-.8-.224c-.454-.125-.749-.454-.661-.733l.571-1.8c.405-.172,2.095-1.609,1.482-2.222a.818.818,0,0,0-.743-.111l2.369-7.478c.089-.279.527-.4.98-.277l.806.224c.453.126.749.455.661.733" transform="translate(-717.302 -615.997)" fill="#271651"/>
        <path id="Path_93" data-name="Path 93" d="M878.105,767.471s.674-1.017-.044-1.548c-.38-.281-4.394.339-4.582.779-.517,1.2,3.118.693,4.626.77" transform="translate(-723.95 -634.783)" fill="#f48c7f"/>
        <path id="Path_94" data-name="Path 94" d="M878.954,774.751a1.856,1.856,0,0,0-.044-1.371c-.249-.4-4.467.008-4.821.686-.606,1.161,3.357.609,4.866.686" transform="translate(-724.444 -640.891)" fill="#f48c7f"/>
        <path id="Path_95" data-name="Path 95" d="M881.006,782.008s-4-.092-4.4.553,1.747.818,1.747.818l2.1,3.362s1.32-4.06.553-4.733" transform="translate(-726.541 -648.171)" fill="#f48c7f"/>
        <path id="Path_96" data-name="Path 96" d="M880.676,771.852a19.345,19.345,0,0,0-.708,1.99c-1.062,3.362-.671,3.457-.317,3.612s2.551-1.755,2.882-1.843,1.15-4.224.6-5.684-1.106-1.725-1.106-1.725Z" transform="translate(-728.798 -636.732)" fill="#f48c7f"/>
        <path id="Path_97" data-name="Path 97" d="M1399.222,1337.623a1.764,1.764,0,0,0-1.662-1.565h-30.386a1.764,1.764,0,0,0-1.662,1.565Z" transform="translate(-1131.817 -1107.404)" fill="#e27023"/>
        <path id="Path_98" data-name="Path 98" d="M1383.7,1300.424l-9.3-.025a14.329,14.329,0,0,1,5.089-5.584c3.265-1.821,8.906-1.782,8.906-1.782Z" transform="translate(-1139.191 -1071.743)" fill="#ff862d"/>
        <path id="Path_99" data-name="Path 99" d="M1435.324,1300.422s.63-7.188-1.779-7.411-4.816,7.39-4.816,7.39Z" transform="translate(-1184.215 -1071.721)" fill="#5858c6"/>
        <path id="Path_100" data-name="Path 100" d="M1616.374,1312.885a7.256,7.256,0,0,0-14.462,0Z" transform="translate(-1327.759 -1082.683)" fill="#ff862d"/>
        <path id="Path_101" data-name="Path 101" d="M1611.279,1337.667c-.071-.885-.41-1.555-.818-1.555h-14.966c-.408,0-.747.67-.819,1.555Z" transform="translate(-1321.762 -1107.449)" fill="#e27023"/>
        <rect id="Rectangle_17" data-name="Rectangle 17" width="0.542" height="22.127" transform="translate(67.652 124.88)" fill="#271651"/>
        <rect id="Rectangle_18" data-name="Rectangle 18" width="1.316" height="42.647" transform="translate(63.57 128.04)" fill="#271651"/>
        <path id="Path_109" data-name="Path 109" d="M336.857,988.482c-4.672,0-8.46-.837-8.46-1.869a.725.725,0,0,1,.37-.547l-.041-.012h-3.4l-.011,0a.735.735,0,0,1,.381.556c0,1.321-5.3,1.877-8.567,1.868h0v.4h19.936v-.4h-.206" transform="translate(-262.853 -817.3)" fill="#271651"/>
        <path id="Path_110" data-name="Path 110" d="M355.8,742.386h-7.941a1.43,1.43,0,0,1-1.43-1.43v-.162h10.8v.162a1.43,1.43,0,0,1-1.43,1.43" transform="translate(-287.143 -614.014)" fill="#271651"/>
        <path id="Path_111" data-name="Path 111" d="M311.059,641.871c0,.436-1.836.83-4.79,1.108-9.881.933-26.444.252-26.444-1.108,0-.054,10.2-18.849,10.2-18.849h10.827s10.2,18.8,10.2,18.849" transform="translate(-231.936 -516.397)" fill="#ff862d"/>
        <path id="Path_112" data-name="Path 112" d="M393.475,854.867a.918.918,0,1,1-.915-.841.88.88,0,0,1,.915.841" transform="translate(-324.619 -707.867)" fill="#271651"/>
        <path id="Path_113" data-name="Path 113" d="M1260.648,716.22a9.574,9.574,0,0,1-6.281-3.45c-3.008-3.362-10.173-5.219-16.012-4.866s-11.677,4.423-13.623,9.112a29.588,29.588,0,0,0-1.946,9.952h48.844a.836.836,0,0,0,.793-1.114,2.068,2.068,0,0,0-2.457-1.289c-2.831.295-9.318-8.345-9.318-8.345" transform="translate(-1013.518 -586.718)" fill="#ff862d"/>
        <path id="Path_114" data-name="Path 114" d="M1253.829,739.092s4.246-5.4,8.2-5.042,4.541,7.578,2.035,10.144c-2.448,2.506-2.86,2.034-2.86,2.034s3.951,0,5.249.59a1.5,1.5,0,0,1,.875,1.843l-19.04-.015a31.036,31.036,0,0,1,5.544-9.554" transform="translate(-1034.653 -608.41)" fill="#e27023"/>
        <path id="Path_115" data-name="Path 115" d="M1387.467,782.113l-2.7-1.957a18.181,18.181,0,0,0-4.733,1.957c-2.742,1.548-2.92,2.079-3.141,3.318s.028,1.459.028,1.459h4.4Z" transform="translate(-1141.177 -646.639)" fill="#e27023"/>
        <path id="Path_116" data-name="Path 116" d="M1387.348,780.071s-3.892,2.123-5.249,3.126-.645,3.168-.645,3.168l21.873.007a.8.8,0,0,0,.8-.8c0-.771-.516-1.8-3.331-1.61-4.423.295-7.549-1.3-7.372-2.241s-3.657-3.244-6.075-1.651" transform="translate(-1144.877 -646.116)" fill="#ff862d"/>
        <path id="Path_117" data-name="Path 117" d="M1222.77,814.27a5.2,5.2,0,0,0,2.167,4.2c2.344,1.813,8.669,1.548,12.341,1.813s5.529,1.239,6.148,4.069.044,7.077-3.052,7.74-.132,5.927,4.246,2.654,5.618-8.139,3.14-12.385-5.352-6.016-11.456-5.838-11.589.177-11.766-2.256-1.769,0-1.769,0" transform="translate(-1013.502 -674.018)" fill="#ff862d"/>
        <path id="Path_118" data-name="Path 118" d="M1245.588,738.765s5.536-5.5,9.488-5.146,3.074,8.684.243,10.748-3.656,1.828-3.656,1.828,5.249-.295,6.546.295a1.483,1.483,0,0,1,.889,1.816l-19.048,0a30.96,30.96,0,0,1,5.538-9.539" transform="translate(-1027.827 -608.054)" fill="#ff862d"/>
        <path id="Path_119" data-name="Path 119" d="M1441.352,762.157c-3.144-1.589-7.956-8-7.956-8a7.125,7.125,0,0,1-2.172-.525c-.123,1.673.207,4.466,2.463,8.333a20.794,20.794,0,0,0,7.665.191" transform="translate(-1186.265 -624.656)" fill="#e27023"/>
        <path id="Path_120" data-name="Path 120" d="M1444.27,709.663s-3.126,2.005-3.067,3.715c0,0-2.89,1.357-3.126,1.946s-1.356,3.951,1.946,9.908c0,0,6.9,1.592,9.436-1l1.239-3.539s2.536-2.713,2.536-4.541l-4.187.767s-3.008-2.89-4.246-2.89Z" transform="translate(-1191.655 -588.211)" fill="#ff862d"/>
      </g>
    </g>
    <path id="Path_121" data-name="Path 121" d="M1042.917,55.762H885.025a15.651,15.651,0,0,1-15.65-15.651V15.959A15.651,15.651,0,0,1,885.025.309h157.891a15.65,15.65,0,0,1,15.651,15.65V40.111a15.65,15.65,0,0,1-15.651,15.651" transform="translate(-779.235 139.52)" fill="#fff"/>
    <path id="Path_122" data-name="Path 122" d="M1042.7,55.637H884.809a15.761,15.761,0,0,1-15.743-15.743V15.742A15.761,15.761,0,0,1,884.809,0H1042.7a15.761,15.761,0,0,1,15.743,15.743V39.894A15.761,15.761,0,0,1,1042.7,55.637M884.809.184a15.575,15.575,0,0,0-15.558,15.558V39.894a15.576,15.576,0,0,0,15.558,15.558H1042.7a15.576,15.576,0,0,0,15.558-15.558V15.742A15.576,15.576,0,0,0,1042.7.184Z" transform="translate(-779.018 139.737)" fill="#86b1f2"/>
    <rect id="Rectangle_20" data-name="Rectangle 20" width="12.325" height="2.538" transform="translate(249.628 145.538)" fill="green"/>
    <rect id="Rectangle_21" data-name="Rectangle 21" width="150.639" height="7.008" transform="translate(106.973 179.453)" fill="green"/>
    <path id="Path_123" data-name="Path 123" d="M1545.638,52.028h0a2.758,2.758,0,0,1-2.759-2.758V9.554a2.759,2.759,0,1,1,5.517,0V49.269a2.758,2.758,0,0,1-2.759,2.758" transform="translate(-1251.674 134.97)" fill="#e9faff" opacity="0.65"/>
    <path id="Path_124" data-name="Path 124" d="M1542.88,92.787v16.8a2.759,2.759,0,0,0,5.517,0v-16.8Z" transform="translate(-1251.674 74.65)" fill="#fff"/>
    <path id="Path_125" data-name="Path 125" d="M1546.3,139.355a4.485,4.485,0,1,1-4.484-4.484,4.484,4.484,0,0,1,4.484,4.484" transform="translate(-1247.784 45.129)" fill="#fff"/>
    <path id="Path_126" data-name="Path 126" d="M1220.954,322.117h-7.568l5.351-5.351a.571.571,0,0,0-.808-.808l-5.351,5.351v-7.568a.571.571,0,1,0-1.142,0v7.568l-5.351-5.351a.571.571,0,0,0-.808.808l5.351,5.351h-7.568a.571.571,0,0,0,0,1.142h7.568l-5.351,5.351a.571.571,0,0,0,.808.808l5.351-5.351v7.567a.571.571,0,1,0,1.142,0v-7.567l5.351,5.351a.571.571,0,0,0,.808-.808l-5.351-5.351h7.568a.571.571,0,0,0,0-1.142" transform="translate(-1012.904 -79.942)" fill="#e9faff"/>
    <path id="Path_127" data-name="Path 127" d="M968.922,420.12l-6.243-2.427,6.131-2.7a.505.505,0,0,0-.407-.925l-6.13,2.7,2.427-6.243a.505.505,0,1,0-.942-.366L961.33,416.4l-2.7-6.13a.505.505,0,1,0-.925.407l2.7,6.13-6.243-2.427a.506.506,0,1,0-.367.942l6.243,2.427-6.13,2.7a.505.505,0,1,0,.407.925l6.13-2.7-2.427,6.243a.505.505,0,1,0,.942.366l2.427-6.243,2.7,6.131a.505.505,0,0,0,.925-.407l-2.7-6.131,6.243,2.427a.505.505,0,0,0,.366-.942" transform="translate(-838.226 -147.749)" fill="#e9faff"/>
    <path id="Path_128" data-name="Path 128" d="M1601.241,142.4l-4.834,2.524,1.634-5.2a.412.412,0,0,0-.786-.246l-1.633,5.2-2.524-4.834a.411.411,0,0,0-.73.381l2.524,4.834-5.2-1.634a.412.412,0,1,0-.247.785l5.2,1.634-4.835,2.524a.412.412,0,0,0,.381.73l4.835-2.524-1.634,5.2a.411.411,0,1,0,.785.247l1.634-5.2,2.524,4.835a.411.411,0,1,0,.729-.381l-2.524-4.834,5.2,1.634a.411.411,0,0,0,.246-.785l-5.2-1.634,4.834-2.524a.412.412,0,1,0-.381-.73" transform="translate(-1284.134 42.1)" fill="#e9faff"/>
    <path id="Path_129" data-name="Path 129" d="M1386.429,398.052l-5.074,2.865,1.562-5.614a.44.44,0,1,0-.847-.236l-1.562,5.614-2.866-5.074a.439.439,0,1,0-.765.432l2.865,5.074-5.614-1.562a.44.44,0,1,0-.236.847l5.614,1.562-5.075,2.865a.44.44,0,0,0,.433.766l5.074-2.865-1.562,5.614a.44.44,0,1,0,.847.236l1.562-5.614,2.865,5.074a.44.44,0,0,0,.766-.432l-2.865-5.074,5.614,1.562a.44.44,0,0,0,.236-.847l-5.614-1.562,5.074-2.865a.44.44,0,1,0-.432-.766" transform="translate(-1132.91 -137.164)" fill="#e9faff"/>
    <path id="Path_130" data-name="Path 130" d="M783.543,298.677c4.122-4.3,3.852-4.571,5.546-9.134.989-2.818,4.262-6.584,4.245-6.563a18.637,18.637,0,0,1,2.841-2.5c10.311-6.92,12-8.015,15.252-17.588,4.083-12.021,6.449-10.734,13.105-17.879,6.549-7.085,4.305-14.063,7.378-21.552l-.032-.014c-2.415,5.256-2.216,11.372-4.7,16.433-2.935,5.763-9.771,8.949-12.927,13.218-2.285,3.1-3.055,5.059-4.631,9.138-3.907,10.149-5.866,9.849-14.783,15.68l-1.237.844a17.055,17.055,0,0,0-2.52,2.164l-.375.413c-7.641,9.042-3.783,8.774-8.741,13.618l-.984.9Z" transform="translate(-717.229 -17.005)" fill="#e9faff"/>
    <path id="Path_131" data-name="Path 131" d="M1445.817,305.737c-.493.338-13.443-9.379-18.5-25.909-1.116-3.651-.989-7.647-2.062-11.212-3.332-11.068-14.343-12.61-14.591-30.979-.267-17.586-1.879-15.012-7.656-27.677a26.968,26.968,0,0,1-2.167-6.874l-.043.006c.553,4.84,2.839,9.161,4.937,13.6,9.169,19.423-3.449,22.663,10.134,41.7,2.11,2.945,5.3,6.605,6.493,10.1,1.515,4.434.948,9.8,2.321,14.446a50.27,50.27,0,0,0,17.256,25.453l3.874-2.656" transform="translate(-1152.012 -2.721)" fill="#e9faff"/>
    <path id="Path_132" data-name="Path 132" d="M1517.494,286.248c-5.45-3.388-11.911-4.147-16.354-8.867-3.169-3.368-5.016-11.465-11.862-16.1-3.534-2.395-7.485-4.249-10.382-7.476-3.76-4.122-4.043-11.9-8.1-17.193-3.4-4.336-8.6-7.085-11.263-12l-.032.016c3.392,6.964,9.889,8.337,13.067,17.244,1.383,3.927,1.907,7.48,3.9,11.132a16.305,16.305,0,0,0,3.178,3.9c3.708,3.393,7.409,4.753,11.04,8.467,5.19,5.31,5.383,15.316,15.618,19.948.469.212,9.32,3.525,8.963,4.019,0,0,2.228-3.086,2.225-3.088" transform="translate(-1193.191 -17.816)" fill="#e9faff"/>
  </g>
</svg>
