<svg width="145" height="136" viewBox="0 0 145 136" fill="none" xmlns="http://www.w3.org/2000/svg">
<path d="M17.1101 92.7876C17.1101 92.7876 17.5258 87.3019 16.3953 82.0429C15.2647 76.784 12.5188 72.7343 9.15239 71.1534C5.78603 69.5726 1.75206 71.7266 4.65866 75.326C7.56525 78.9253 13.5926 85.3432 13.5579 94.7243L17.1101 92.7876Z" fill="#E0E0E0"/>
<path d="M15.3813 92.5954H15.4222C15.4751 92.5938 15.5253 92.5714 15.5618 92.5331C15.5983 92.4948 15.6183 92.4437 15.6175 92.3907C15.3026 80.9029 11.4733 75.1495 7.05199 72.2366C7.0081 72.208 6.95464 72.1978 6.90331 72.2085C6.85197 72.2191 6.80693 72.2496 6.77802 72.2933C6.76326 72.3147 6.75293 72.3389 6.74763 72.3643C6.74233 72.3898 6.74217 72.416 6.74715 72.4416C6.75214 72.4671 6.76218 72.4914 6.77667 72.5129C6.79116 72.5345 6.80982 72.553 6.83155 72.5673C11.193 75.455 14.9058 81.0887 15.2175 92.4065C15.219 92.452 15.2361 92.4956 15.2659 92.53C15.2957 92.5644 15.3365 92.5875 15.3813 92.5954Z" fill="white"/>
<path d="M0.00118398 82.4776C0.0641655 83.1074 0.577465 83.5986 1.06872 84.0112C1.55998 84.4237 2.09217 84.8646 2.22443 85.4881C2.49525 86.7477 0.999442 87.9129 1.3238 89.1599C1.40986 89.417 1.54755 89.6538 1.72841 89.8558C1.90928 90.0578 2.12951 90.2207 2.37559 90.3345C2.77839 90.5328 3.19151 90.7094 3.61317 90.8636C3.8201 90.9258 4.03037 90.9762 4.24299 91.0147C4.87322 91.0715 5.46736 91.3337 5.93404 91.7611C6.62054 92.5074 6.53552 93.6505 6.778 94.6456C7.07401 95.8265 7.77625 96.5351 9.38543 97.083L14.8963 93.9591C16.2693 92.5609 16.7543 90.1802 15.4883 88.5395C14.7294 87.5633 13.3092 87.4405 12.5912 86.4612C11.9614 85.5857 12.3204 84.3198 11.9267 83.3121C11.5331 82.3044 10.4845 81.9517 9.49565 81.7785C8.50684 81.6053 7.45505 82.0147 6.49143 81.662C5.52781 81.3093 4.63033 80.7393 3.62892 80.4905C3.14295 80.3461 2.63041 80.3148 2.13046 80.3988C1.63051 80.4829 1.1564 80.6801 0.744366 80.9755C0.505404 81.1444 0.312311 81.3701 0.18255 81.6324C0.052789 81.8947 -0.00954559 82.1852 0.00118398 82.4776Z" fill="#EBEBEB"/>
<path d="M10.2735 87.4373C10.2635 87.4152 10.2484 87.3958 10.2295 87.3806C7.64091 83.7088 3.57861 81.9642 2.20876 81.6588C2.1894 81.6517 2.16876 81.6488 2.1482 81.6503C2.12764 81.6518 2.10765 81.6577 2.08955 81.6676C2.07145 81.6774 2.05567 81.6911 2.04326 81.7075C2.03084 81.724 2.02208 81.7429 2.01756 81.763C2.01304 81.7831 2.01287 81.804 2.01705 81.8241C2.02123 81.8443 2.02967 81.8634 2.04181 81.88C2.05394 81.8967 2.06949 81.9106 2.08742 81.9208C2.10535 81.9309 2.12525 81.9372 2.14578 81.939C3.44634 82.2287 7.21579 83.8285 9.75394 87.2106C8.71956 86.8616 7.62421 86.7301 6.53661 86.8244C5.44901 86.9187 4.39264 87.2367 3.43375 87.7585C3.40183 87.7792 3.37932 87.8116 3.37108 87.8487C3.36283 87.8858 3.3695 87.9247 3.38966 87.9569C3.40286 87.976 3.42019 87.9918 3.44037 88.0033C3.46054 88.0147 3.48303 88.0215 3.50618 88.023C3.53551 88.024 3.56431 88.0151 3.58805 87.9978C4.57079 87.4665 5.65782 87.1566 6.77298 87.0897C7.88814 87.0227 9.00445 87.2005 10.0437 87.6105C11.5561 89.7757 12.3141 92.3784 12.2008 95.0171C12.199 95.0532 12.211 95.0886 12.2344 95.1161C12.2578 95.1436 12.2908 95.1612 12.3267 95.1651C12.3646 95.166 12.4014 95.152 12.429 95.1261C12.4567 95.1002 12.4731 95.0645 12.4747 95.0266C12.5952 92.3236 11.8216 89.6563 10.2735 87.4373Z" fill="white"/>
<path d="M130.193 96.4815C130.14 92.3877 130.216 88.6088 132.294 82.7956C134.035 77.9114 138.513 72.9863 141.536 73.1941C144.355 73.3893 144.978 76.8502 142.443 79.93C139.908 83.0098 134.388 88.9017 134.048 93.1561L132.968 97.9836L130.193 96.4815Z" fill="#E0E0E0"/>
<path d="M131.443 95.4487C131.482 95.4388 131.516 95.4169 131.541 95.3863C131.565 95.3558 131.58 95.3181 131.582 95.2787C132.023 85.7559 137.342 77.8202 141.779 75.3797C141.821 75.3563 141.851 75.3173 141.864 75.2712C141.877 75.2251 141.871 75.1758 141.848 75.134C141.825 75.0923 141.786 75.0615 141.74 75.0485C141.694 75.0355 141.644 75.0414 141.602 75.0648C137.093 77.5431 131.667 85.6079 131.21 95.2629C131.209 95.2865 131.213 95.3101 131.22 95.3324C131.228 95.3546 131.24 95.3751 131.256 95.3927C131.272 95.4102 131.291 95.4245 131.312 95.4347C131.334 95.4448 131.357 95.4507 131.381 95.4519L131.443 95.4487Z" fill="white"/>
<path d="M134.007 98.5601C134.18 97.1241 135.496 94.5891 137.909 92.2808C140.579 89.7301 144.226 88.1713 144.836 86.4172C145.58 84.3136 143.719 83.1894 140.642 83.8476C136.942 84.638 132.842 88.8704 132.139 97.5177L134.007 98.5601Z" fill="#EBEBEB"/>
<path d="M133.179 97.2154C133.213 97.2074 133.243 97.1898 133.267 97.1646C133.291 97.1395 133.308 97.1079 133.314 97.0737C134.728 89.5159 139.779 86.1369 142.254 85.4032C142.3 85.3894 142.338 85.3581 142.36 85.3161C142.383 85.2742 142.388 85.2251 142.374 85.1796C142.368 85.1566 142.357 85.135 142.342 85.1162C142.328 85.0974 142.309 85.0819 142.288 85.0704C142.268 85.0589 142.245 85.0518 142.221 85.0494C142.197 85.0471 142.173 85.0496 142.15 85.0568C139.417 85.8661 134.404 89.2923 132.958 97.0044C132.954 97.0278 132.954 97.0518 132.959 97.0751C132.964 97.0985 132.973 97.1206 132.986 97.1402C133 97.1599 133.017 97.1766 133.037 97.1895C133.057 97.2024 133.08 97.2112 133.103 97.2154C133.128 97.2216 133.154 97.2216 133.179 97.2154Z" fill="white"/>
<path d="M75.5286 127.062L82.8565 122.83C82.904 122.814 82.9452 122.783 82.9744 122.743C83.0035 122.702 83.0192 122.653 83.0192 122.603C83.0192 122.553 83.0035 122.504 82.9744 122.463C82.9452 122.423 82.904 122.392 82.8565 122.376L81.0616 121.34C80.9397 121.278 80.8048 121.246 80.6679 121.246C80.5311 121.246 80.3962 121.278 80.2743 121.34L72.9464 125.573C72.899 125.589 72.8577 125.619 72.8286 125.66C72.7994 125.7 72.7837 125.749 72.7837 125.799C72.7837 125.849 72.7994 125.898 72.8286 125.939C72.8577 125.98 72.899 126.01 72.9464 126.026L73.8439 126.543L64.6423 131.855C64.425 131.981 64.5163 132.022 64.6171 132.082C64.7179 132.142 64.7934 132.192 65.0107 132.082L74.2092 126.772L74.7382 127.087C74.8625 127.146 74.999 127.175 75.1365 127.17C75.2739 127.166 75.4083 127.129 75.5286 127.062Z" fill="#E0E0E0"/>
<path d="M72.7606 118.941C72.1886 118.953 71.6233 118.816 71.1199 118.544L70.9719 118.45L70.7011 118.258L73.0094 117.921L73.2172 117.486L72.5874 117.121L70.3831 117.436L70.4555 117.228C70.5875 116.913 70.8277 116.656 71.1325 116.503C71.6285 116.24 72.1835 116.108 72.7449 116.119C72.9932 116.118 73.241 116.142 73.4849 116.189L81.0049 111.849C80.914 111.66 80.8917 111.445 80.9419 111.241C80.9976 111.067 81.0883 110.905 81.2085 110.766C81.3287 110.628 81.4758 110.515 81.641 110.435C82.1385 110.173 82.6942 110.041 83.2565 110.051C83.8289 110.039 84.3946 110.177 84.8971 110.451C84.9481 110.48 84.9975 110.511 85.0452 110.545L85.316 110.734L83.0077 111.071L82.7999 111.509L83.4297 111.874L85.634 111.559L85.5616 111.764C85.4297 112.079 85.1896 112.337 84.8846 112.492C84.388 112.753 83.8334 112.885 83.2722 112.876C83.0238 112.876 82.7759 112.851 82.5322 112.803L75.0122 117.146C75.1029 117.334 75.1252 117.548 75.0752 117.751C75.0198 117.926 74.9293 118.087 74.809 118.226C74.6888 118.365 74.5415 118.477 74.3761 118.557C73.8791 118.82 73.323 118.952 72.7606 118.941Z" fill="#E0E0E0"/>
<path d="M41.0714 135.325C54.3397 135.325 65.0957 129.115 65.0957 121.454C65.0957 113.793 54.3397 107.582 41.0714 107.582C27.8032 107.582 17.0471 113.793 17.0471 121.454C17.0471 129.115 27.8032 135.325 41.0714 135.325Z" fill="#E0E0E0"/>
<path d="M80.3876 122.25L112.269 103.844L130.08 114.126L98.1987 132.532L80.3876 122.25Z" fill="#E0E0E0"/>
<path d="M72.1624 111.525L59.7267 104.345C59.2763 104.087 59.2763 103.661 59.7267 103.4L79.8367 91.7925C80.0903 91.6636 80.3709 91.5964 80.6554 91.5964C80.94 91.5964 81.2205 91.6636 81.4742 91.7925L93.9099 98.9693C94.3602 99.2306 94.3602 99.6558 93.9099 99.914L73.7999 111.525C73.5462 111.654 73.2657 111.721 72.9811 111.721C72.6966 111.721 72.416 111.654 72.1624 111.525Z" fill="#E0E0E0"/>
<path d="M72.9811 110.328V99.9895L60.1896 92.6018L61.4681 103.68L72.9811 110.328Z" fill="#263238"/>
<path d="M72.981 110.328L92.1683 99.2494L93.4468 88.1709L72.981 99.9894V110.328Z" fill="#37474F"/>
<path d="M59.3904 90.388C59.3998 90.2865 59.4359 90.1893 59.4951 90.1063C59.5543 90.0233 59.6344 89.9575 59.7273 89.9156L79.8373 78.305C80.091 78.1761 80.3715 78.1089 80.6561 78.1089C80.9406 78.1089 81.2212 78.1761 81.4749 78.305L93.9106 85.4848C94.0037 85.5265 94.084 85.5922 94.1432 85.6752C94.2025 85.7583 94.2385 85.8556 94.2475 85.9572V88.911C94.239 89.0132 94.2033 89.1112 94.144 89.1948C94.0847 89.2785 94.0041 89.3447 93.9106 89.3866L73.8006 100.994C73.5469 101.123 73.2663 101.19 72.9818 101.19C72.6972 101.19 72.4167 101.123 72.163 100.994L59.7273 93.8142C59.6346 93.772 59.5546 93.7061 59.4955 93.6232C59.4363 93.5403 59.4001 93.4432 59.3904 93.3418V90.388Z" fill="#FFFF00"/>
<path opacity="0.2" d="M59.7266 89.9157L72.9811 82.2634V101.193C72.6956 101.198 72.4136 101.13 72.1623 100.994L59.7266 93.8142C59.6339 93.7721 59.5539 93.7062 59.4947 93.6233C59.4356 93.5403 59.3993 93.4433 59.3896 93.3419V90.3849C59.3996 90.2839 59.4359 90.1874 59.4951 90.105C59.5543 90.0226 59.6341 89.9573 59.7266 89.9157Z" fill="black"/>
<path opacity="0.1" d="M72.981 82.2633L79.8365 78.305C80.0902 78.1761 80.3707 78.1089 80.6553 78.1089C80.9398 78.1089 81.2203 78.1761 81.474 78.305L93.9097 85.4848C94.0028 85.5265 94.0832 85.5922 94.1424 85.6752C94.2016 85.7583 94.2376 85.8556 94.2467 85.9572V88.911C94.2382 89.0132 94.2024 89.1112 94.1431 89.1948C94.0839 89.2785 94.0033 89.3447 93.9097 89.3866L73.7997 100.994C73.5484 101.129 73.2664 101.198 72.981 101.192V82.2633Z" fill="black"/>
<path d="M72.1624 98.0402L59.7267 90.8603C59.2763 90.5989 59.2763 90.177 59.7267 89.9156L79.8367 78.305C80.0903 78.1761 80.3709 78.1089 80.6554 78.1089C80.94 78.1089 81.2205 78.1761 81.4742 78.305L93.9099 85.4848C94.3602 85.7462 94.3602 86.1682 93.9099 86.4296L73.7999 98.0402C73.5462 98.1691 73.2657 98.2363 72.9811 98.2363C72.6966 98.2363 72.416 98.1691 72.1624 98.0402Z" fill="#FFFF00"/>
<path opacity="0.2" d="M90.2505 86.3256C90.6032 86.5303 90.5843 86.8704 90.2065 87.0877L76.2214 95.1651C76.0182 95.2725 75.7925 95.3305 75.5627 95.3343C75.3329 95.3382 75.1055 95.2877 74.8988 95.1871C74.5461 94.9856 74.565 94.6423 74.9429 94.425L88.9279 86.3508C89.1309 86.2429 89.3564 86.1843 89.5862 86.18C89.816 86.1756 90.0436 86.2255 90.2505 86.3256Z" fill="black"/>
<path opacity="0.2" d="M76.2215 95.1652C76.0183 95.2726 75.7926 95.3306 75.5628 95.3344C75.333 95.3383 75.1055 95.2878 74.8989 95.1872L74.8296 95.14C74.865 95.1105 74.903 95.0842 74.943 95.0613L88.928 86.987C89.1309 86.8791 89.3565 86.8206 89.5863 86.8162C89.8161 86.8118 90.0437 86.8617 90.2506 86.9618L90.3199 87.0122C90.2844 87.0406 90.2464 87.0659 90.2065 87.0878L76.2215 95.1652Z" fill="black"/>
<path opacity="0.2" d="M80.0161 80.4181C80.3719 80.6197 80.353 80.9629 79.9751 81.1802L65.9869 89.2544C65.7845 89.3623 65.5595 89.4209 65.3302 89.4253C65.1009 89.4296 64.8738 89.3797 64.6675 89.2796C64.3148 89.075 64.3337 88.7348 64.7084 88.5176L78.6966 80.4402C78.8992 80.3328 79.1244 80.2748 79.3537 80.271C79.583 80.2671 79.8099 80.3176 80.0161 80.4181Z" fill="black"/>
<path opacity="0.2" d="M65.9869 89.2542C65.7845 89.3621 65.5595 89.4207 65.3302 89.425C65.1009 89.4294 64.8738 89.3795 64.6674 89.2794C64.6426 89.2652 64.6193 89.2483 64.5981 89.229C64.6331 89.2013 64.6699 89.1761 64.7084 89.1535L78.6966 81.0792C78.8987 80.9706 79.1238 80.9116 79.3532 80.9072C79.5827 80.9029 79.8099 80.9532 80.016 81.054C80.0401 81.0683 80.0632 81.0841 80.0853 81.1013C80.051 81.1307 80.0141 81.1571 79.9751 81.18L65.9869 89.2542Z" fill="black"/>
<path opacity="0.2" d="M67.2213 90.0353C66.8686 90.24 66.8875 90.5801 67.2654 90.7974L72.3039 93.7009C72.5063 93.8088 72.7313 93.8673 72.9606 93.8717C73.1899 93.876 73.417 93.8261 73.6234 93.726C73.9761 93.5213 73.9572 93.1812 73.5824 92.964L68.5439 90.0605C68.341 89.9526 68.1154 89.894 67.8856 89.8897C67.6558 89.8853 67.4282 89.9352 67.2213 90.0353Z" fill="black"/>
<path opacity="0.2" d="M72.3008 93.6851C72.5032 93.793 72.7282 93.8515 72.9576 93.8559C73.1869 93.8603 73.414 93.8104 73.6203 93.7103C73.6444 93.696 73.6675 93.6802 73.6896 93.663C73.6553 93.6336 73.6184 93.6072 73.5794 93.5843L68.5408 90.6809C68.3379 90.5729 68.1124 90.5144 67.8826 90.51C67.6527 90.5057 67.4251 90.5556 67.2182 90.6557C67.1949 90.6707 67.1728 90.6875 67.1521 90.7061C67.1861 90.7351 67.223 90.7604 67.2623 90.7816L72.3008 93.6851Z" fill="black"/>
<path opacity="0.2" d="M64.6675 91.4965C64.3148 91.6981 64.3337 92.0413 64.7084 92.2586L69.7469 95.162C69.9499 95.27 70.1754 95.3285 70.4052 95.3329C70.635 95.3373 70.8626 95.2873 71.0695 95.1872C71.4222 94.9825 71.4033 94.6393 71.0254 94.422L65.9869 91.5186C65.7843 91.4111 65.5591 91.3532 65.3298 91.3493C65.1005 91.3455 64.8736 91.3959 64.6675 91.4965Z" fill="black"/>
<path opacity="0.2" d="M69.7438 95.1619C69.9468 95.2698 70.1723 95.3284 70.4021 95.3327C70.6319 95.3371 70.8595 95.2872 71.0664 95.1871C71.0916 95.1713 71.1105 95.1525 71.1326 95.1367C71.0983 95.1072 71.0614 95.0809 71.0224 95.058L65.9838 92.1545C65.7812 92.0471 65.5561 91.9891 65.3267 91.9853C65.0974 91.9815 64.8705 92.0319 64.6644 92.1325C64.6396 92.1456 64.6164 92.1615 64.5951 92.1797C64.6294 92.2092 64.6663 92.2355 64.7053 92.2585L69.7438 95.1619Z" fill="black"/>
<path opacity="0.2" d="M82.5732 81.1581C82.2206 81.3628 82.2363 81.7029 82.6142 81.9202L87.6527 84.8236C87.8551 84.9315 88.0801 84.99 88.3094 84.9944C88.5387 84.9988 88.7658 84.9489 88.9722 84.8488C89.328 84.6441 89.3091 84.304 88.9312 84.0867L83.8927 81.1833C83.6903 81.0754 83.4653 81.0169 83.236 81.0125C83.0067 81.0081 82.7796 81.058 82.5732 81.1581Z" fill="black"/>
<path opacity="0.2" d="M87.6495 84.8235C87.8524 84.9314 88.0779 84.99 88.3078 84.9943C88.5376 84.9987 88.7652 84.9488 88.9721 84.8487C88.9954 84.8337 89.0175 84.8168 89.0382 84.7983C89.0038 84.7699 88.9669 84.7446 88.928 84.7227L83.8895 81.8193C83.6871 81.7114 83.4621 81.6528 83.2328 81.6485C83.0035 81.6441 82.7764 81.694 82.57 81.7941C82.5459 81.8083 82.5228 81.8241 82.5007 81.8413C82.5351 81.8708 82.5719 81.8971 82.6109 81.92L87.6495 84.8235Z" fill="black"/>
<path opacity="0.2" d="M80.0161 82.6319C79.6634 82.8366 79.6823 83.1798 80.057 83.3971L85.0955 86.3006C85.2988 86.4075 85.5242 86.4655 85.7539 86.4699C85.9835 86.4743 86.211 86.4249 86.4182 86.3258C86.7709 86.1211 86.752 85.7778 86.3741 85.5605L81.3355 82.6571C81.1327 82.5506 80.9078 82.4929 80.6788 82.4885C80.4498 82.4842 80.2228 82.5333 80.0161 82.6319Z" fill="black"/>
<path opacity="0.2" d="M85.0924 86.3005C85.2957 86.4075 85.5211 86.4655 85.7508 86.4698C85.9804 86.4742 86.2079 86.4248 86.4151 86.3257L86.4843 86.2753C86.4489 86.2458 86.411 86.2195 86.371 86.1966L81.3324 83.2931C81.1292 83.1862 80.9038 83.1282 80.6741 83.1238C80.4445 83.1194 80.217 83.1688 80.0098 83.2679L79.9406 83.3183C79.9754 83.3471 80.0123 83.3734 80.0508 83.3971L85.0924 86.3005Z" fill="black"/>
<path d="M71.7025 87.5318V90.3881L72.981 91.1281L74.2596 90.3881V88.2215C74.2726 87.9851 74.3409 87.7551 74.459 87.55C74.5772 87.3449 74.7418 87.1704 74.9398 87.0406L78.0888 85.2173L78.6872 84.874C79.0619 84.6567 79.3674 84.8331 79.3674 85.2677V87.4342L80.6459 86.6942V83.838C80.6492 83.7813 80.6492 83.7246 80.6459 83.6679C80.6431 83.6244 80.6368 83.5813 80.627 83.5388C80.6181 83.4896 80.6055 83.4412 80.5892 83.394C80.5764 83.3565 80.5617 83.3197 80.5451 83.2837C80.5278 83.2477 80.5078 83.213 80.4853 83.1798C80.4647 83.1475 80.4416 83.117 80.416 83.0885C80.3921 83.0609 80.3658 83.0356 80.3373 83.0129C80.3098 82.9911 80.2803 82.9721 80.2491 82.9562L80.2082 82.9342L78.9769 82.2225C78.8231 82.1505 78.6527 82.1212 78.4837 82.1378C78.3146 82.1545 78.1532 82.2163 78.0164 82.317L73.0692 85.1732C72.6717 85.4309 72.3408 85.7789 72.1033 86.1888C71.8658 86.5986 71.7285 87.0588 71.7025 87.5318Z" fill="#455A64"/>
<path d="M78.0952 85.2173V86.691L79.3737 87.4311V85.2645C79.3737 84.8299 79.0588 84.6536 78.6935 84.8709L78.0952 85.2173Z" fill="#263238"/>
<path d="M72.981 88.2685V91.1279L74.2595 90.3879V88.2213C74.2725 87.9849 74.3408 87.7549 74.4589 87.5498C74.5771 87.3447 74.7418 87.1702 74.9397 87.0404L78.0888 85.2202L78.6871 84.877C79.0618 84.6597 79.3673 84.836 79.3673 85.2706V87.4372L80.6458 86.7003V83.8409C80.6491 83.7843 80.6491 83.7275 80.6458 83.6709C80.6431 83.6274 80.6367 83.5842 80.6269 83.5418C80.6181 83.4926 80.6054 83.4442 80.5891 83.3969C80.5763 83.3594 80.5616 83.3226 80.545 83.2867C80.5277 83.2506 80.5077 83.2159 80.4852 83.1828C80.4647 83.1505 80.4415 83.1199 80.4159 83.0914C80.3921 83.0639 80.3657 83.0386 80.3372 83.0159C80.3098 82.9941 80.2802 82.9751 80.249 82.9592L80.2081 82.9371C80.0577 82.8809 79.8958 82.8625 79.7366 82.8833C79.5774 82.9042 79.4257 82.9638 79.2949 83.0568L74.3477 85.913C73.9513 86.1712 73.6211 86.5188 73.3837 86.928C73.1463 87.3371 73.0084 87.7963 72.981 88.2685Z" fill="#37474F"/>
<path d="M79.3768 100.726L78.9045 100.456L77.6228 101.192L78.0983 101.466L79.3768 100.726Z" fill="#455A64"/>
<path d="M78.0983 101.466L77.626 107.648L77.6228 101.192L78.0983 101.466Z" fill="#263238"/>
<path d="M79.3768 100.726L78.9044 106.908L79.0587 106.836L79.3768 100.726Z" fill="#37474F"/>
<path d="M68.6699 101.932L69.1423 101.658L70.4208 102.395L69.9484 102.669L68.6699 101.932Z" fill="#455A64"/>
<path d="M68.6699 101.933L69.1423 108.111L68.988 108.039L68.6699 101.933Z" fill="black"/>
<path d="M63.5526 98.9754L64.0281 98.7046L65.3066 99.4415L64.8311 99.7154L63.5526 98.9754Z" fill="#455A64"/>
<path d="M70.4208 108.851L69.9485 102.669L70.4208 102.396V108.851Z" fill="#37474F"/>
<path d="M65.3067 99.4414V105.897L64.8312 99.7154L65.3067 99.4414Z" fill="#37474F"/>
<path d="M63.5526 98.9753L64.025 105.157L63.8707 105.085L63.5526 98.9753Z" fill="black"/>
<path d="M88.3295 95.5589L87.8571 95.2849L86.5786 96.0218L87.051 96.2958L88.3295 95.5589Z" fill="#455A64"/>
<path d="M87.051 96.2957L86.5786 102.477V96.0217L87.051 96.2957Z" fill="#263238"/>
<path d="M88.3295 95.5588L87.8572 101.74L88.0146 101.665L88.3295 95.5588Z" fill="#37474F"/>
<path d="M76.9363 99.6777L76.9394 98.2008L79.4965 96.7239L79.9247 96.9695L79.9216 98.4464L77.3614 99.9233L76.9363 99.6777Z" fill="#37474F"/>
<path d="M79.9248 96.9695L79.9217 98.4464L77.3615 99.9233L77.3677 98.4464L79.9248 96.9695Z" fill="#455A64"/>
<path d="M77.3677 98.4466L76.9394 98.2009L76.9363 99.6778L77.3614 99.9235L77.3677 98.4466Z" fill="#263238"/>
<path d="M85.9584 94.4724L85.9647 92.9955L88.5217 91.5186L88.95 91.7642L88.9437 93.2411L86.3867 94.718L85.9584 94.4724Z" fill="#37474F"/>
<path d="M88.9499 91.7642L88.9436 93.2411L86.3866 94.718L86.3897 93.2411L88.9499 91.7642Z" fill="#455A64"/>
<path d="M86.3898 93.241L85.9647 92.9954L85.9584 94.4723L86.3867 94.7179L86.3898 93.241Z" fill="#263238"/>
<path d="M71.2428 116.412C71.0696 116.51 70.7453 116.506 70.6414 116.623V117.048L72.619 116.761L73.3653 117.199L73.0819 117.794L71.0854 117.659V118.084C71.1277 118.116 71.1719 118.145 71.2176 118.172C71.6901 118.411 72.2122 118.536 72.7418 118.536C73.2713 118.536 73.7934 118.411 74.2659 118.172C74.4401 118.094 74.5903 117.971 74.701 117.815C74.8117 117.66 74.8789 117.478 74.8958 117.287V116.862L74.7792 116.881C74.7782 116.874 74.7782 116.866 74.7792 116.859L82.2615 112.539C83.0222 112.707 83.8179 112.607 84.513 112.255C84.782 112.123 84.9953 111.9 85.1145 111.625V111.197L83.1369 111.912L82.3906 111.474L82.674 110.879L84.6705 110.589V110.161C84.6705 110.161 82.337 110.007 81.4868 110.476C81.2713 110.589 81.0898 110.758 80.9609 110.964L80.8475 110.923V111.345C80.8463 111.503 80.8912 111.657 80.9766 111.789L73.4944 116.11C72.7315 115.947 71.9357 116.054 71.2428 116.412Z" fill="#37474F"/>
<path d="M82.2613 112.551V112.126L74.7791 116.447V116.872L82.2613 112.551Z" fill="#37474F"/>
<path d="M80.9766 111.383L73.4944 115.703C72.734 115.535 71.9388 115.634 71.2428 115.984C70.9738 116.115 70.7606 116.339 70.6414 116.613L72.619 116.327L73.3653 116.765L73.0819 117.357L71.0854 117.65C71.1277 117.681 71.1719 117.711 71.2176 117.738C71.6901 117.977 72.2122 118.101 72.7418 118.101C73.2713 118.101 73.7934 117.977 74.2659 117.738C74.8958 117.385 75.0595 116.869 74.7792 116.425L82.2615 112.104C83.0222 112.271 83.8174 112.171 84.513 111.821C84.782 111.689 84.9953 111.466 85.1145 111.191L83.1369 111.481L82.3906 111.043L82.674 110.448L84.6705 110.155L84.5382 110.07C84.0657 109.831 83.5436 109.706 83.0141 109.706C82.4845 109.706 81.9624 109.831 81.4899 110.07C80.8822 110.422 80.6964 110.939 80.9766 111.383Z" fill="#455A64"/>
<path d="M82.548 111.147L82.3905 111.055L82.6739 110.46L84.6704 110.167V110.596L82.6739 110.885L82.548 111.147Z" fill="#263238"/>
<path d="M73.2079 117.105L73.3653 116.774L72.619 116.333L70.6414 116.623V117.051L72.619 116.762L73.2079 117.105Z" fill="#263238"/>
<path d="M75.8215 122.698L77.3961 125.406L82.6739 122.361C82.7961 122.285 82.8941 122.176 82.9566 122.047C83.0191 121.917 83.0434 121.773 83.0266 121.63C83.006 121.246 82.8948 120.872 82.7022 120.538C82.5095 120.205 82.2409 119.922 81.9181 119.712C81.8066 119.631 81.6754 119.581 81.538 119.568C81.4006 119.555 81.2622 119.578 81.1372 119.637L75.8215 122.698Z" fill="#FFFF00"/>
<path d="M75.5066 123.258C75.4846 123.671 74.902 123.759 74.902 123.759L76.0073 125.677C76.0073 125.677 76.3757 125.223 76.7442 125.403C77.289 125.639 77.7141 125.346 77.7141 124.694C77.693 124.31 77.5816 123.937 77.3889 123.604C77.1963 123.271 76.928 122.989 76.6056 122.779C76.0388 122.449 75.5727 122.669 75.5066 123.258Z" fill="#FFFF00"/>
<path opacity="0.05" d="M75.5066 123.258C75.4846 123.671 74.902 123.759 74.902 123.759L76.0073 125.677C76.0073 125.677 76.3757 125.223 76.7442 125.403C77.289 125.639 77.7141 125.346 77.7141 124.694C77.693 124.31 77.5816 123.937 77.3889 123.604C77.1963 123.271 76.928 122.989 76.6056 122.779C76.0388 122.449 75.5727 122.669 75.5066 123.258Z" fill="black"/>
<path opacity="0.05" d="M75.1632 123.677C75.0788 123.715 74.9899 123.743 74.8987 123.759L76.004 125.677C76.0651 125.607 76.1337 125.545 76.2087 125.491C76.1771 125.131 76.0672 124.782 75.8866 124.468C75.706 124.155 75.4591 123.885 75.1632 123.677Z" fill="black"/>
<path d="M73.7463 123.894L73.8377 124.055C73.8062 124.167 73.7903 124.282 73.7904 124.398C73.8116 124.782 73.923 125.156 74.1156 125.489C74.3081 125.823 74.5765 126.106 74.8989 126.316C74.9967 126.375 75.1029 126.418 75.2138 126.445L75.3051 126.606L75.6736 126.395C75.7849 126.314 75.8728 126.204 75.9281 126.078C75.9834 125.952 76.0043 125.813 75.9885 125.677C75.9679 125.293 75.8571 124.919 75.6651 124.586C75.473 124.252 75.2052 123.969 74.8832 123.759C74.771 123.678 74.6392 123.628 74.5014 123.614C74.3635 123.601 74.2246 123.625 74.099 123.683L73.7463 123.894Z" fill="#FFFF00"/>
<path d="M75.6357 125.891C75.6151 125.507 75.5043 125.133 75.3123 124.8C75.1202 124.466 74.8523 124.183 74.5303 123.973C73.9194 123.62 73.4219 123.907 73.4219 124.603C73.4435 124.987 73.5551 125.361 73.7477 125.694C73.9402 126.027 74.2083 126.31 74.5303 126.521C75.1413 126.88 75.6357 126.596 75.6357 125.891Z" fill="#FFFF00"/>
<path opacity="0.15" d="M75.6357 125.891C75.6151 125.507 75.5043 125.133 75.3123 124.8C75.1202 124.466 74.8523 124.183 74.5303 123.973C73.9194 123.62 73.4219 123.907 73.4219 124.603C73.4435 124.987 73.5551 125.361 73.7477 125.694C73.9402 126.027 74.2083 126.31 74.5303 126.521C75.1413 126.88 75.6357 126.596 75.6357 125.891Z" fill="black"/>
<path opacity="0.15" d="M74.099 126.177C74.181 126.269 74.2729 126.352 74.373 126.423L74.6312 125.686L74.3163 125.456L74.099 126.177Z" fill="black"/>
<path opacity="0.2" d="M82.1135 120.871C82.1509 120.942 82.1601 121.024 82.139 121.101C82.1179 121.179 82.0683 121.245 82.0001 121.287L78.2212 123.463C78.1505 123.501 78.0677 123.512 77.9898 123.491C77.9119 123.471 77.8448 123.421 77.8024 123.353C77.7649 123.282 77.7558 123.199 77.7768 123.122C77.7979 123.045 77.8476 122.979 77.9157 122.937L81.6946 120.761C81.7653 120.722 81.8481 120.712 81.926 120.733C82.0039 120.753 82.071 120.803 82.1135 120.871Z" fill="black"/>
<path opacity="0.2" d="M81.4331 120.062C81.4623 120.077 81.4868 120.099 81.5039 120.127C81.521 120.155 81.53 120.187 81.53 120.219C81.53 120.252 81.521 120.284 81.5039 120.312C81.4868 120.34 81.4623 120.362 81.4331 120.377L77.5912 122.581C77.52 122.616 77.4405 122.629 77.362 122.62C77.2834 122.611 77.2089 122.58 77.1472 122.531C77.1181 122.516 77.0936 122.494 77.0765 122.466C77.0594 122.438 77.0503 122.406 77.0503 122.373C77.0503 122.341 77.0594 122.309 77.0765 122.281C77.0936 122.253 77.1181 122.231 77.1472 122.216L80.9859 120.012C81.0576 119.977 81.1377 119.963 81.2169 119.972C81.2961 119.981 81.3711 120.012 81.4331 120.062Z" fill="black"/>
<path opacity="0.2" d="M82.4755 121.866C82.4745 121.834 82.4651 121.803 82.4482 121.776C82.4312 121.75 82.4075 121.728 82.3793 121.713C82.3511 121.698 82.3195 121.691 82.2877 121.693C82.2559 121.694 82.2251 121.704 82.1984 121.721L78.3565 123.926C78.2913 123.97 78.2399 124.032 78.2081 124.105C78.1764 124.177 78.1656 124.257 78.177 124.335C78.178 124.367 78.1875 124.398 78.2044 124.425C78.2213 124.452 78.2451 124.474 78.2733 124.488C78.3015 124.503 78.3331 124.51 78.3649 124.509C78.3966 124.507 78.4275 124.497 78.4542 124.48L82.296 122.276C82.361 122.231 82.4122 122.169 82.4439 122.096C82.4756 122.024 82.4866 121.944 82.4755 121.866Z" fill="black"/>
<path d="M64.8218 130.359V131.096L66.6671 130.498C66.8493 130.154 67.1001 129.85 67.404 129.607L74.4139 125.56L74.628 124.946L74.4139 124.823L67.404 128.87C67.2884 128.928 67.1595 128.955 67.0301 128.948C66.9007 128.941 66.7755 128.9 66.6671 128.829L64.8218 130.359Z" fill="#455A64"/>
<path d="M65.0391 130.485V131.222L66.8844 130.624C67.0657 130.279 67.3167 129.976 67.6213 129.733L74.6311 125.686V124.946L67.6213 128.993C67.5061 129.052 67.3772 129.08 67.2478 129.073C67.1183 129.066 66.993 129.026 66.8844 128.955L65.0391 130.485Z" fill="#37474F"/>
<path d="M65.0391 131.222L64.825 131.096V130.359L65.0391 130.485V131.222Z" fill="#263238"/>
<path d="M64.825 130.359L65.0391 130.485L66.8844 128.955L66.6703 128.829L64.825 130.359Z" fill="#455A64"/>
<path d="M91.0944 35.5373H74.8641C74.8015 35.5373 74.7414 35.5124 74.6971 35.4681C74.6528 35.4238 74.6279 35.3638 74.6279 35.3011C74.6279 35.2385 74.6528 35.1784 74.6971 35.1341C74.7414 35.0898 74.8015 35.0649 74.8641 35.0649H91.0944C91.1571 35.0649 91.2172 35.0898 91.2615 35.1341C91.3057 35.1784 91.3306 35.2385 91.3306 35.3011C91.3306 35.3638 91.3057 35.4238 91.2615 35.4681C91.2172 35.5124 91.1571 35.5373 91.0944 35.5373Z" fill="#37474F"/>
<path d="M53.8 46.0333C52.2412 43.0574 49.7251 36.627 49.7251 36.627L49.7786 27.9954C49.7156 27.9954 50.9438 28.367 51.3185 28.4551C53.7496 29.3526 54.4204 29.7809 55.4627 31.9191C56.2909 33.6228 59.081 41.3915 60.073 44.021L66.009 39.7981C67.5048 38.5385 67.8543 36.7435 68.7676 35.6256C69.6808 34.5077 70.7168 34.199 71.7497 33.2512C72.7826 32.3033 73.1731 31.5979 73.5699 32.3568C73.9667 33.1158 72.8393 34.5108 72.6441 34.8478C72.5087 35.0871 72.1654 35.2634 72.0867 35.5311C71.9576 35.9909 72.6409 35.9184 72.9338 35.846C74.3824 35.5311 75.6987 34.3093 76.593 33.1913C76.9426 32.7536 78.2179 31.0531 78.5423 32.4261C78.8068 33.544 77.8873 34.2589 77.8212 35.2886C77.7891 35.8591 77.639 36.4167 77.3803 36.9261C77.163 37.3922 77.2638 37.9338 77.1095 38.422C76.634 39.9398 75.4279 40.4594 74.0265 40.9412C72.6252 41.423 71.1105 41.7537 69.9485 42.648C68.5377 43.7376 65.1272 47.4094 63.052 49.6169C60.4162 52.4227 58.6779 53.0809 57.1349 51.4276C55.5918 49.7744 54.3889 47.1355 53.8 46.0333Z" fill="#FFA8A7"/>
<path d="M78.5517 32.4418C78.2368 31.0688 76.952 32.7567 76.6025 33.207C75.7081 34.325 74.3981 35.5468 72.9432 35.8617C72.6504 35.9247 71.967 35.9971 72.0961 35.5468C72.1749 35.2791 72.5181 35.1028 72.6535 34.8635C72.8488 34.5265 73.9761 33.1283 73.5793 32.3725C73.1826 31.6168 72.7952 32.3159 71.7592 33.2669C70.7231 34.2179 69.6902 34.5265 68.777 35.6413C67.8638 36.7561 67.5174 38.5573 66.0184 39.8138L65.6122 40.1035C65.8578 41.7631 66.8718 43.388 68.3424 44.1343C68.9911 43.5045 69.558 42.9786 69.9579 42.6669C71.1199 41.7725 72.6724 41.4072 74.036 40.9601C75.3995 40.5129 76.6434 39.965 77.1189 38.4408C77.2732 37.9527 77.1724 37.4111 77.3897 36.945C77.6484 36.4356 77.7985 35.878 77.8306 35.3075C77.8967 34.2746 78.8163 33.5597 78.5517 32.4418Z" fill="#455A64"/>
<path d="M66.3238 39.5241C66.2955 40.072 66.6009 41.5332 67.2969 42.311C67.7703 42.8122 68.3416 43.2109 68.9754 43.4825L69.2273 43.2872C69.2273 43.2872 69.4666 43.3124 68.8242 43.958C68.1818 44.6035 68.0306 44.8429 67.6716 44.7893C67.3126 44.7358 66.2986 44.1595 65.6121 43.092C65.1127 42.3406 64.8165 41.4726 64.7524 40.5727C64.7713 40.2578 65.2122 40.0311 65.6121 39.7413C66.0121 39.4516 66.4277 38.9698 66.6513 39.1619L66.3238 39.5241Z" fill="#FFFF00"/>
<path opacity="0.2" d="M66.3238 39.5241C66.2955 40.072 66.6009 41.5332 67.2969 42.311C67.7703 42.8122 68.3416 43.2109 68.9754 43.4825L69.2273 43.2872C69.2273 43.2872 69.4666 43.3124 68.8242 43.958C68.1818 44.6035 68.0306 44.8429 67.6716 44.7893C67.3126 44.7358 66.2986 44.1595 65.6121 43.092C65.1127 42.3406 64.8165 41.4726 64.7524 40.5727C64.7713 40.2578 65.2122 40.0311 65.6121 39.7413C66.0121 39.4516 66.4277 38.9698 66.6513 39.1619L66.3238 39.5241Z" fill="black"/>
<path d="M50.544 28.137C52.1342 28.5054 53.3781 29.1069 54.1339 29.7493C55.2991 30.757 55.8313 32.3284 56.6248 34.4729C57.4184 36.6174 59.459 41.8417 59.459 41.8417C57.097 42.5935 55.0847 44.1709 53.7907 46.2851L48.3868 35.0397L50.544 28.137Z" fill="#E0E0E0"/>
<path d="M60.0983 44.0273C59.0501 44.5554 58.2007 45.4081 57.6766 46.4583C57.6766 46.4583 57.6766 44.7232 59.881 43.4258L60.0983 44.0273Z" fill="#F28F8F"/>
<path d="M32.2664 29.0439C32.2664 29.0439 30.4179 30.6688 29.9456 32.426C29.7157 33.2888 29.5015 34.0005 30.2321 38.7997C30.9281 43.3753 31.4225 43.3753 31.7783 46.8645L31.2682 55.5969C34.0047 58.8026 46.7837 60.4338 53.1763 56.1165C53.1763 56.1165 53.4534 42.8589 53.0031 37.3984C52.6882 33.6856 51.1294 29.8784 50.5437 28.1369C48.8054 27.822 47.1332 27.6331 47.1332 27.6331L40.7406 27.2615L32.2664 29.0439Z" fill="#FAFAFA"/>
<path d="M50.1443 15.9563C50.982 14.0291 50.1601 11.472 49.1555 10.2722C47.7038 8.53709 45.4459 7.78761 42.0386 7.9986C39.4501 8.1592 36.9025 9.23618 36.4175 11.894C34.3391 12.5238 34.5753 15.9311 35.0917 17.4395C36.1435 20.5004 38.2093 23.1614 38.2408 24.7265L50.1443 15.9563Z" fill="#37474F"/>
<path d="M50.1407 23.1519C49.7313 24.6288 48.8811 25.7121 47.5112 25.9263C46.7938 25.9939 46.0716 25.9939 45.3541 25.9263L45.4077 27.8157C48.2418 31.4025 41.6099 32.1299 38.3348 28.1999L38.1396 21.8482C38.1396 21.8482 37.3051 22.7929 35.9352 21.8986C35.378 21.4875 34.9798 20.8968 34.8077 20.2261C34.6355 19.5554 34.7001 18.8459 34.9905 18.2173C35.6739 16.7782 37.0406 17.3734 37.4625 17.8111C37.8845 18.2488 38.3726 19.0707 38.7222 18.9574C38.9241 18.8946 39.1072 18.7825 39.2551 18.6314C39.403 18.4802 39.5109 18.2946 39.5693 18.0914C39.8872 17.1954 40.0377 16.2486 40.0133 15.2981C40.4179 15.0914 40.7809 14.8117 41.084 14.4731C41.6371 13.8913 41.9711 13.1355 42.0287 12.3349C44.9794 11.4122 48.3741 11.8467 49.5865 12.7978C50.2919 14.0417 50.3202 16.9325 50.4367 18.5984C50.5658 20.4091 50.484 21.9175 50.1407 23.1519Z" fill="#FFA8A7"/>
<path d="M45.3541 25.9357C43.8426 25.8507 40.8037 25.1453 40.0007 24.3045C39.1977 23.4637 38.8481 21.7349 38.8481 21.7349C38.8481 21.7349 38.9678 23.914 39.5945 24.8839C40.2211 25.8539 41.7988 26.2664 42.7436 26.5057C43.6121 26.6862 44.4899 26.8187 45.373 26.9025L45.3541 25.9357Z" fill="#F28F8F"/>
<path d="M44.3968 17.6348C44.3969 17.7981 44.3336 17.955 44.2202 18.0725C44.1068 18.19 43.9523 18.2589 43.7891 18.2646C43.6637 18.269 43.5398 18.2358 43.4334 18.1694C43.3269 18.1029 43.2428 18.0061 43.1917 17.8915C43.1406 17.7769 43.125 17.6496 43.1467 17.526C43.1685 17.4024 43.2267 17.2881 43.3138 17.1978C43.401 17.1075 43.5131 17.0453 43.6358 17.0192C43.7586 16.993 43.8863 17.0042 44.0027 17.0511C44.119 17.0981 44.2187 17.1787 44.289 17.2827C44.3592 17.3867 44.3968 17.5093 44.3968 17.6348Z" fill="#263238"/>
<path d="M43.5435 15.6824L42.3059 16.5169C42.1971 16.3465 42.1583 16.1406 42.1976 15.9423C42.2369 15.744 42.3513 15.5685 42.5169 15.4525C42.5987 15.3979 42.6908 15.3606 42.7874 15.3426C42.8841 15.3246 42.9834 15.3264 43.0794 15.3479C43.1753 15.3694 43.2659 15.4101 43.3457 15.4676C43.4255 15.5251 43.4928 15.5981 43.5435 15.6824Z" fill="#263238"/>
<path d="M49.5487 16.0729L48.1914 15.4242C48.2292 15.3337 48.285 15.2519 48.3554 15.1837C48.4258 15.1155 48.5095 15.0624 48.6011 15.0276C48.6928 14.9928 48.7906 14.9771 48.8885 14.9814C48.9865 14.9857 49.0825 15.0099 49.1708 15.0526C49.3519 15.1425 49.4919 15.2982 49.5621 15.4878C49.6323 15.6774 49.6275 15.8867 49.5487 16.0729Z" fill="#263238"/>
<path d="M49.0764 17.4174C49.0727 17.5374 49.0337 17.6536 48.9644 17.7515C48.895 17.8495 48.7984 17.9248 48.6865 17.9682C48.5746 18.0115 48.4524 18.021 48.3351 17.9953C48.2179 17.9696 48.1108 17.91 48.0273 17.8239C47.9437 17.7377 47.8874 17.6289 47.8653 17.5109C47.8432 17.393 47.8564 17.2711 47.9031 17.1606C47.9498 17.05 48.0281 16.9557 48.1281 16.8894C48.2281 16.8231 48.3455 16.7877 48.4655 16.7876C48.6292 16.7925 48.7846 16.861 48.8987 16.9786C49.0127 17.0962 49.0765 17.2536 49.0764 17.4174Z" fill="#263238"/>
<path d="M45.8014 16.3215L46.2423 20.7113L48.6009 19.9997L45.8014 16.3215Z" fill="#F28F8F"/>
<path d="M44.3937 21.7349L46.913 22.2954C46.8854 22.4647 46.8234 22.6267 46.731 22.7712C46.6386 22.9158 46.5176 23.0399 46.3755 23.1361C46.2333 23.2322 46.0731 23.2983 45.9045 23.3302C45.7359 23.3622 45.5626 23.3594 45.3951 23.322C45.0563 23.2366 44.7634 23.0242 44.5769 22.7287C44.3905 22.4333 44.3249 22.0774 44.3937 21.7349Z" fill="#B16668"/>
<path d="M45.4045 23.322C45.4566 23.3312 45.5091 23.3375 45.5619 23.3408C45.5553 23.034 45.4286 22.742 45.2089 22.5276C44.9893 22.3133 44.6942 22.1937 44.3873 22.1946C44.4227 22.4634 44.5389 22.7152 44.7206 22.9165C44.9022 23.1178 45.1407 23.2592 45.4045 23.322Z" fill="#F28F8F"/>
<path d="M34.5905 15.6825C34.6686 16.452 34.8574 17.2061 35.1511 17.9215C35.318 17.7105 35.5101 17.5027 35.7053 17.2917C36.845 16.1741 38.1734 15.2669 39.6291 14.6119C42.9954 13.0373 47.1176 12.5083 50.4178 13.4247C50.2968 12.7706 50.0903 12.1354 49.8037 11.5352C49.0133 9.81565 47.6384 8.43237 45.9236 7.63159C44.2088 6.83081 42.2656 6.6645 40.4397 7.16226C38.6138 7.66003 37.0238 8.78956 35.9527 10.3498C34.8816 11.91 34.3989 13.7997 34.5905 15.6825Z" fill="#FFFF00"/>
<path d="M38.0545 7.72788C38.4544 7.53264 40.4666 6.93116 40.6304 6.88078C41.6727 6.56587 43.3512 6.58476 45.0737 8.00185C46.4189 9.12452 47.3645 10.6524 47.7694 12.357L45.628 13.0278L44.9446 13.0939C44.6927 11.5194 42.6175 8.12781 39.7014 8.00185C39.5651 7.99243 39.4283 7.99243 39.292 8.00185C38.9058 8.02118 38.5247 8.09868 38.1615 8.23173C37.7652 8.50891 37.3875 8.81188 37.031 9.13866C37.0668 8.83566 37.1797 8.54689 37.3589 8.29991C37.5381 8.05294 37.7775 7.85599 38.0545 7.72788Z" fill="#FFFF00"/>
<path opacity="0.45" d="M38.0545 7.72788C38.4544 7.53264 40.4666 6.93116 40.6304 6.88078C41.6727 6.56587 43.3512 6.58476 45.0737 8.00185C46.4189 9.12452 47.3645 10.6524 47.7694 12.357L45.628 13.0278L44.9446 13.0939C44.6927 11.5194 42.6175 8.12781 39.7014 8.00185C39.5651 7.99243 39.4283 7.99243 39.292 8.00185C38.9058 8.02118 38.5247 8.09868 38.1615 8.23173C37.7652 8.50891 37.3875 8.81188 37.031 9.13866C37.0668 8.83566 37.1797 8.54689 37.3589 8.29991C37.5381 8.05294 37.7775 7.85599 38.0545 7.72788Z" fill="white"/>
<path d="M44.951 13.0969C44.636 11.2641 41.8586 6.92784 38.1678 8.23471C37.7705 8.51183 37.3918 8.8148 37.0342 9.14164C37.0701 8.83867 37.1826 8.54986 37.3611 8.30246C37.5396 8.05506 37.7783 7.85725 38.0545 7.7277C39.015 7.26479 40.9422 7.03806 42.9356 8.67243C44.2794 9.79429 45.224 11.3211 45.628 13.0245L44.951 13.0969Z" fill="#FFFF00"/>
<path opacity="0.3" d="M44.951 13.0969C44.636 11.2641 41.8586 6.92784 38.1678 8.23471C37.7705 8.51183 37.3918 8.8148 37.0342 9.14164C37.0701 8.83867 37.1826 8.54986 37.3611 8.30246C37.5396 8.05506 37.7783 7.85725 38.0545 7.7277C39.015 7.26479 40.9422 7.03806 42.9356 8.67243C44.2794 9.79429 45.224 11.3211 45.628 13.0245L44.951 13.0969Z" fill="black"/>
<path d="M39.5692 13.9818C39.7235 13.8464 40.4699 12.2404 43.1277 10.8327C44.7683 9.95728 48.1316 9.91319 49.64 9.93838C52.282 9.98247 52.9119 10.543 52.9465 10.9335C52.9465 11.0248 52.9906 11.4531 53.0032 11.5476C53.0153 11.6356 52.9952 11.7251 52.9465 11.7995C52.5529 12.3978 50.4272 13.437 50.4272 13.437C47.127 12.5206 43.0049 13.0497 39.6385 14.6242L39.5692 13.9818Z" fill="#FFFF00"/>
<path opacity="0.15" d="M39.5692 13.9818C39.7235 13.8464 40.4699 12.2404 43.1277 10.8327C44.7683 9.95728 48.1316 9.91319 49.64 9.93838C52.282 9.98247 52.9119 10.543 52.9465 10.9335C52.9465 11.0248 52.9906 11.4531 53.0032 11.5476C53.0153 11.6356 52.9952 11.7251 52.9465 11.7995C52.5529 12.3978 50.4272 13.437 50.4272 13.437C47.127 12.5206 43.0049 13.0497 39.6385 14.6242L39.5692 13.9818Z" fill="black"/>
<path d="M39.629 14.6116C42.9954 13.037 47.1175 12.508 50.4178 13.4244C50.4178 13.4244 52.5528 12.3852 52.937 11.7869C53.1512 11.4562 52.9591 10.6091 49.6935 10.5556C48.1819 10.5304 44.8187 10.5745 43.178 11.4499C40.5297 12.8827 39.7833 14.4762 39.629 14.6116Z" fill="#FFFF00"/>
<path opacity="0.3" d="M39.629 14.6116C42.9954 13.037 47.1175 12.508 50.4178 13.4244C50.4178 13.4244 52.5528 12.3852 52.937 11.7869C53.1512 11.4562 52.9591 10.6091 49.6935 10.5556C48.1819 10.5304 44.8187 10.5745 43.178 11.4499C40.5297 12.8827 39.7833 14.4762 39.629 14.6116Z" fill="black"/>
<path d="M49.7975 111.115C49.8983 109.443 50.7958 92.5986 50.7958 92.5986L42.6082 98.3709C44.0347 108.001 44.3496 110.904 44.4094 112.51C44.3756 112.645 44.3629 112.784 44.3716 112.923C44.4157 114.831 46.7019 115.826 48.4938 117.073C50.0212 118.174 51.6394 119.143 53.3308 119.97C54.625 120.566 57.2325 120.584 57.5411 119.794C55.3619 118.264 52.8395 116.595 51.0949 114.837C50.273 113.997 49.6747 113.118 49.7975 111.115Z" fill="#FFA8A7"/>
<path d="M61.257 121.797C61.3672 121.797 61.5562 122.946 60.9641 123.447C60.2839 124.023 58.2717 124.984 55.5855 124.691C52.8994 124.398 51.4319 123.633 50.3423 122.801C49.2527 121.97 47.7254 120.78 46.5067 120.544C45.3762 120.323 44.1449 119.854 43.7765 119.53C43.408 119.205 43.4332 117.728 43.4332 117.728L61.257 121.797Z" fill="#263238"/>
<path d="M52.8805 115.471C52.7042 115.307 52.5341 115.156 52.3672 114.973C51.8047 114.36 51.3691 113.642 51.0856 112.86C50.9116 112.486 50.7765 112.096 50.6825 111.695C50.5975 111.232 50.5439 110.75 50.4652 110.3C50.4369 110.127 50.4652 109.746 50.2511 109.67C50.0015 109.642 49.7493 109.689 49.5268 109.805C48.982 110.038 48.412 110.218 47.8515 110.416C47.5366 110.527 46.891 110.697 46.7965 111.046C46.702 111.396 46.8595 111.83 46.7965 112.208C46.7682 112.356 46.7052 112.523 46.532 112.504C46.2171 112.504 46.1384 112.051 46.0565 111.83C45.8801 111.367 45.7416 111.15 45.2409 111.015C44.9795 110.942 44.4694 110.908 44.2962 110.675L44.23 110.045C44.0869 110.074 43.9524 110.135 43.8371 110.225C43.7218 110.315 43.6289 110.43 43.5656 110.561C43.3483 111.012 43.4931 111.638 43.5656 112.117C43.6543 112.592 43.6944 113.076 43.6852 113.559C43.6473 113.973 43.581 114.383 43.4868 114.787C43.3532 115.493 43.2867 116.21 43.2884 116.929C43.282 117.262 43.3073 117.595 43.364 117.924C43.4136 118.196 43.5644 118.439 43.786 118.604C44.1237 118.902 44.5133 119.134 44.9354 119.29C45.5117 119.52 46.1069 119.697 46.6926 119.901C47.8987 120.317 49.3032 121.192 50.5376 122.128C51.7721 123.063 54.4771 124.046 56.2249 124.046C58.8953 124.046 60.7595 123.164 61.2634 122.244C61.3106 121.614 61.3484 120.985 61.0618 120.537C60.1171 119.095 58.0482 118.629 56.3823 117.836C55.6574 117.47 54.9568 117.057 54.285 116.601C53.7861 116.264 53.3163 115.886 52.8805 115.471Z" fill="#37474F"/>
<path d="M57.4152 118.27C54.1433 119.196 53.0065 121.403 52.5247 123.189C53.6981 123.69 54.9507 123.98 56.2248 124.045C58.8952 124.045 60.7595 123.164 61.2633 122.244C61.3106 121.614 61.3484 120.985 61.0618 120.537C60.3218 119.372 58.8386 118.843 57.4152 118.27Z" fill="#455A64"/>
<path d="M46.6831 119.889L46.8216 119.942C46.6925 117.423 45.6533 115.754 43.3765 115.417C43.3108 115.914 43.2782 116.415 43.2789 116.916C43.2725 117.249 43.2978 117.582 43.3545 117.911C43.4041 118.183 43.5549 118.426 43.7765 118.591C44.1141 118.889 44.5038 119.122 44.9259 119.278C45.5022 119.508 46.0973 119.684 46.6831 119.889Z" fill="#455A64"/>
<path d="M36.307 97.5584L27.773 95.7036C27.5494 100.985 27.6848 108.13 27.5053 113.087C27.4706 114.031 26.9888 120.329 27.2565 122.263C27.6596 125.176 31.5613 124.987 31.8825 123.274C32.2037 121.561 32.4871 114.236 32.5533 113.477C32.7328 110.303 34.5466 104.974 35.8157 99.3062C35.8787 99.0448 36.2471 97.8292 36.307 97.5584Z" fill="#FFA8A7"/>
<path d="M33.2618 124.559C33.2303 126.256 32.9816 127.393 32.3454 128.407C31.7093 129.421 30.4402 129.786 29.1271 129.544C27.8139 129.301 26.1103 128.599 25.6631 127.138C25.2159 125.677 25.2537 124.688 25.4773 123.107L33.2618 124.559Z" fill="#263238"/>
<path d="M27.5746 110.167C27.0424 110.224 26.9448 114.831 26.7306 117.117C26.5102 119.567 25.7324 120.607 25.5277 122.619C25.2946 124.918 25.4773 125.932 26.4472 127.28C27.4171 128.627 30.6953 129.865 32.188 127.828C33.4035 126.165 33.3752 124.364 33.1547 122.096C32.9249 119.744 32.9154 115.971 32.9438 114.176C32.9689 112.463 33.4885 110.652 33.013 110.479C32.9123 110.939 32.8493 111.333 32.7957 111.578C32.6792 112.12 32.5501 112.775 32.3864 112.652C32.3864 112.652 32.4336 112.17 32.4399 111.95C32.4462 111.729 32.4934 111.585 32.3454 111.443C32.1974 111.301 31.555 111.213 31.3346 111.185C30.8024 111.109 30.2702 111.049 29.7317 111.024C29.464 111.024 29.1932 111.024 28.9255 111.024C28.697 111.03 28.4703 111.067 28.2516 111.134C28.1903 111.153 28.1336 111.185 28.0853 111.227C28.037 111.269 27.9982 111.322 27.9714 111.38C27.954 111.466 27.954 111.555 27.9714 111.641C27.9787 111.799 27.9639 111.957 27.9273 112.11C27.9084 112.18 27.8611 112.265 27.7824 112.252C27.7037 112.24 27.6565 112.195 27.6344 112.041C27.5971 111.728 27.5803 111.412 27.584 111.096C27.584 110.948 27.584 110.744 27.584 110.596C27.584 110.448 27.5714 110.312 27.5746 110.167Z" fill="#37474F"/>
<path d="M25.4394 123.948C25.4111 125.371 25.5496 126.338 26.3085 127.393C27.2785 128.741 30.8149 129.972 32.2918 127.935C33.035 126.921 33.1924 125.749 33.2365 124.559C32.2414 123.069 26.8785 122.594 25.4394 123.948Z" fill="#455A64"/>
<path d="M53.5229 41.1555C53.5229 41.1555 47.0452 42.6135 37.3335 41.9459C37.3335 48.3638 38.0105 55.7263 34.937 55.6854L31.2683 55.5972C31.0637 65.2082 29.4387 85.2457 29.4387 85.2457C29.2939 86.4266 27.5839 91.4463 27.5209 95.7164C27.4233 102.415 27.2816 107.491 27.2816 107.491C27.2816 107.491 31.0227 108.971 33.7719 107.944C33.7719 107.944 37.3461 93.7073 38.3506 89.264C39.5441 83.9704 42.0098 74.1893 42.0098 74.1893L42.309 88.1177C41.9592 90.9244 41.9212 93.7611 42.1956 96.5761C42.5105 99.4103 43.66 107.255 43.66 107.255C43.66 107.255 47.1019 107.947 50.0872 107.063C50.0872 107.063 51.8853 90.1929 52.0334 87.5949C52.194 84.7608 53.0883 58.7274 53.1702 56.2994C53.9889 44.059 53.5229 41.1555 53.5229 41.1555Z" fill="#455A64"/>
<path d="M37.3334 41.9459C36.8799 36.1327 36.8925 31.3555 34.7134 28.5308L37.4972 27.9451C37.4972 27.9451 39.9062 33.2796 39.9062 42.1443L37.3334 41.9459Z" fill="#455A64"/>
<path d="M50.9658 41.7947C50.9658 35.4619 49.5708 30.0329 47.3601 27.6616L50.5438 28.1371C50.5438 28.1371 53.5228 32.93 53.5228 41.7947H50.9658Z" fill="#455A64"/>
<path d="M40.8322 43.2746C40.8322 43.2746 45.9494 43.5895 50.2479 42.7739L50.4431 47.1291L46.1541 49.8184L40.8322 48.0801V43.2746Z" fill="#37474F"/>
<path d="M32.5909 55.9153C35.0566 56.9387 41.043 57.5528 45.8485 57.4898C50.654 57.4268 53.1701 56.2963 53.1701 56.2963L53.0914 59.225C53.0914 59.225 44.5637 62.8023 32.2256 58.5952L32.5909 55.9153Z" fill="#FFFF00"/>
<path opacity="0.3" d="M32.5909 55.9153C35.0566 56.9387 41.043 57.5528 45.8485 57.4898C50.654 57.4268 53.1701 56.2963 53.1701 56.2963L53.0914 59.225C53.0914 59.225 44.5637 62.8023 32.2256 58.5952L32.5909 55.9153Z" fill="black"/>
<path d="M42.0099 74.1891L44.2961 64.9497C44.2961 64.9497 47.7223 64.9938 49.9645 62.8997C49.9645 62.8997 49.6495 65.2583 45.5778 66.5179L43.4616 73.8584L42.2618 87.8561L42.0099 74.1891Z" fill="#37474F"/>
<path d="M38.3696 27.5515L38.3885 28.1813C38.8814 29.5788 39.2389 31.0203 39.4561 32.4861C40.1174 36.476 40.2307 41.7066 40.2307 47.6017V63.8446C40.2307 63.8446 32.8462 64.317 30.5001 58.6801L31.4448 46.8648C31.4448 46.8648 30.0907 40.7556 29.7223 37.2633C29.3538 33.7709 28.6957 31.3241 31.9613 28.6537L38.3696 27.5515Z" fill="#FFFF00"/>
<path d="M30.7645 43.5613C31.133 45.4318 31.451 46.8647 31.451 46.8647L31.4164 47.3276C33.6995 48.8202 37.0847 49.7776 40.2338 49.6327V46.3325C36.795 46.4899 33.0161 45.3185 30.7645 43.5613Z" fill="#F0F0F0"/>
<path d="M40.2275 56.1892V52.8764C36.9903 53.0244 33.4602 51.9946 31.1771 50.4106L30.9377 53.5377C33.2051 55.2287 36.8738 56.3404 40.2275 56.1892Z" fill="#F0F0F0"/>
<path d="M45.5242 27.4759C47.5902 28.72 49.0843 30.7264 49.6841 33.0623C50.6792 36.9735 50.8272 40.0596 50.9658 45.0824C51.1043 50.1051 50.8996 64.1185 50.8996 64.1185C50.8996 64.1185 53.104 63.1518 53.589 62.1031C53.589 62.1031 54.2188 44.3077 53.5228 38.0001C52.8269 31.6925 50.5438 28.1372 50.5438 28.1372C50.5438 28.1372 48.9126 27.4696 45.5242 27.4759Z" fill="#FFFF00"/>
<path d="M51.0194 48.9997C51.9724 48.9722 52.921 48.8583 53.8535 48.6596C53.8535 47.5575 53.8535 46.4553 53.8535 45.3625C52.9032 45.5623 51.9366 45.674 50.9658 45.6964C51.0005 46.6474 51.0131 47.7779 51.0194 48.9997Z" fill="#F0F0F0"/>
<path d="M53.8001 55.2318C53.819 54.2178 53.841 53.0967 53.8536 51.9189C52.9265 52.1083 51.9843 52.2137 51.0383 52.2339C51.0383 53.3518 51.0383 54.4697 51.0383 55.5372C51.966 55.5148 52.89 55.4126 53.8001 55.2318Z" fill="#F0F0F0"/>
<path d="M33.611 28.7195C31.7215 28.7195 29.5172 28.6376 28.2796 31.3647C27.8765 32.2527 26.6326 37.4739 25.2502 42.2888C22.775 39.1398 20.662 35.912 20.388 35.3388C19.6543 33.8052 19.6448 32.7692 18.8953 31.1852C18.4637 30.318 18.1299 29.4054 17.9002 28.4644C17.7207 27.8346 17.1602 28.2975 16.9555 28.5809C16.6277 29.0592 16.447 29.623 16.4359 30.2027C16.4359 30.6121 16.4359 31.0309 16.4044 31.434C16.3729 31.8371 16.2375 31.8213 15.91 31.6387C15.2361 31.2608 14.6504 30.6089 14.1024 30.0862C13.5545 29.5634 12.805 29.0722 12.213 28.5116C11.621 27.9511 11.3218 27.3811 10.84 26.8143C10.4778 26.3892 9.86062 25.8381 9.38511 26.4458C9.10169 26.8143 9.36307 27.2426 9.48903 27.611C9.63389 28.0298 9.48903 28.3384 9.4103 28.751C9.27109 29.1992 9.28438 29.6809 9.44809 30.1208C9.67483 30.5648 9.87637 30.8388 9.81653 31.3615C9.7693 31.793 9.61499 32.2055 9.67797 32.6495C9.72836 33.0148 9.99288 33.2793 10.1755 33.5942C10.498 34.1534 10.8977 34.6644 11.3627 35.1121C11.9108 35.6671 12.5038 36.1758 13.1357 36.6331C14.6504 37.8109 15.2141 38.1793 15.7211 38.5729C16.48 39.1587 17.2641 40.6608 17.705 41.489C18.5647 43.1139 20.4195 47.6423 22.8946 50.8827C24.3275 52.7501 26.2768 53.3452 27.9962 51.2354C28.8968 50.1269 29.662 48.3697 30.1596 47.0408C32.0711 41.9487 33.4535 37.7605 33.4535 37.7605C33.4535 37.7605 34.9965 33.0022 33.611 28.7195Z" fill="#FFA8A7"/>
<path d="M21.3044 36.8157C20.8131 36.0726 20.4856 35.5341 20.388 35.3325C19.6543 33.7989 19.6448 32.7629 18.8953 31.1789C18.4641 30.3137 18.1304 29.4033 17.9002 28.4644C17.7207 27.8346 17.1602 28.2975 16.9555 28.5809C16.6277 29.0592 16.447 29.623 16.4359 30.2027C16.4359 30.6121 16.4359 31.0309 16.4044 31.434C16.3729 31.8371 16.2375 31.8213 15.91 31.6387C15.2361 31.2608 14.6504 30.6089 14.1024 30.0862C13.5545 29.5634 12.805 29.0722 12.213 28.5116C11.621 27.9511 11.3218 27.3811 10.84 26.8143C10.4778 26.3892 9.86062 25.8381 9.38511 26.4458C9.10169 26.8143 9.36307 27.2426 9.48903 27.611C9.63389 28.0298 9.48903 28.3384 9.4103 28.751C9.27109 29.1992 9.28438 29.6809 9.44809 30.1208C9.67483 30.5648 9.87637 30.8388 9.81653 31.3615C9.7693 31.793 9.61499 32.2055 9.67797 32.6495C9.72836 33.0148 9.99288 33.2793 10.1755 33.5942C10.498 34.1534 10.8977 34.6644 11.3627 35.1121C11.9108 35.6671 12.5038 36.1758 13.1357 36.6331C14.6504 37.8109 15.2141 38.1793 15.7211 38.5729C16.4422 39.1303 17.1854 40.5128 17.6357 41.3567C19.141 40.3931 20.5045 38.5414 21.3044 36.8157Z" fill="#455A64"/>
<path d="M20.8258 36.082L20.5896 35.7293C20.5896 35.7293 20.6841 35.3168 21.0683 35.9057C21.4137 36.3961 21.7121 36.918 21.9594 37.4645C22.0067 37.6881 21.6256 39.6153 20.429 40.5726C19.2323 41.5299 18.1806 41.8165 17.8468 41.7756C17.513 41.7346 17.4185 41.4323 17.2169 41.0324C17.0154 40.6324 16.5493 40.1412 16.691 39.7727L16.9619 40.1538C18.0364 39.8781 18.9997 39.2777 19.7205 38.4344C20.7817 37.0834 20.8258 36.082 20.8258 36.082Z" fill="#FFFF00"/>
<path opacity="0.2" d="M20.8258 36.082L20.5896 35.7293C20.5896 35.7293 20.6841 35.3168 21.0683 35.9057C21.4137 36.3961 21.7121 36.918 21.9594 37.4645C22.0067 37.6881 21.6256 39.6153 20.429 40.5726C19.2323 41.5299 18.1806 41.8165 17.8468 41.7756C17.513 41.7346 17.4185 41.4323 17.2169 41.0324C17.0154 40.6324 16.5493 40.1412 16.691 39.7727L16.9619 40.1538C18.0364 39.8781 18.9997 39.2777 19.7205 38.4344C20.7817 37.0834 20.8258 36.082 20.8258 36.082Z" fill="black"/>
<path d="M25.2501 42.289C26.156 44.0029 26.7035 45.8833 26.8593 47.8156C27.1742 44.9468 26.3019 42.3236 25.4958 41.4387L25.2501 42.289Z" fill="#F28F8F"/>
<path d="M33.9227 28.3132C32.1214 28.5966 31.7373 28.6281 30.5878 29.0249C29.4384 29.4217 28.6134 29.8153 27.5521 33.2762C26.5318 36.6142 25.5808 40.412 25.5808 40.412C25.5808 40.412 26.5885 43.0509 31.5641 43.5611L34.1998 36.2111C34.1998 36.2111 35.0123 31.7772 33.9227 28.3132Z" fill="#EBEBEB"/>
<path d="M16.2218 32.3661C16.2458 32.5638 16.2107 32.7643 16.1208 32.9421C16.031 33.1199 15.8905 33.267 15.717 33.365C15.5436 33.463 15.345 33.5073 15.1463 33.4925C14.9477 33.4776 14.7579 33.4042 14.6009 33.2816C14.444 33.1589 14.3269 32.9925 14.2645 32.8033C14.2021 32.6141 14.1971 32.4107 14.2503 32.2187C14.3034 32.0267 14.4123 31.8548 14.5631 31.7247C14.7139 31.5945 14.8999 31.512 15.0976 31.4875C15.2292 31.4708 15.3628 31.4803 15.4907 31.5155C15.6186 31.5507 15.7383 31.6109 15.8428 31.6925C15.9473 31.7742 16.0346 31.8758 16.0997 31.9914C16.1647 32.107 16.2062 32.2344 16.2218 32.3661Z" fill="#263238"/>
<path d="M73.8657 35.5373H72.751C72.4637 35.5373 72.1881 35.6514 71.985 35.8546C71.7818 36.0577 71.6677 36.3333 71.6677 36.6206V48.4044C71.6677 49.8242 71.1037 51.1859 70.0997 52.1899C69.0957 53.1938 67.7341 53.7578 66.3142 53.7578H20.3283C18.9085 53.7578 17.5468 53.1938 16.5428 52.1899C15.5389 51.1859 14.9749 49.8242 14.9749 48.4044V33.0621C14.9749 32.9995 14.9997 32.9394 15.044 32.8951C15.0883 32.8508 15.1484 32.8259 15.211 32.8259C15.2737 32.8259 15.3337 32.8508 15.378 32.8951C15.4223 32.9394 15.4472 32.9995 15.4472 33.0621V48.2942C15.4472 48.9483 15.5761 49.5959 15.8265 50.2002C16.0769 50.8044 16.4439 51.3534 16.9066 51.8158C17.3692 52.2781 17.9184 52.6448 18.5228 52.8948C19.1272 53.1448 19.775 53.2733 20.4291 53.2729H66.2135C66.8675 53.2733 67.5153 53.1448 68.1197 52.8948C68.7241 52.6448 69.2733 52.2781 69.736 51.8158C70.1986 51.3534 70.5656 50.8044 70.816 50.2002C71.0664 49.5959 71.1953 48.9483 71.1953 48.2942V36.6206C71.1953 36.208 71.3592 35.8123 71.651 35.5206C71.9427 35.2288 72.3384 35.0649 72.751 35.0649H74.6687C74.4144 35.244 74.1458 35.402 73.8657 35.5373Z" fill="#37474F"/>
<path d="M14.027 32.7C13.3185 32.3851 13.2429 31.7773 13.8601 31.3144C14.2092 31.0796 14.6088 30.9306 15.0264 30.8797C15.4439 30.8288 15.8677 30.8774 16.2629 31.0215C16.9714 31.3364 17.047 31.9442 16.4298 32.4071C16.0807 32.642 15.6811 32.7909 15.2635 32.8418C14.8459 32.8927 14.4222 32.8441 14.027 32.7Z" fill="#37474F"/>
<path d="M13.945 32.344C13.2144 32.0291 13.1357 31.3993 13.7718 30.9143C14.131 30.6705 14.5426 30.515 14.9733 30.4602C15.4039 30.4055 15.8414 30.4532 16.2501 30.5994C16.9807 30.9143 17.0594 31.5441 16.4233 32.0291C16.0642 32.2729 15.6525 32.4285 15.2219 32.4832C14.7912 32.5379 14.3538 32.4902 13.945 32.344Z" fill="#263238"/>
<path d="M13.8631 31.9757C13.1073 31.6608 13.0286 30.9932 13.6836 30.5019C14.0542 30.2516 14.4789 30.0926 14.9227 30.0379C15.3666 29.9832 15.8171 30.0343 16.2375 30.187C16.9901 30.5019 17.072 31.1695 16.417 31.6608C16.0463 31.911 15.6217 32.07 15.1778 32.1248C14.734 32.1795 14.2834 32.1284 13.8631 31.9757Z" fill="#37474F"/>
<path d="M13.7781 31.5945C13.0003 31.2796 12.9152 30.5837 13.5923 30.0767C13.975 29.8213 14.4126 29.6597 14.8694 29.605C15.3262 29.5503 15.7895 29.604 16.2218 29.7617C16.9996 30.0767 17.0846 30.7726 16.4076 31.2828C16.0246 31.5376 15.5869 31.6986 15.1301 31.7528C14.6732 31.8069 14.2101 31.7527 13.7781 31.5945Z" fill="#263238"/>
<path d="M13.7025 31.1946C12.909 30.8576 12.8239 30.1648 13.5136 29.6452C13.9045 29.3853 14.3512 29.2213 14.8174 29.1666C15.2836 29.1119 15.7562 29.168 16.1966 29.3303C16.9902 29.6673 17.0752 30.3632 16.3855 30.8797C15.9949 31.1401 15.5481 31.3044 15.0818 31.3591C14.6155 31.4139 14.1429 31.3575 13.7025 31.1946Z" fill="#37474F"/>
<path d="M13.6206 19.3635C12.355 19.5179 11.2025 20.1685 10.4165 21.1724C9.63049 22.1763 9.27536 23.4513 9.42919 24.717C9.8921 28.4959 13.0947 28.7541 13.2805 30.2814C13.3099 30.427 13.3776 30.5622 13.4767 30.6729C13.5758 30.7837 13.7027 30.8659 13.8442 30.9112C14.2277 31.0497 14.6383 31.0962 15.0431 31.0469C15.4478 30.9977 15.8354 30.8541 16.1745 30.6278C16.3012 30.5514 16.4051 30.4425 16.4754 30.3123C16.5458 30.1822 16.5799 30.0356 16.5744 29.8878C16.3886 28.3604 19.437 27.3496 18.9772 23.5613C18.9015 22.9337 18.7029 22.3273 18.3927 21.7766C18.0824 21.2259 17.6667 20.7417 17.1692 20.3519C16.6717 19.962 16.1022 19.674 15.4933 19.5044C14.8844 19.3348 14.248 19.287 13.6206 19.3635Z" fill="#FFFF00"/>
<g opacity="0.6">
<path opacity="0.6" d="M13.6206 19.3635C12.355 19.5179 11.2025 20.1685 10.4165 21.1724C9.63049 22.1763 9.27536 23.4513 9.42919 24.717C9.8921 28.4959 13.0947 28.7541 13.2805 30.2814C13.3099 30.427 13.3776 30.5622 13.4767 30.6729C13.5758 30.7837 13.7027 30.8659 13.8442 30.9112C14.2277 31.0497 14.6383 31.0962 15.0431 31.0469C15.4478 30.9977 15.8354 30.8541 16.1745 30.6278C16.3012 30.5514 16.4051 30.4425 16.4754 30.3123C16.5458 30.1822 16.5799 30.0356 16.5744 29.8878C16.3886 28.3604 19.437 27.3496 18.9772 23.5613C18.9015 22.9337 18.7029 22.3273 18.3927 21.7766C18.0824 21.2259 17.6667 20.7417 17.1692 20.3519C16.6717 19.962 16.1022 19.674 15.4933 19.5044C14.8844 19.3348 14.248 19.287 13.6206 19.3635Z" fill="white"/>
</g>
<path d="M14.1213 30.6529C13.6048 30.4325 13.5481 29.979 13.9985 29.642C14.253 29.4714 14.5442 29.3632 14.8483 29.326C15.1525 29.2888 15.4612 29.3237 15.7493 29.4279C16.2658 29.6483 16.3225 30.1018 15.8722 30.4388C15.6179 30.61 15.3267 30.7187 15.0224 30.756C14.7181 30.7932 14.4093 30.7579 14.1213 30.6529Z" fill="#FFFF00"/>
<path d="M15.5448 29.8437C15.5027 29.8491 15.4601 29.8375 15.4265 29.8115C15.3928 29.7855 15.3708 29.7473 15.3653 29.7051C15.2539 28.7858 15.2539 27.8564 15.3653 26.9371C15.3963 26.6718 15.4447 26.4088 15.5102 26.1498C15.3575 26.1145 15.2087 26.0638 15.0662 25.9987C14.8126 25.8823 14.578 25.7284 14.3702 25.5421C14.2131 25.7721 14.0232 25.9779 13.8065 26.153C13.6856 26.2505 13.5547 26.3349 13.4161 26.4049C13.5427 26.6407 13.6531 26.8848 13.7467 27.1355C14.0754 28.0011 14.2995 28.9029 14.4143 29.8217C14.4179 29.8645 14.4049 29.907 14.3779 29.9405C14.3509 29.9739 14.3121 29.9956 14.2695 30.0012C14.2262 30.0047 14.1832 29.9912 14.1497 29.9636C14.1162 29.9359 14.0947 29.8963 14.09 29.8532C13.9768 28.9626 13.7591 28.0885 13.4413 27.2489C13.3492 26.9996 13.2386 26.7575 13.1106 26.5246C12.9524 26.5775 12.7838 26.5912 12.6192 26.5643C12.4545 26.5374 12.299 26.4708 12.1659 26.3703C12.0662 26.296 11.9962 26.1887 11.9685 26.0675C11.9408 25.9463 11.9572 25.8192 12.0147 25.709C12.0545 25.6326 12.1163 25.5699 12.1921 25.5289C12.2678 25.4879 12.3541 25.4706 12.4398 25.4791C12.7012 25.5011 12.9846 25.731 13.2492 26.1341C13.3754 26.073 13.4939 25.9969 13.6019 25.9074C13.8137 25.7411 13.9967 25.5411 14.1435 25.3153C14.0298 25.1989 13.9406 25.0609 13.8811 24.9095C13.8216 24.7581 13.7931 24.5962 13.7971 24.4336C13.8133 24.3364 13.8605 24.2471 13.9316 24.179C14.0027 24.1108 14.0939 24.0675 14.1917 24.0554C14.2894 24.0434 14.3885 24.0633 14.474 24.1121C14.5595 24.161 14.627 24.2362 14.6662 24.3265C14.7119 24.484 14.7246 24.6491 14.7035 24.8117C14.6823 24.9743 14.6279 25.1307 14.5434 25.2712C14.7395 25.4565 14.9651 25.6076 15.211 25.7184C15.3379 25.778 15.471 25.8234 15.6078 25.8538C15.7684 25.4004 15.9857 25.1075 16.2376 25.0256C16.319 24.9996 16.4061 24.998 16.4884 25.021C16.5706 25.0439 16.6444 25.0904 16.7005 25.1547C16.7809 25.2492 16.825 25.3692 16.825 25.4933C16.825 25.6173 16.7809 25.7373 16.7005 25.8318C16.5967 25.9598 16.4634 26.0608 16.3121 26.126C16.1607 26.1913 15.9958 26.2189 15.8314 26.2065C15.7604 26.4646 15.7098 26.7278 15.6802 26.9938C15.5779 27.8841 15.5779 28.7833 15.6802 29.6737C15.6834 29.695 15.6823 29.7167 15.677 29.7375C15.6717 29.7584 15.6624 29.778 15.6495 29.7953C15.6366 29.8125 15.6205 29.8271 15.602 29.8381C15.5835 29.8491 15.563 29.8564 15.5417 29.8595L15.5448 29.8437ZM12.3926 25.794C12.3674 25.794 12.3359 25.8129 12.3076 25.8664C12.2415 25.9829 12.3485 26.0869 12.3832 26.1183C12.4606 26.1738 12.549 26.212 12.6424 26.2305C12.7358 26.249 12.8321 26.2472 12.9248 26.2254C12.7138 25.9294 12.528 25.8003 12.4178 25.794H12.3926ZM15.9479 25.857C16.0433 25.8579 16.1377 25.8371 16.2239 25.7962C16.3101 25.7552 16.3858 25.6953 16.4455 25.6208C16.4707 25.5862 16.5525 25.457 16.4612 25.3594C16.4476 25.3397 16.428 25.3248 16.4054 25.3169C16.3828 25.309 16.3582 25.3084 16.3353 25.3153C16.2313 25.3531 16.0833 25.5232 15.9479 25.8601V25.857ZM14.2317 24.3706C14.1498 24.3706 14.1278 24.4178 14.1183 24.4714C14.1183 24.6605 14.1852 24.8434 14.3072 24.9878C14.3907 24.8178 14.4119 24.6239 14.3671 24.4399C14.3578 24.4132 14.3383 24.3914 14.313 24.379C14.2876 24.3666 14.2584 24.3647 14.2317 24.3738V24.3706Z" fill="white"/>
<path d="M16.7005 17.8394C16.6613 17.8242 16.6255 17.8012 16.5952 17.7719C16.565 17.7426 16.541 17.7075 16.5245 17.6688C16.5081 17.63 16.4996 17.5884 16.4995 17.5463C16.4994 17.5042 16.5078 17.4625 16.5241 17.4237L17.154 15.887C17.186 15.8104 17.247 15.7495 17.3237 15.7177C17.4003 15.6858 17.4865 15.6856 17.5633 15.7169C17.6022 15.7322 17.6376 15.755 17.6676 15.7841C17.6976 15.8131 17.7214 15.8479 17.7379 15.8863C17.7543 15.9247 17.7629 15.9659 17.7632 16.0077C17.7635 16.0494 17.7555 16.0908 17.7397 16.1294L17.1099 17.6693C17.0946 17.7086 17.0717 17.7444 17.0424 17.7746C17.0131 17.8048 16.978 17.8289 16.9393 17.8453C16.9005 17.8617 16.8589 17.8702 16.8168 17.8703C16.7747 17.8704 16.733 17.862 16.6942 17.8457L16.7005 17.8394Z" fill="#E0E0E0"/>
<path d="M13.0603 17.386C13.0087 17.3654 12.9635 17.3316 12.9292 17.2879C12.8949 17.2442 12.8727 17.1922 12.865 17.1372L12.6352 15.4934C12.6235 15.4099 12.6454 15.3252 12.6962 15.2578C12.747 15.1905 12.8225 15.1461 12.906 15.1344C12.9895 15.1227 13.0742 15.1447 13.1416 15.1955C13.2089 15.2463 13.2533 15.3217 13.265 15.4052L13.4917 17.0491C13.4979 17.0905 13.4958 17.1327 13.4855 17.1733C13.4752 17.2139 13.4569 17.252 13.4317 17.2854C13.4065 17.3189 13.3748 17.3469 13.3386 17.368C13.3024 17.389 13.2624 17.4027 13.2209 17.4081C13.1663 17.4148 13.111 17.4072 13.0603 17.386Z" fill="#E0E0E0"/>
<path d="M9.6813 18.8156C9.63049 18.7949 9.58599 18.7613 9.55219 18.718L8.53189 17.408C8.50625 17.3749 8.48738 17.3371 8.47635 17.2967C8.46532 17.2564 8.46235 17.2142 8.46762 17.1727C8.47288 17.1312 8.48627 17.0911 8.50703 17.0547C8.52778 17.0184 8.55549 16.9865 8.58857 16.9608C8.62165 16.9352 8.65946 16.9163 8.69984 16.9053C8.74022 16.8943 8.78237 16.8913 8.8239 16.8966C8.86542 16.9018 8.9055 16.9152 8.94185 16.936C8.9782 16.9567 9.0101 16.9844 9.03574 17.0175L10.056 18.3244C10.0822 18.3573 10.1015 18.3951 10.1128 18.4355C10.1241 18.4759 10.1272 18.5183 10.1219 18.5599C10.1166 18.6016 10.1031 18.6418 10.082 18.6781C10.061 18.7145 10.0329 18.7462 9.99936 18.7716C9.95517 18.8068 9.90233 18.8294 9.84637 18.8372C9.79041 18.8449 9.7334 18.8375 9.6813 18.8156Z" fill="#E0E0E0"/>
<path d="M5.93388 21.1175C5.85579 21.0853 5.79367 21.0235 5.76119 20.9455C5.72871 20.8676 5.72852 20.7799 5.76068 20.7018C5.79283 20.6237 5.85469 20.5616 5.93265 20.5291C6.0106 20.4967 6.09827 20.4965 6.17636 20.5286L7.71311 21.1584C7.75177 21.1742 7.78696 21.1973 7.81667 21.2266C7.84638 21.256 7.87003 21.2908 7.88626 21.3293C7.90249 21.3677 7.91098 21.409 7.91126 21.4508C7.91154 21.4925 7.90359 21.5339 7.88788 21.5725C7.87217 21.6112 7.84899 21.6464 7.81967 21.6761C7.79036 21.7058 7.75548 21.7295 7.71703 21.7457C7.67857 21.7619 7.6373 21.7704 7.59556 21.7707C7.55382 21.771 7.51244 21.763 7.47378 21.7473L5.93703 21.1175H5.93388Z" fill="#E0E0E0"/>
<path d="M5.37636 25.6081C5.32536 25.5871 5.28077 25.553 5.24706 25.5094C5.21335 25.4657 5.1917 25.4139 5.18427 25.3593C5.17806 25.3179 5.18017 25.2756 5.19048 25.2351C5.20078 25.1945 5.21908 25.1563 5.2443 25.1229C5.26952 25.0895 5.30115 25.0614 5.33734 25.0404C5.37354 25.0193 5.41357 25.0057 5.45509 25.0003L7.09891 24.7704C7.18243 24.7587 7.26717 24.7807 7.3345 24.8315C7.40182 24.8823 7.44621 24.9577 7.4579 25.0412C7.4696 25.1247 7.44763 25.2095 7.39684 25.2768C7.34606 25.3441 7.2706 25.3885 7.18708 25.4002L5.54326 25.6301C5.48667 25.6391 5.42869 25.6314 5.37636 25.6081Z" fill="#E0E0E0"/>
<path d="M21.0493 23.4258C20.9813 23.4018 20.9235 23.3553 20.8857 23.2939C20.8478 23.2325 20.8322 23.16 20.8415 23.0885C20.8507 23.0169 20.8842 22.9507 20.9363 22.9009C20.9885 22.8511 21.0561 22.8208 21.128 22.8149L22.7718 22.585C22.8135 22.5788 22.8559 22.581 22.8967 22.5915C22.9375 22.602 22.9757 22.6206 23.0092 22.6461C23.0427 22.6717 23.0707 22.7037 23.0916 22.7402C23.1125 22.7768 23.1258 22.8171 23.1308 22.8589C23.137 22.9004 23.1349 22.9426 23.1246 22.9832C23.1143 23.0238 23.096 23.0619 23.0708 23.0953C23.0456 23.1287 23.014 23.1568 22.9778 23.1779C22.9416 23.1989 22.9015 23.2125 22.86 23.2179L21.2162 23.4447C21.1599 23.4546 21.1019 23.4481 21.0493 23.4258Z" fill="#E0E0E0"/>
<path d="M19.6259 20.05C19.5736 20.0289 19.5279 19.9941 19.4937 19.9493C19.4665 19.9162 19.4464 19.878 19.4345 19.8369C19.4226 19.7958 19.4192 19.7528 19.4246 19.7103C19.4299 19.6679 19.4437 19.627 19.4654 19.5901C19.487 19.5532 19.5159 19.5211 19.5503 19.4958L20.8604 18.4755C20.8934 18.4499 20.9313 18.431 20.9716 18.42C21.012 18.4089 21.0542 18.406 21.0957 18.4112C21.1372 18.4165 21.1773 18.4299 21.2136 18.4506C21.25 18.4714 21.2819 18.4991 21.3075 18.5322C21.3332 18.5653 21.352 18.6031 21.3631 18.6434C21.3741 18.6838 21.3771 18.726 21.3718 18.7675C21.3665 18.809 21.3531 18.8491 21.3324 18.8854C21.3116 18.9218 21.2839 18.9537 21.2509 18.9793L19.9408 19.9996C19.8976 20.0353 19.8456 20.0588 19.7902 20.0676C19.7349 20.0765 19.6782 20.0704 19.6259 20.05Z" fill="#E0E0E0"/>
<path d="M30.4967 56.3654L28.8277 57.2849C28.7193 57.3525 28.6285 57.4448 28.5628 57.5543C28.4971 57.6638 28.4584 57.7873 28.4498 57.9147C28.4089 59.4043 28.2703 65.2615 28.5096 68.0611C28.5266 68.1892 28.5714 68.312 28.6411 68.4208C28.7108 68.5297 28.8035 68.6219 28.9127 68.6909C29.8574 69.2231 32.4208 70.6276 33.5954 70.9519C33.8637 70.9977 34.1395 70.9683 34.3921 70.8669L35.5762 70.3914C35.6865 70.3398 35.7808 70.2592 35.849 70.1583C35.9172 70.0574 35.9568 69.9399 35.9635 69.8183C35.9635 66.8455 36.5051 62.8305 36.9964 59.5932C37.0097 59.4739 36.9868 59.3533 36.9306 59.2471C36.8744 59.141 36.7876 59.0542 36.6815 58.998L31.2304 56.3402C31.1132 56.2928 30.9873 56.2706 30.8609 56.2749C30.7345 56.2793 30.6104 56.3101 30.4967 56.3654Z" fill="#455A64"/>
<path d="M28.5096 68.0483C28.2703 65.2488 28.4089 59.3915 28.4498 57.902C28.4438 57.8545 28.4519 57.8064 28.4729 57.7634C28.4939 57.7204 28.527 57.6845 28.5681 57.6601C28.6093 57.6357 28.6566 57.6238 28.7044 57.626C28.7522 57.6281 28.7983 57.6441 28.8371 57.6721L33.9134 60.1914C34.0195 60.2509 34.1071 60.3386 34.1665 60.4447C34.226 60.5508 34.255 60.6713 34.2504 60.7928C34.1433 62.1123 33.819 67.0752 33.9827 70.5802C33.9893 70.6309 33.9834 70.6825 33.9656 70.7305C33.9478 70.7784 33.9185 70.8213 33.8804 70.8555C33.8422 70.8896 33.7963 70.9139 33.7467 70.9263C33.697 70.9387 33.6451 70.9388 33.5954 70.9266C32.4208 70.6117 29.8606 69.1977 28.9127 68.6655C28.805 68.5978 28.7132 68.5076 28.6436 68.4011C28.574 68.2945 28.5283 68.1742 28.5096 68.0483Z" fill="#37474F"/>
<path d="M33.6458 70.9423C33.8949 70.9698 34.147 70.9352 34.3795 70.8416L35.5667 70.366C35.675 70.3125 35.7673 70.2313 35.8342 70.1307C35.9011 70.03 35.9403 69.9135 35.9477 69.7929C36.1808 66.7415 36.4894 62.8083 36.9838 59.571C36.998 59.4623 36.977 59.352 36.9239 59.2561L34.1779 60.5157C34.2233 60.6064 34.2439 60.7074 34.2378 60.8086C34.1276 62.1344 33.8064 67.1068 33.9701 70.5991C33.9742 70.6436 33.9687 70.6884 33.9541 70.7306C33.9395 70.7728 33.9161 70.8114 33.8854 70.8439C33.8547 70.8764 33.8175 70.9019 33.7762 70.9189C33.7348 70.9359 33.6904 70.9438 33.6458 70.9423Z" fill="#263238"/>
<path d="M29.1582 58.8594L33.6047 60.9346L33.3906 64.7135L29.0386 62.8461C29.0386 62.8461 29.0795 60.1442 29.1582 58.8594Z" fill="#263238"/>
<path d="M33.4064 64.4836L29.2371 62.6981C29.2371 62.6981 29.2748 60.2292 29.3441 58.9539L33.5954 60.9346L33.4064 64.4836Z" fill="#FFFF00"/>
<path opacity="0.4" d="M33.4064 64.4836L29.2371 62.6981C29.2371 62.6981 29.2748 60.2292 29.3441 58.9539L33.5954 60.9346L33.4064 64.4836Z" fill="black"/>
<path d="M31.5453 60.3113L30.6132 61.6591L31.1989 61.8606L30.7423 63.051L31.7846 61.6465L31.1989 61.4261L31.5453 60.3113Z" fill="#FAFAFA"/>
<path d="M33.1104 65.5795L33.082 65.9543C33.0827 65.979 33.0769 66.0035 33.0651 66.0253C33.0534 66.0471 33.0362 66.0654 33.0152 66.0785C32.9941 66.0915 32.9701 66.0989 32.9453 66.0997C32.9206 66.1006 32.8961 66.095 32.8742 66.0834L32.2003 65.8063C32.1457 65.7803 32.0998 65.7392 32.068 65.6878C32.0361 65.6364 32.0198 65.577 32.0208 65.5166L32.0428 65.1355C32.0415 65.1109 32.0468 65.0863 32.0581 65.0644C32.0694 65.0425 32.0864 65.024 32.1073 65.0109C32.1281 64.9977 32.1521 64.9904 32.1768 64.9896C32.2015 64.9888 32.2259 64.9946 32.2475 65.0064L32.9309 65.2898C32.9854 65.3158 33.0314 65.3569 33.0632 65.4083C33.095 65.4597 33.1114 65.5191 33.1104 65.5795Z" fill="#263238"/>
<path d="M33.1136 66.7982L33.0947 67.173C33.0956 67.1975 33.0901 67.2219 33.0788 67.2437C33.0675 67.2655 33.0506 67.284 33.03 67.2974C33.0093 67.3107 32.9856 67.3185 32.961 67.3198C32.9365 67.3212 32.912 67.3162 32.89 67.3052L32.2098 67.0376C32.1556 67.0125 32.1097 66.9725 32.0773 66.9224C32.045 66.8722 32.0276 66.8138 32.0271 66.7542V66.37C32.0256 66.3455 32.0305 66.3211 32.0414 66.2991C32.0524 66.2772 32.0689 66.2586 32.0894 66.2451C32.1099 66.2317 32.1336 66.2239 32.158 66.2226C32.1825 66.2213 32.2069 66.2265 32.2287 66.2377L32.9152 66.5117C32.9728 66.5346 33.0224 66.574 33.0576 66.625C33.0929 66.676 33.1124 66.7362 33.1136 66.7982Z" fill="#263238"/>
<path d="M33.1199 68.0169V68.3916C33.1214 68.4164 33.1163 68.4412 33.1052 68.4635C33.0941 68.4857 33.0774 68.5047 33.0566 68.5184C33.0359 68.5321 33.0119 68.5401 32.9871 68.5417C32.9622 68.5432 32.9374 68.5381 32.9152 68.527L32.235 68.2719C32.179 68.2483 32.1311 68.2089 32.0971 68.1586C32.063 68.1083 32.0442 68.0493 32.0429 67.9885V67.6043C32.0413 67.5799 32.0462 67.5554 32.0572 67.5335C32.0681 67.5116 32.0847 67.493 32.1051 67.4795C32.1256 67.4661 32.1493 67.4583 32.1738 67.457C32.1983 67.4557 32.2226 67.4609 32.2444 67.4721L32.9341 67.7335C32.9888 67.7581 33.0354 67.7978 33.0684 67.848C33.1013 67.8983 33.1192 67.9568 33.1199 68.0169Z" fill="#263238"/>
<path d="M33.1262 69.2514V69.6262C33.128 69.6508 33.1233 69.6755 33.1126 69.6978C33.1019 69.7201 33.0855 69.7392 33.0652 69.7532C33.0448 69.7672 33.0211 69.7757 32.9965 69.7777C32.9718 69.7797 32.9471 69.7752 32.9247 69.7647L32.2382 69.5191C32.1826 69.4964 32.1347 69.4582 32.1001 69.4091C32.0655 69.36 32.0457 69.302 32.0429 69.242V68.8578C32.0405 68.8333 32.0446 68.8085 32.0549 68.7861C32.0652 68.7637 32.0812 68.7444 32.1015 68.7303C32.1217 68.7162 32.1453 68.7077 32.1699 68.7058C32.1945 68.7038 32.2191 68.7085 32.2413 68.7192L32.9373 68.9712C32.9922 68.9951 33.0391 69.0342 33.0725 69.0838C33.106 69.1334 33.1246 69.1916 33.1262 69.2514Z" fill="#263238"/>
<path d="M31.5988 64.89L31.5799 65.2804C31.5812 65.3051 31.576 65.3296 31.5646 65.3515C31.5533 65.3734 31.5363 65.3919 31.5155 65.4051C31.4946 65.4183 31.4706 65.4256 31.446 65.4264C31.4213 65.4272 31.3969 65.4214 31.3752 65.4096L30.7076 65.1324C30.6519 65.1074 30.6046 65.0666 30.5716 65.0152C30.5387 64.9638 30.5213 64.9038 30.5218 64.8427V64.4459C30.5198 64.4214 30.5245 64.3968 30.5354 64.3747C30.5463 64.3527 30.563 64.334 30.5837 64.3207C30.6045 64.3074 30.6284 64.3001 30.653 64.2994C30.6776 64.2987 30.7019 64.3047 30.7234 64.3168L31.4036 64.6002C31.4611 64.6239 31.5103 64.664 31.545 64.7155C31.5798 64.7671 31.5985 64.8278 31.5988 64.89Z" fill="#263238"/>
<path d="M31.5957 66.1024L31.5768 66.4929C31.5782 66.5175 31.5729 66.542 31.5616 66.564C31.5502 66.5859 31.5333 66.6044 31.5124 66.6175C31.4915 66.6307 31.4675 66.638 31.4429 66.6388C31.4182 66.6396 31.3938 66.6338 31.3722 66.622L30.7045 66.348C30.6482 66.3234 30.6003 66.2829 30.5667 66.2314C30.5332 66.1799 30.5154 66.1198 30.5156 66.0583V65.6615C30.5136 65.637 30.5183 65.6124 30.5292 65.5903C30.5401 65.5682 30.5568 65.5496 30.5775 65.5363C30.5982 65.523 30.6222 65.5156 30.6468 65.5149C30.6714 65.5143 30.6957 65.5203 30.7171 65.5324L31.3973 65.8127C31.4554 65.8358 31.5053 65.8757 31.5407 65.9273C31.576 65.9789 31.5952 66.0399 31.5957 66.1024Z" fill="#263238"/>
<path d="M31.5894 67.3114V67.7019C31.591 67.7264 31.5861 67.7508 31.5752 67.7728C31.5642 67.7947 31.5477 67.8133 31.5272 67.8268C31.5067 67.8402 31.483 67.848 31.4585 67.8493C31.4341 67.8506 31.4097 67.8454 31.3879 67.8342L30.714 67.5634C30.6582 67.5383 30.611 67.4976 30.578 67.4461C30.545 67.3947 30.5277 67.3348 30.5282 67.2737V66.8769C30.5259 66.8525 30.5302 66.828 30.5407 66.806C30.5513 66.7839 30.5675 66.7651 30.5879 66.7515C30.6082 66.7379 30.6319 66.7301 30.6563 66.7289C30.6807 66.7277 30.705 66.7331 30.7266 66.7446L31.4068 67.0249C31.4614 67.0502 31.5077 67.0906 31.5401 67.1414C31.5724 67.1922 31.5896 67.2512 31.5894 67.3114Z" fill="#263238"/>
<path d="M31.5831 68.524V68.9145C31.5841 68.9387 31.5788 68.9628 31.5676 68.9842C31.5564 69.0057 31.5398 69.0239 31.5194 69.037C31.499 69.05 31.4756 69.0575 31.4514 69.0587C31.4272 69.0599 31.4031 69.0547 31.3816 69.0436L30.7077 68.776C30.6523 68.7518 30.6051 68.7123 30.5716 68.662C30.5381 68.6118 30.5197 68.5529 30.5187 68.4926V68.0926C30.5171 68.0682 30.5221 68.0437 30.533 68.0218C30.5439 67.9999 30.5605 67.9812 30.581 67.9678C30.6015 67.9543 30.6251 67.9466 30.6496 67.9453C30.6741 67.944 30.6985 67.9492 30.7203 67.9604L31.4005 68.2375C31.4551 68.2628 31.5014 68.3032 31.5338 68.354C31.5661 68.4048 31.5833 68.4638 31.5831 68.524Z" fill="#263238"/>
<path d="M30.0906 64.2128V64.619C30.092 64.6433 30.0869 64.6675 30.0757 64.6891C30.0646 64.7107 30.0478 64.7289 30.0272 64.7418C30.0066 64.7547 29.9829 64.7618 29.9586 64.7623C29.9343 64.7629 29.9103 64.7569 29.8891 64.745L29.2246 64.4679C29.1689 64.4428 29.1216 64.4021 29.0886 64.3506C29.0556 64.2992 29.0383 64.2393 29.0388 64.1782V63.7625C29.037 63.7388 29.0417 63.715 29.0523 63.6937C29.0629 63.6724 29.079 63.6544 29.099 63.6415C29.119 63.6286 29.1421 63.6213 29.1659 63.6205C29.1896 63.6196 29.2132 63.6251 29.2341 63.6365L29.908 63.9231C29.9631 63.9486 30.0097 63.9895 30.0421 64.0409C30.0745 64.0923 30.0914 64.152 30.0906 64.2128Z" fill="#263238"/>
<path d="M30.0967 65.3812V65.7874C30.0989 65.8116 30.0944 65.8359 30.0836 65.8576C30.0729 65.8794 30.0564 65.8978 30.0359 65.9108C30.0154 65.9238 29.9917 65.9309 29.9675 65.9314C29.9432 65.9318 29.9193 65.9256 29.8984 65.9134L29.2339 65.6362C29.1776 65.6117 29.1297 65.5711 29.0961 65.5196C29.0625 65.4682 29.0447 65.408 29.045 65.3465V64.9308C29.0428 64.9067 29.0473 64.8824 29.0581 64.8606C29.0688 64.8389 29.0853 64.8205 29.1058 64.8075C29.1263 64.7945 29.15 64.7873 29.1742 64.7869C29.1985 64.7864 29.2224 64.7927 29.2433 64.8049L29.9172 65.0915C29.9718 65.1174 30.0177 65.1586 30.0496 65.2099C30.0814 65.2613 30.0978 65.3207 30.0967 65.3812Z" fill="#263238"/>
<path d="M30.0999 66.5589V66.9651C30.1013 66.9894 30.0962 67.0136 30.085 67.0352C30.0739 67.0568 30.0571 67.075 30.0365 67.0879C30.0159 67.1008 29.9922 67.1079 29.9679 67.1084C29.9436 67.109 29.9195 67.103 29.8984 67.0911L29.2339 66.814C29.1789 66.7875 29.1323 66.7466 29.099 66.6955C29.0657 66.6444 29.047 66.5852 29.045 66.5243V66.1086C29.0428 66.0844 29.0473 66.0601 29.0581 66.0384C29.0688 66.0166 29.0853 65.9982 29.1058 65.9852C29.1263 65.9722 29.15 65.9651 29.1742 65.9646C29.1985 65.9642 29.2224 65.9704 29.2433 65.9826L29.9172 66.2692C29.9724 66.2947 30.019 66.3356 30.0514 66.387C30.0838 66.4385 30.1007 66.4981 30.0999 66.5589Z" fill="#263238"/>
<path d="M30.1031 67.7367V68.143C30.1052 68.1671 30.1007 68.1914 30.0899 68.2132C30.0792 68.2349 30.0627 68.2533 30.0422 68.2663C30.0217 68.2793 29.9981 68.2865 29.9738 68.2869C29.9495 68.2874 29.9256 68.2811 29.9047 68.2689L29.2371 67.9918C29.1813 67.9667 29.1341 67.926 29.1011 67.8746C29.0681 67.8231 29.0508 67.7632 29.0513 67.7021V67.2864C29.0495 67.2627 29.0542 67.2389 29.0647 67.2176C29.0753 67.1963 29.0915 67.1783 29.1115 67.1654C29.1314 67.1525 29.1545 67.1453 29.1783 67.1444C29.2021 67.1435 29.2256 67.1491 29.2465 67.1604L29.9204 67.4439C29.9747 67.4714 30.0203 67.5132 30.0525 67.5649C30.0847 67.6165 30.1022 67.6759 30.1031 67.7367Z" fill="#263238"/>
<path d="M106.147 117.275L103.241 116.286C102.992 113.502 103.351 106.757 107.876 102.798C112.471 98.7802 115.469 101.356 115.38 103.113C115.286 105.031 111.164 106.829 109.082 109.411C106.809 112.22 106.1 114.141 106.147 117.275Z" fill="#FFFF00"/>
<path opacity="0.5" d="M106.147 117.275L103.241 116.286C102.992 113.502 103.351 106.757 107.876 102.798C112.471 98.7802 115.469 101.356 115.38 103.113C115.286 105.031 111.164 106.829 109.082 109.411C106.809 112.22 106.1 114.141 106.147 117.275Z" fill="white"/>
<path d="M104.185 116.761C104.144 116.761 104.105 116.744 104.076 116.714C104.047 116.685 104.031 116.645 104.031 116.604C104.072 109.115 109.633 102.562 112.404 102.137C112.425 102.134 112.446 102.135 112.466 102.14C112.486 102.145 112.506 102.154 112.522 102.166C112.539 102.179 112.553 102.194 112.564 102.212C112.575 102.23 112.582 102.25 112.585 102.271C112.588 102.292 112.587 102.313 112.582 102.333C112.577 102.353 112.568 102.372 112.556 102.389C112.543 102.406 112.528 102.42 112.51 102.431C112.492 102.442 112.472 102.449 112.451 102.452C109.737 102.868 104.383 109.534 104.346 116.607C104.345 116.628 104.341 116.648 104.332 116.667C104.324 116.686 104.312 116.703 104.297 116.717C104.282 116.732 104.265 116.743 104.246 116.751C104.226 116.758 104.206 116.762 104.185 116.761Z" fill="white"/>
<path d="M113.053 110.561C110.534 109.733 105.055 112.488 103.993 116.544L106.147 117.272C107.887 115.85 109.993 114.95 112.222 114.674C115.771 114.318 115.563 111.389 113.053 110.561Z" fill="#FFFF00"/>
<path opacity="0.65" d="M113.053 110.561C110.534 109.733 105.055 112.488 103.993 116.544L106.147 117.272C107.887 115.85 109.993 114.95 112.222 114.674C115.771 114.318 115.563 111.389 113.053 110.561Z" fill="white"/>
<path d="M104.976 117.092C104.951 117.093 104.926 117.087 104.903 117.076C104.866 117.056 104.839 117.023 104.827 116.983C104.814 116.943 104.818 116.899 104.837 116.862C106.994 112.696 111.677 111.465 113.582 111.975C113.602 111.98 113.621 111.989 113.637 112.001C113.654 112.014 113.668 112.03 113.678 112.048C113.688 112.065 113.695 112.085 113.697 112.106C113.7 112.126 113.698 112.147 113.692 112.167C113.681 112.207 113.655 112.241 113.619 112.262C113.583 112.284 113.541 112.29 113.5 112.28C111.68 111.792 107.202 112.989 105.117 117.004C105.105 117.031 105.085 117.053 105.059 117.069C105.034 117.084 105.005 117.092 104.976 117.092Z" fill="white"/>
<path d="M102.545 70.5991V117.168C102.559 117.323 102.614 117.471 102.705 117.597C102.796 117.724 102.919 117.823 103.061 117.886C103.447 118.083 103.874 118.185 104.307 118.185C104.74 118.185 105.166 118.083 105.552 117.886C105.694 117.823 105.817 117.723 105.908 117.597C105.998 117.47 106.054 117.322 106.068 117.168V70.5991H102.545Z" fill="#455A64"/>
<path d="M102.545 79.3284L106.068 77.2941V70.5991H102.545V79.3284Z" fill="#37474F"/>
<path d="M97.6227 78.5788L121.927 64.5465V21.0483L97.6227 35.0806V78.5788Z" fill="#FFFF00"/>
<path d="M121.927 21.0485L110.991 14.7346L86.686 28.7669L97.6228 35.0808L121.927 21.0485Z" fill="#FFFF00"/>
<path opacity="0.2" d="M121.927 21.0485L110.991 14.7346L86.686 28.7669L97.6228 35.0808L121.927 21.0485Z" fill="white"/>
<path d="M86.686 28.7668V72.265L97.6228 78.5789V35.0807L86.686 28.7668Z" fill="#FFFF00"/>
<path opacity="0.2" d="M86.686 28.7668V72.265L97.6228 78.5789V35.0807L86.686 28.7668Z" fill="black"/>
<path d="M113.119 32.3567L104.107 55.8016L109.775 51.2165L105.366 67.7932L115.443 42.588L109.775 47.0093L113.119 32.3567Z" fill="#FAFAFA"/>
<path d="M99.4619 35.4302C99.7957 35.2381 100.07 35.3956 100.07 35.7829C100.058 35.9936 99.9969 36.1987 99.8913 36.3814C99.7857 36.5641 99.6386 36.7194 99.4619 36.8347C99.1249 37.03 98.8541 36.8725 98.8541 36.4852C98.8656 36.274 98.9265 36.0684 99.0321 35.8852C99.1377 35.7019 99.2849 35.5461 99.4619 35.4302Z" fill="#37474F"/>
<path d="M99.4619 74.7245C99.7957 74.5293 100.07 74.6867 100.07 75.074C100.058 75.2848 99.9969 75.4898 99.8913 75.6725C99.7857 75.8552 99.6386 76.0105 99.4619 76.1258C99.1249 76.3211 98.8541 76.1636 98.8541 75.7763C98.865 75.5654 98.9258 75.3601 99.0315 75.1773C99.1371 74.9944 99.2846 74.8393 99.4619 74.7245Z" fill="#37474F"/>
<path d="M120.104 23.5048C120.441 23.3095 120.712 23.467 120.712 23.8543C120.701 24.0652 120.64 24.2705 120.534 24.4533C120.429 24.6362 120.281 24.7913 120.104 24.9061C119.77 25.1014 119.499 24.9439 119.499 24.5566C119.51 24.3461 119.571 24.1412 119.676 23.9584C119.781 23.7757 119.928 23.6203 120.104 23.5048Z" fill="#37474F"/>
<path d="M120.104 62.7958C120.441 62.6005 120.712 62.758 120.712 63.1453C120.701 63.3562 120.64 63.5615 120.534 63.7443C120.429 63.9272 120.281 64.0824 120.104 64.1971C119.77 64.3924 119.499 64.2349 119.499 63.8476C119.51 63.6371 119.571 63.4322 119.676 63.2494C119.781 63.0667 119.928 62.9113 120.104 62.7958Z" fill="#37474F"/>
<path d="M121.927 21.0483V51.9187L135.295 44.2003V0.702148L110.991 14.7344L121.927 21.0483Z" fill="#FFFF00"/>
<path d="M135.295 0.702244L110.99 14.7345L109.775 14.0323L134.079 0L135.295 0.702244Z" fill="#FFFF00"/>
<path opacity="0.2" d="M135.295 0.702244L110.99 14.7345L109.775 14.0323L134.079 0L135.295 0.702244Z" fill="white"/>
<path d="M109.775 15.4367V14.0322L110.99 14.7345L109.775 15.4367Z" fill="#FFFF00"/>
<path opacity="0.2" d="M109.775 15.4367V14.0322L110.99 14.7345L109.775 15.4367Z" fill="black"/>
<path opacity="0.2" d="M110.991 14.7346L126.642 19.03V49.1981L121.927 51.9189V21.0485L110.991 14.7346Z" fill="black"/>
</svg>
