<svg id="Group_11448" data-name="Group 11448" xmlns="http://www.w3.org/2000/svg" width="498.661" height="562.505" viewBox="0 0 498.661 562.505">
  <g id="Group_11455" data-name="Group 11455" transform="translate(0 0)">
    <g id="Group_11454" data-name="Group 11454">
      <path id="Path_3769" data-name="Path 3769" d="M34.393,341.669A39.932,39.932,0,0,1,87.6,326.411l1.371.759,114.189,66.256A133.114,133.114,0,0,1,269.439,505.97l.025,2.584v73.952L94.455,481.385a130.99,130.99,0,0,1-65.43-110.821L29,367.969v-6.261a39.923,39.923,0,0,1,5.393-20.039Zm487.443-.039a39.925,39.925,0,0,1,5.393,20.039v6.261a130.986,130.986,0,0,1-65.454,113.415L286.765,582.467V508.515a133.1,133.1,0,0,1,66.3-115.128l114.187-66.256a39.934,39.934,0,0,1,54.581,14.5ZM284.4,20V94.374a133.1,133.1,0,0,1-66.515,115.251L32.41,316.785V242.844A133.112,133.112,0,0,1,98.719,127.711Z" transform="translate(-29 -20)" fill="#ff0"/>
      <path id="Path_3770" data-name="Path 3770" d="M203.16,177.493,88.971,111.237A39.931,39.931,0,0,0,29,145.774v6.261A130.986,130.986,0,0,0,94.455,265.451L269.462,366.568V292.616a133.1,133.1,0,0,0-66.3-115.124Z" transform="translate(-28.997 195.937)" fill="#d20c07" opacity="0.3"/>
      <path id="Path_3771" data-name="Path 3771" d="M168.623,177.482l114.189-66.256a39.931,39.931,0,0,1,59.97,34.538v6.261A130.986,130.986,0,0,1,277.328,265.44L102.318,366.561V292.609a133.1,133.1,0,0,1,66.3-115.126Z" transform="translate(155.443 195.909)" fill="#d20c07" opacity="0.6"/>
      <path id="Path_3772" data-name="Path 3772" d="M132.8,115.6V39.765l67.564,39.316a133.1,133.1,0,0,1,66.158,115.292l-.141,74.912-66.664-38.208A133.1,133.1,0,0,1,132.8,115.6Z" transform="translate(232.135 29.722)" fill="#d20c07"/>
    </g>
  </g>
</svg>
