<svg xmlns="http://www.w3.org/2000/svg" xmlns:xlink="http://www.w3.org/1999/xlink" width="2614" height="1457.842" viewBox="0 0 2614 1457.842">
  <defs>
    <clipPath id="clip-path">
      <rect id="Rectangle_4491" data-name="Rectangle 4491" width="916" height="547" transform="translate(1690.12 682)"/>
    </clipPath>
    <linearGradient id="linear-gradient" x1="-0.056" y1="0.601" x2="-1.229" y2="0.823" gradientUnits="objectBoundingBox">
      <stop offset="0" stop-color="#fff" stop-opacity="0"/>
      <stop offset="1"/>
    </linearGradient>
  </defs>
  <g id="clean_water_advocacy" data-name="clean water advocacy" transform="translate(0.88 -99.158)">
    <g id="Group_11456" data-name="Group 11456">
      <ellipse id="Ellipse_6" data-name="Ellipse 6" cx="474.423" cy="23.145" rx="474.423" ry="23.145" transform="translate(549.274 1352.801)" fill="#e2e2e2"/>
      <ellipse id="Ellipse_7" data-name="Ellipse 7" cx="339.927" cy="15.16" rx="339.927" ry="15.16" transform="translate(1632.472 1357.541)" fill="#e2e2e2"/>
    </g>
    <g id="Group_11459" data-name="Group 11459">
      <g id="Group_11458" data-name="Group 11458" clip-path="url(#clip-path)">
        <path id="Path_3773" data-name="Path 3773" d="M1780.12,1186V1085h91v-74h75v74h122V948h178v137h128V960h57v143h118V973h56v95h137V960h98v88h152V960h117v61h98V964h68v103.572s-13.139,60.726-47.912,91.64S3056.11,1186,3056.11,1186Z" fill="#e2e2e2"/>
        <path id="Path_3774" data-name="Path 3774" d="M3037.12,1135v34h-21.07c-.074-3-.213-3.054-.224-4.49-.2-27.185-.316-54.513-.661-81.7a13.942,13.942,0,0,0-2.393-7.132c-4.059-5.984-8.516-11.733-13.213-18.091-5.024,7.371-9.787,14.174-14.312,21.148-.722,1.112-.311,2.905-.311,4.39-.026,26.775.183,53.542.183,80.316V1169h-25.793c0-11-.143-20.051.162-29.75.043-1.371,2.266-2.828,3.549-4.24-2.739-2.072-6.879-3.82-8.256-6.779-1.134-2.436-2.5-7.338,3.094-10.077-7.738-1.4-9.661-6.508-9.863-13.166-.777,6.248-1.715,12.081-9.658,13.394,5.5,2.36,5.842,7.256,3.947,10.322-1.81,2.927-6.437,4.109-10.371,6.376,4.713,1.495,4.48,4.35,4.405,7.971-.161,7.781-.05,16.95-.05,22.95h-10.166v-3.944c0-46.411-.423-92.821-.314-139.231.008-3.308-.992-5.31-4.166-6.6a54.21,54.21,0,0,1-9.994-5.026c-6.814-4.62-13.814-5-21.832-3.361-24.465,5.011-49.088,9.374-73.68,13.732-3.607.638-4.662,2.095-4.648,5.359.111,31.444-.365,62.888-.365,94.33V1127h-22v-5c0-25.813.365-51.627.236-77.44-.014-3.1.777-5.317,3.709-6.61,2.293-1.01,3.093-2.784,2.969-5.288a94.725,94.725,0,0,1,.059-11.938c.236-3.091-1.075-4.26-3.774-5.225q-25.393-9.067-50.63-18.529c-1.1-.413-2.136-2.557-2.18-3.928-.484-15.229-.775-30.466-1.091-45.7a47.166,47.166,0,0,0-.659-9.061c-.424,14.344-.945,28.686-1.2,43.033-.057,3.228-.705,5.606-3.906,6.8-2.48.926-2.822,2.856-2.834,5.272-.025,6.61,1.337,5.569-5.95,7.179-11.389,2.515-22.768,5.081-34.2,7.412-2.859.584-3.782,1.734-3.688,4.637q.324,10.082,0,20.18c-.108,3.229.758,5.316,3.65,7.037a6.554,6.554,0,0,1,2.789,4.721c.166,27.6.121,55.5.107,83.1,0,.935-.156,1.351-.264,3.351h-7.146v-88.258c-15,2.213-29,4.338-44,6.533v5.017q0,32.337.035,64.671c0,1.939.217,3.589-2.449,4.361-7.324,2.117-7.27,2.318-7.43,9.9-.016.81-.119,1.771-.211,2.771h-8.945v-5.492l-96,.141V1136h-2.24c-.119-17-.247-35.532-.471-53.266a13.807,13.807,0,0,0-2.4-7.091c-2.27-3.35-4.67-6.632-7.164-9.972q.019-18.541.084-37.091c.015-3.553-1.027-5.035-4.355-6.542-10.587-4.789-21.141-4.756-32.426-2.855-14.447,2.434-28.969,4.42-43.5,6.377,0-.91,0-1.824,0-2.734.008-3.309-.8-5.312-3.973-6.6a53.2,53.2,0,0,1-9.9-5.026c-6.815-4.62-13.694-5-21.711-3.361-6.668,1.365-13.375,2.68-19.961,3.964V937.026c-14.488.518-27.518-1.837-40.426,3.76-4.25,1.843-10.6,1.74-12.768,4.8-2.3,3.243-.955,9.185-.957,13.947q-.015,31.065-.023,62.128c-3.232.678-3.857,2.145-3.848,5.276.113,31.444.021,62.888.021,94.33V1127h-22v-5q0-38.719-.141-77.44c-.016-3.1.587-5.317,3.518-6.61,2.294-1.01,3-2.784,2.873-5.288a94.916,94.916,0,0,1,.014-11.938c.236-3.091-1.1-4.26-3.8-5.225q-25.393-9.067-50.64-18.529c-1.1-.413-2.143-2.557-2.187-3.928-.485-15.229-.778-30.466-1.095-45.7a46.932,46.932,0,0,0-.659-9.061c-.424,14.344-.946,28.686-1.2,43.033-.057,3.228-.705,5.606-3.906,6.8-2.481.926-2.824,2.856-2.834,5.272-.025,6.61,1.336,5.569-5.95,7.179-11.39,2.515-22.769,5.081-34.2,7.412-2.859.584-3.782,1.734-3.688,4.637q.323,10.082,0,20.18c-.109,3.229.758,5.316,3.65,7.037a6.552,6.552,0,0,1,2.787,4.721c.168,27.6.123,55.5.109,83.1,0,.935-.157,1.351-.264,3.351h-6.391v-88.258c-16,2.213-29,4.338-45,6.533v5.017c0,21.558.146,43.114.157,64.671,0,1.939.28,3.589-2.388,4.361-7.324,2.117-7.239,2.318-7.4,9.9-.018.81-.089,1.771-.18,2.771h-9.189v-5.492q0-122.134.205-244.271c0-3.627-.983-4.762-4.413-5.959-6.57-2.289-12.877-6.277-19.327-7.277h-1.648c-5.848,1-11.625,3.57-17.568,5.1-3.381.873-4.4,2.185-4.086,5.461a79.112,79.112,0,0,1,.057,8.037c-.328.556-.393.705-.465.707-8.109.278-5.673,6.351-6.216,10.921-.075.649-1.793,1.361-2.7,1.628a32.446,32.446,0,0,1-5.839,1.027V914.8c-1,.41-.454.65-.69.7-6.766,1.407-6.466,1.415-7.017,8.182a5.047,5.047,0,0,1-2.6,3.7c-2.98,1.073-4.176,2.752-3.629,5.81.561,3.143-.874,4.412-3.909,4.77-2.842.334-5.616,1.141-8.847,1.829,0,3.477-.158,6.892.059,10.282.164,2.522-.742,3.946-3.172,4.281-4.445.612-5.287,3.188-5.276,7.4q.227,84.449.087,168.9V1136h-12v-4.853c0-34.191.43-68.384.572-102.575.014-3.552-.787-5.031-4.114-6.537-10.584-4.791-21.019-4.755-32.3-2.854-22.053,3.715-43.934,6.388-66.088,9.513a19.334,19.334,0,0,0-3.066.8v26.81c-7,1.536-13.737,3.245-20.438,4.429-3.469.612-3.974,2.11-3.952,5.456.152,21.971.391,43.942.391,65.912v4.9h-5V937.026c-15,.518-27.9-1.837-40.805,3.76-4.249,1.843-10.786,1.74-12.956,4.8-2.3,3.243-.575,9.185-.577,13.947-.031,63.714.338,127.429.338,191.144V1156h-52v62h8v5H2577.1c.548,0,1.1-.013,1.644,0h490.111c.549,0,1.266-.013,2.266,0v-88C3059.12,1135,3048.12,1135,3037.12,1135Z" fill="#fcfcfc"/>
        <g id="Group_11457" data-name="Group 11457">
          <rect id="Rectangle_4463" data-name="Rectangle 4463" width="13" height="19" transform="translate(2055.12 962)" fill="#ccc"/>
          <rect id="Rectangle_4464" data-name="Rectangle 4464" width="17" height="19" transform="translate(2084.12 1006)" fill="#ccc"/>
          <rect id="Rectangle_4465" data-name="Rectangle 4465" width="15" height="15" transform="translate(2055.12 1060)" fill="#ccc"/>
          <rect id="Rectangle_4466" data-name="Rectangle 4466" width="16" height="16" transform="translate(2348.12 1048)" fill="#ccc"/>
          <rect id="Rectangle_4467" data-name="Rectangle 4467" width="15" height="14" transform="translate(2404.12 1048)" fill="#ccc"/>
          <rect id="Rectangle_4468" data-name="Rectangle 4468" width="10" height="11" transform="translate(2385.12 1091)" fill="#ccc"/>
          <rect id="Rectangle_4469" data-name="Rectangle 4469" width="16" height="16" transform="translate(2456.12 1048)" fill="#ccc"/>
          <rect id="Rectangle_4470" data-name="Rectangle 4470" width="19" height="19" transform="translate(2450.12 1091)" fill="#ccc"/>
          <rect id="Rectangle_4471" data-name="Rectangle 4471" width="15" height="14" transform="translate(2832.12 1035)" fill="#ccc"/>
          <rect id="Rectangle_4472" data-name="Rectangle 4472" width="19" height="19" transform="translate(2867.12 1035)" fill="#ccc"/>
          <rect id="Rectangle_4473" data-name="Rectangle 4473" width="26" height="27" transform="translate(2847.12 1075)" fill="#ccc"/>
          <rect id="Rectangle_4474" data-name="Rectangle 4474" width="10" height="10" transform="translate(2896.12 1101)" fill="#ccc"/>
          <rect id="Rectangle_4475" data-name="Rectangle 4475" width="14" height="15" transform="translate(2992.12 1054)" fill="#ccc"/>
          <rect id="Rectangle_4476" data-name="Rectangle 4476" width="9" height="9" transform="translate(3022.12 1043)" fill="#ccc"/>
          <rect id="Rectangle_4477" data-name="Rectangle 4477" width="21" height="22" transform="translate(3022.12 1075)" fill="#ccc"/>
          <rect id="Rectangle_4478" data-name="Rectangle 4478" width="17" height="17" transform="translate(3121.12 931)" fill="#ccc"/>
          <rect id="Rectangle_4479" data-name="Rectangle 4479" width="18" height="19" transform="translate(3121.12 971)" fill="#ccc"/>
          <rect id="Rectangle_4480" data-name="Rectangle 4480" width="24" height="24" transform="translate(3129.12 1019)" fill="#ccc"/>
          <rect id="Rectangle_4481" data-name="Rectangle 4481" width="20" height="20" transform="translate(3129.12 1069)" fill="#ccc"/>
          <rect id="Rectangle_4482" data-name="Rectangle 4482" width="16" height="16" transform="translate(3129.12 1111)" fill="#ccc"/>
          <rect id="Rectangle_4483" data-name="Rectangle 4483" width="16" height="16" transform="translate(1939.12 1048)" fill="#ccc"/>
          <rect id="Rectangle_4484" data-name="Rectangle 4484" width="16" height="16" transform="translate(1946.12 1085)" fill="#ccc"/>
          <rect id="Rectangle_4485" data-name="Rectangle 4485" width="12" height="12" transform="translate(1979.12 1048)" fill="#ccc"/>
          <rect id="Rectangle_4486" data-name="Rectangle 4486" width="13" height="13" transform="translate(1984.12 1093)" fill="#ccc"/>
          <rect id="Rectangle_4487" data-name="Rectangle 4487" width="15" height="14" transform="translate(1955.12 1118)" fill="#ccc"/>
          <rect id="Rectangle_4488" data-name="Rectangle 4488" width="16" height="15" transform="translate(2230.12 1031)" fill="#ccc"/>
          <rect id="Rectangle_4489" data-name="Rectangle 4489" width="18" height="17" transform="translate(2230.12 1068)" fill="#ccc"/>
          <rect id="Rectangle_4490" data-name="Rectangle 4490" width="14" height="13" transform="translate(2230.12 1106)" fill="#ccc"/>
        </g>
      </g>
    </g>
    <line id="Line_3" data-name="Line 3" x2="2195" transform="translate(244.12 1225)" fill="none" stroke="#ccc" stroke-miterlimit="10" stroke-width="4"/>
    <g id="Group_11463" data-name="Group 11463">
      <g id="Group_11460" data-name="Group 11460">
        <path id="Path_3775" data-name="Path 3775" d="M1690.714,1248l573.952-2c26.026-.044,39.052-11.323,45.4-20.789a44.02,44.02,0,0,0,7.342-21.671c.249-4.834,8.012-157.235,8.012-264.962,0-41.962,12.277-74.357,36.49-96.286,44.013-39.862,114.049-33.425,114.754-33.354l.616.061.637,0H2613.12V784H2478.5c-8.474-.751-82.827-5.882-133.234,39.636-29.759,26.872-44.847,65.545-44.847,114.942,0,108.271-7.9,262.233-7.983,263.775l-.019.354a19.374,19.374,0,0,1-3.613,9.285c-4.438,5.978-12.61,9.008-24.289,9.008l-.3,0-574.1,2Z" fill="#e2e2e2"/>
      </g>
      <g id="Group_11461" data-name="Group 11461">
        <path id="Path_3776" data-name="Path 3776" d="M2167.353,1372H1762.587l-.533-.031a120.618,120.618,0,0,1-50.075-16.089c-23.2-13.678-50.858-41.425-50.858-95.936V1166h36v93.944c0,29.648,10.81,51.287,32.129,64.315a87.613,87.613,0,0,0,34.61,11.74h403.493c30.207,0,50.749-6.959,61.053-20.685,13.333-17.759,6.5-43.042,6.43-43.292l-.715-2.461v-117.4c0-24.386,8.68-44.835,25.1-59.139,33.521-29.2,89.367-24.152,99.014-23.027h247.885v36H2355.881l-1.229-.17c-13.327-1.794-52.285-2.71-71.843,14.4-8.537,7.467-12.688,17.915-12.688,31.941v112.646c2.285,10.04,7.956,44.306-12.925,72.118C2239.724,1360.2,2209.5,1372,2167.353,1372Z" fill="#b7b7b7"/>
      </g>
      <g id="Group_11462" data-name="Group 11462">
        <path id="Path_3777" data-name="Path 3777" d="M2246.405,1315.315c13.333-17.759,6.5-43.042,6.43-43.292l-.715-2.461v-117.4c0-24.386,8.68-44.835,25.1-59.139,20.367-17.741,48.979-22.838,70.46-23.855-20.225-.955-61.54.408-88.46,23.855-16.422,14.3-25.1,34.753-25.1,59.139v117.4l.715,2.461c.073.25,6.9,25.533-6.43,43.292-10.3,13.726-30.846,20.685-61.053,20.685h18C2215.56,1336,2236.1,1329.041,2246.405,1315.315Z" fill="#aaa"/>
        <path id="Path_3778" data-name="Path 3778" d="M1729.979,1355.88c-23.2-13.678-50.858-41.425-50.858-95.936V1166h-18v93.944c0,54.511,27.657,82.258,50.858,95.936a120.616,120.616,0,0,0,50.075,16.089l.533.031h18l-.533-.031A120.631,120.631,0,0,1,1729.979,1355.88Z" fill="#aaa"/>
      </g>
      <path id="Path_3779" data-name="Path 3779" d="M1707.12,1164.524A10.476,10.476,0,0,1,1696.643,1175H1662.6a10.477,10.477,0,0,1-10.477-10.476v-7.049A10.476,10.476,0,0,1,1662.6,1147h34.047a10.477,10.477,0,0,1,10.477,10.476Z" fill="#ff5000"/>
    </g>
    <g id="Group_11476" data-name="Group 11476">
      <path id="Path_3780" data-name="Path 3780" d="M1826.019,1415.188l.723,4.9,1.047,7.087c36.834,16.215,86.426-1.54,86.426-1.54l3.48,7.193,31.6-2.968-.958-22.3-1.972-54.7c-.563-13.2-51.045-11.34-51.045-11.34C1885,1399.76,1826.019,1415.188,1826.019,1415.188Z" fill="#d6ae05"/>
      <path id="Path_3781" data-name="Path 3781" d="M1826.741,1420.087l1.047,7.087c36.834,16.215,86.426-1.54,86.426-1.54l3.48,7.193,31.6-2.968-.958-22.3C1929.22,1414.708,1876.452,1431.44,1826.741,1420.087Z" fill="#ff5000"/>
      <g id="Group_11464" data-name="Group 11464">
        <path id="Path_3782" data-name="Path 3782" d="M1907.173,659.14s-66.25,47.036-99.188,42.87-148.239-70.607-167.966-79.975-28.912-16.973-39.953-19.534-36.473-28.632-44.414-41.6-1.076-27.806-1.076-27.806,7.98,9.848,14.574,13.881,18.183,4.218,18.183,4.218-3.938-6.623-8.184-8.976-7.989-3.908-7.688-5.207,13.342.016,18.235,2.521,22.564,19.264,30.526,26.244,20.922,13.066,24.493,13.9S1785.611,611,1806.978,619.2c0,0,31.088-21.712,49.086-27.119S1907.173,659.14,1907.173,659.14Z" fill="#b98e8c"/>
        <path id="Path_3783" data-name="Path 3783" d="M1863.835,574.724s43.469-39.874,77.674-63.419,57.016-5.127,62.415,2.161c10.14,13.683,40.143,44.9-6.489,85.41l-105.049,70.052s-45.854,37.353-84.4,33.082-150.209-65.762-156.4-68.567-23.729-6.873-17.966-19.908,7.679-30.157,19.075-32.075,50.061,11.385,58.5,13.351,86.812,19.484,94.937,19.5S1863.835,574.724,1863.835,574.724Z" fill="#231c69"/>
      </g>
      <path id="Path_3784" data-name="Path 3784" d="M1950.794,767.477s-53.775,280.51-66.073,352.769-5.595,190.052-4.075,215.66c0,0,4.059,17.585,10.436,18.192,14.377,1.371,40.537,2.857,58.529-1.984,3.709-1,7.073-19.266,9.913-20.859,0,0,14.276-142.778,30.6-201.254s19.234-135.7,37.83-169.39,55.094-72.571,36.359-134.507Z" fill="#231c69"/>
      <path id="Path_3785" data-name="Path 3785" d="M2139.524,1425.159l3.2,3.778,4.633,5.465c39.84-5.688,72.571-46.959,72.571-46.959l6.755,4.27,25.262-19.21-12.594-18.432-30.566-45.405c-7.449-10.907-49.333,17.334-49.333,17.334C2181.453,1380.906,2139.524,1425.159,2139.524,1425.159Z" fill="#d6ae05"/>
      <path id="Path_3786" data-name="Path 3786" d="M1944.157,786s73.283,283.791,93.561,354.229,81.518,153.656,94,176.067c0,0,13.761,16.549,18.318,14.905,13.367-4.819,41.517-16.042,56.15-29.741,2.156-2.018,1.934-12.794,1.934-18.794,0,0-57.032-120.9-67.7-180.666s-45.067-129.31-42.933-167.73S2138.876,834,2095.12,786H1944.157Z" fill="#4981fc"/>
      <path id="Path_3787" data-name="Path 3787" d="M2073.276,490.5c-14-4-89-5-126,14,0,0-15,14-17,71s12,172,19,192c0,0,129.844,77.78,160.844,63.78,0,0-9.252-84.1-1.333-123.613,8.544-42.633,47.575-144.4,24.351-178.5C2109.276,494.127,2073.276,490.5,2073.276,490.5Z" fill="#4981fc"/>
      <path id="Path_3788" data-name="Path 3788" d="M2111.27,537.652l16.377,1.776s1.767,48.131-5.945,77.121-43.936,111.481-54.94,130.269c-21.975,37.515-84.693,40.052-84.693,40.052Z" fill="#231c69"/>
      <path id="Path_3789" data-name="Path 3789" d="M2142.726,1428.938l4.633,5.465c39.84-5.688,72.571-46.959,72.571-46.959l6.755,4.27,25.262-19.21-12.594-18.432C2226.9,1370.24,2190.933,1412.32,2142.726,1428.938Z" fill="#ff5000"/>
      <g id="Group_11465" data-name="Group 11465">
        <path id="Path_3790" data-name="Path 3790" d="M1737.891,900.171l-34.627-9.846,78.136-274.8.241-.653c2.027-5.615,6.679-24.313,1.341-35.372-1.914-3.964-4.963-6.514-9.859-8.231l-56.688-16.118,9.846-34.627,57.562,16.366.406.137c14.291,4.81,25.095,14.149,31.243,27.009,12.169,25.454,2.329,56.486.179,62.591Z" fill="#ffce00"/>
      </g>
      <g id="Group_11466" data-name="Group 11466">
        <path id="Path_3791" data-name="Path 3791" d="M1740.279,524.521l43.935,12.491-.373-.125-57.562-16.366-9.845,34.627,14,3.982Z" fill="#aaa"/>
        <path id="Path_3792" data-name="Path 3792" d="M1795.4,619.522l.241-.653c2.027-5.615,6.679-24.313,1.341-35.372-1.914-3.964-4.963-6.514-9.859-8.231l-13.816-3.929c4.784,1.717,7.787,4.248,9.676,8.16,5.338,11.058.687,29.757-1.341,35.372l-.241.653-78.136,274.8,14.005,3.982Z" fill="#d6ae05"/>
      </g>
      <g id="Group_11467" data-name="Group 11467">
        <path id="Path_3793" data-name="Path 3793" d="M2089.5,673.769s-25.151,77.259-54.081,93.551S1874.306,799,1852.882,803.238s-33.331,3.607-43.723,8.133-46.352-1.245-60.46-6.928-17.441-21.683-17.441-21.683,12.278,3.149,19.977,2.457,17.114-7.452,17.114-7.452-7.111-2.97-11.922-2.329-8.744,1.625-9.276.4,10.722-7.94,16.144-8.847,29.6,2.015,40.153,2.873,24.587-1.981,27.948-3.445,131.805-58.831,153.848-64.986c0,0,12.016-35.966,23.244-51.036S2089.5,673.769,2089.5,673.769Z" fill="#b98e8c"/>
        <path id="Path_3794" data-name="Path 3794" d="M2004.378,631.828s11.131-57.928,24.559-97.223,42.721-38.1,51.4-35.472c16.3,4.942,59,12.12,45.705,72.442L2083.46,690.443s-14.548,57.324-48.044,76.876-159.8,36.743-166.448,38.183-23.148,8.626-26.292-5.274-11.813-28.789-3.807-37.123,46.981-20.7,54.927-24.153,81.315-36.108,87.846-40.941S2004.378,631.828,2004.378,631.828Z" fill="#4981fc"/>
      </g>
      <path id="Path_3795" data-name="Path 3795" d="M2044.946,491.83c14-16.66,14.66-32,19.33-35.33s29.33-.67,23.33-18,16.67-48.67-13.33-63.33-61.188-28.937-73.858-5.6c0,0-6.142,50.927-11.472,64.927s1.33,22.67,10.66,25.33a.158.158,0,0,1,.04.01c9.34,2.65,22.63.68,19.3,11.99-2.041,6.91-10.43,10.36-18.52,15.62-5.17,3.36-10.221,7.47-13.381,13.72C1978.946,517.17,2030.946,508.5,2044.946,491.83Z" fill="#cb9b97"/>
      <path id="Path_3796" data-name="Path 3796" d="M2047.61,386.5s16,7.333,14.666,21.333-13.254,26.237-7.293,29.785,12.627-4.452,19.293-3.119a87.824,87.824,0,0,1,13.334,4s18-10.667,15.333-38.667-23.333-42.667-58.667-47.333-48.666,15.333-50,27.333" fill="#a77f73"/>
      <path id="Path_3797" data-name="Path 3797" d="M1993.824,509.641s59.188-47.14,79.452-19.141C2073.276,490.5,2017.706,516.78,1993.824,509.641Z" fill="#ff5000"/>
      <path id="Path_3798" data-name="Path 3798" d="M1998.181,488.265l-4.356,21.376s-8.548,3.111-11.881-8.681S1994.085,484.362,1998.181,488.265Z" fill="#ff5000"/>
      <path id="Path_3799" data-name="Path 3799" d="M1993.824,509.641" fill="none" stroke="#231c69" stroke-linecap="round" stroke-miterlimit="10" stroke-width="2"/>
      <path id="Path_3800" data-name="Path 3800" d="M2000.418,423.5s-7.358,8,0,10" fill="none" stroke="#231c69" stroke-linecap="round" stroke-miterlimit="10" stroke-width="2"/>
      <path id="Path_3801" data-name="Path 3801" d="M2014.888,446.5s-10.6,3.027-16.1-4.486" fill="none" stroke="#231c69" stroke-linecap="round" stroke-miterlimit="10" stroke-width="2"/>
      <path id="Path_3802" data-name="Path 3802" d="M2000.427,487.45c40.3-5,53.39-35.46,41.77-29.53-12.32,6.28-41.38,2.09-42.55,1.92,9.34,2.65,22.63.68,19.3,11.99C2016.905,478.74,2008.517,482.19,2000.427,487.45Z" fill="#a07a7a"/>
      <circle id="Ellipse_8" data-name="Ellipse 8" cx="2.068" cy="2.068" r="2.068" transform="translate(2026.777 421.5)" fill="#231c69"/>
      <circle id="Ellipse_9" data-name="Ellipse 9" cx="2.068" cy="2.068" r="2.068" transform="translate(1998.777 411.5)" fill="#231c69"/>
      <g id="Group_11469" data-name="Group 11469">
        <path id="Path_3803" data-name="Path 3803" d="M2114.661,399.355c-6.316,13.2-51.968-15.943-72.758-28.665s-38.043-21.247-38.043-21.247c27.717-40.667,71.86-25.219,85.217-19.274C2089.077,330.17,2133.224,360.558,2114.661,399.355Z" fill="#ffce00"/>
        <path id="Path_3804" data-name="Path 3804" d="M2054.9,376.364s-60.541-9.908-77.535-25.973c-6.354-6.005,30.008-5.307,30.008-5.307S2045.669,368.591,2054.9,376.364Z" fill="#d6ae05"/>
        <path id="Path_3805" data-name="Path 3805" d="M2117.066,366.487s-55.771-17.959-73.781-35.2l-6.087,16.7s42.4,31.072,82.01,31.6" fill="none" stroke="#231c69" stroke-linecap="round" stroke-miterlimit="10" stroke-width="2"/>
        <g id="Group_11468" data-name="Group 11468">
          <path id="Path_3806" data-name="Path 3806" d="M2012.624,322.31a15.227,15.227,0,0,0,5.037,20.935c7.172,4.388,28.654,9.546,33.043,2.375s-9.975-23.956-17.148-28.346A15.225,15.225,0,0,0,2012.624,322.31Z" fill="#ff5000"/>
          <circle id="Ellipse_10" data-name="Ellipse 10" cx="15.224" cy="15.224" r="15.224" transform="translate(2010.385 315.034)" fill="#231c69"/>
          <circle id="Ellipse_11" data-name="Ellipse 11" cx="7.977" cy="7.977" r="7.977" transform="translate(2017.63 322.281)" fill="#eee"/>
        </g>
      </g>
      <path id="Path_3807" data-name="Path 3807" d="M1940.328,718.048l44.915-16.614s15.8-54.709,20.671-77.27,18.453-102.174,40.349-116.767" fill="none" stroke="#231c69" stroke-linecap="round" stroke-miterlimit="10" stroke-width="2"/>
      <path id="Path_3808" data-name="Path 3808" d="M2035.249,826.047s23.72,185.21,54.248,262.613,87.525,228.9,87.525,228.9" fill="none" stroke="#231c69" stroke-linecap="round" stroke-miterlimit="10" stroke-width="2"/>
      <g id="Group_11470" data-name="Group 11470">
        <path id="Path_3809" data-name="Path 3809" d="M2035.249,1039l58.871-18s22,63,20,77-44.609,30-57.176,10C2045.065,1089.095,2035.249,1039,2035.249,1039Z" fill="#231c69"/>
        <path id="Path_3810" data-name="Path 3810" d="M2036,1042.657S2059.163,1061,2076.142,1055s17.979-34,17.979-34" fill="none" stroke="#fcfcfc" stroke-linecap="round" stroke-miterlimit="10" stroke-width="3"/>
      </g>
      <g id="Group_11471" data-name="Group 11471">
        <path id="Path_3811" data-name="Path 3811" d="M2041.542,590.637a35.639,35.639,0,1,1,8.141,10" fill="#fcfcfc"/>
        <path id="Path_3812" data-name="Path 3812" d="M2059.182,576.975a12.761,12.761,0,0,0,25.523,0c0-7.048-10.606-23.807-12.762-23.807C2069.26,553.167,2059.182,569.926,2059.182,576.975Z" fill="#468af5"/>
        <ellipse id="Ellipse_12" data-name="Ellipse 12" cx="2.902" cy="5.907" rx="2.902" ry="5.907" transform="translate(2082.134 579.519) rotate(170.782)" fill="#7ab4f9"/>
      </g>
      <path id="Path_3813" data-name="Path 3813" d="M2030.3,612.476s41.372,22.13,67.441,6.99l-1.555,25.79s-40.83,7.453-69.716-15.087Z" fill="none" stroke="#fcfcfc" stroke-linecap="round" stroke-linejoin="round" stroke-miterlimit="10" stroke-width="3"/>
      <path id="Path_3814" data-name="Path 3814" d="M1993.824,509.641s-18.978,60.271-20.341,119.815" fill="none" stroke="#fcfcfc" stroke-linecap="round" stroke-linejoin="round" stroke-miterlimit="10" stroke-width="3"/>
      <g id="Group_11472" data-name="Group 11472">
        <line id="Line_4" data-name="Line 4" x2="6" y2="14.236" transform="translate(1867.12 1380)" fill="none" stroke="#231c69" stroke-linecap="round" stroke-miterlimit="10" stroke-width="2"/>
        <line id="Line_5" data-name="Line 5" x2="15.377" y2="1.486" transform="translate(1862.432 1386.375)" fill="none" stroke="#231c69" stroke-linecap="round" stroke-miterlimit="10" stroke-width="2"/>
      </g>
      <g id="Group_11473" data-name="Group 11473">
        <line id="Line_6" data-name="Line 6" x2="6" y2="14.236" transform="translate(1878.12 1370)" fill="none" stroke="#231c69" stroke-linecap="round" stroke-miterlimit="10" stroke-width="2"/>
        <line id="Line_7" data-name="Line 7" x2="15.377" y2="1.486" transform="translate(1873.432 1376.375)" fill="none" stroke="#231c69" stroke-linecap="round" stroke-miterlimit="10" stroke-width="2"/>
      </g>
      <g id="Group_11474" data-name="Group 11474">
        <line id="Line_8" data-name="Line 8" x2="13.437" y2="7.622" transform="translate(2157.593 1370.624)" fill="none" stroke="#231c69" stroke-linecap="round" stroke-miterlimit="10" stroke-width="2"/>
        <line id="Line_9" data-name="Line 9" y1="8.202" x2="13.091" transform="translate(2157.766 1370.334)" fill="none" stroke="#231c69" stroke-linecap="round" stroke-miterlimit="10" stroke-width="2"/>
      </g>
      <g id="Group_11475" data-name="Group 11475">
        <line id="Line_10" data-name="Line 10" x2="13.437" y2="7.622" transform="translate(2160.21 1355.99)" fill="none" stroke="#231c69" stroke-linecap="round" stroke-miterlimit="10" stroke-width="2"/>
        <line id="Line_11" data-name="Line 11" y1="8.202" x2="13.092" transform="translate(2160.383 1355.7)" fill="none" stroke="#231c69" stroke-linecap="round" stroke-miterlimit="10" stroke-width="2"/>
      </g>
      <path id="Path_3815" data-name="Path 3815" d="M1745.581,908.068a10.477,10.477,0,0,1-13.26,6.61l-32.287-10.8a10.477,10.477,0,0,1-6.611-13.26l2.236-6.684a10.478,10.478,0,0,1,13.26-6.61l32.287,10.8a10.478,10.478,0,0,1,6.611,13.26Z" fill="#ff5000"/>
      <path id="Path_3816" data-name="Path 3816" d="M1712.2,562.787a10.48,10.48,0,0,1-6.422-13.354l11.262-32.129a10.481,10.481,0,0,1,13.355-6.422l6.65,2.332a10.481,10.481,0,0,1,6.421,13.353L1732.2,558.7a10.479,10.479,0,0,1-13.353,6.421Z" fill="#ff5000"/>
    </g>
    <g id="Group_11490" data-name="Group 11490">
      <path id="Path_3817" data-name="Path 3817" d="M236.31,1557c7.582-5.943,11.811-15.816,11.811-31.679V424.114C248.12,363.229,185.94,314,110.144,314H-.88V1557Z" fill="#fcfcfc"/>
      <path id="Path_3818" data-name="Path 3818" d="M236.31,1557c7.582-5.943,11.811-15.816,11.811-31.679V424.114C248.12,363.229,185.94,314,110.144,314H-.88V1557Z" opacity="0.2" fill="url(#linear-gradient)"/>
      <g id="Group_11477" data-name="Group 11477">
        <path id="Path_3819" data-name="Path 3819" d="M1340.42,1377l-.416,0H732.6c-29.3,0-53.732-9.67-72.618-28.741-36.172-36.528-36.912-93.307-36.859-100.364v-95.729c0-14.822-3.771-25.523-11.526-32.715-12.9-11.954-35.562-13.1-43.338-12.542l-1.187.119-.95-.028h-146v-50H565.192c8.906-.591,50.377-1.7,80.02,25.438,12.731,11.658,27.908,33.22,27.908,69.728v96.079c-.029,11.695,3.957,46.354,22.514,64.958,9.261,9.284,21.353,13.8,36.965,13.8h607.729c1.161-.015,17.223-.357,32.225-7.892,18.127-9.1,26.569-24.38,26.569-48.075v-355.2c-.453-7.662-1.243-42.1,18.9-64.988,10.7-12.153,25.34-19.006,42.347-19.815l1.189-.028h59.56v50h-58.852c-4.073.285-5.58,1.606-6.672,2.833-5.4,6.073-7.1,20.992-6.552,29.227l.1,1.077-.024.862v356.033c0,30.759-9.623,55.863-28.6,74.616C1390.126,1375.681,1347.617,1377,1340.42,1377Z" fill="#ccc"/>
      </g>
      <g id="Group_11478" data-name="Group 11478">
        <path id="Path_3820" data-name="Path 3820" d="M622.212,1082.438c12.731,11.658,27.908,33.22,27.908,69.728v96.079c-.029,11.695,3.957,46.354,22.514,64.958,9.261,9.284,21.353,13.8,36.965,13.8h23c-15.612,0-27.7-4.513-36.964-13.8-18.557-18.6-22.514-53.263-22.514-64.958v-96.079c0-36.508-15.177-58.069-27.908-69.728-29.643-27.144-71.113-26.029-80.02-25.438H556.1C573.114,1057.952,600.757,1062.793,622.212,1082.438Z" fill="#b7b7b7"/>
        <path id="Path_3821" data-name="Path 3821" d="M554.2,1107a65.4,65.4,0,0,0-8.942-.091l-.9.091Z" fill="#b7b7b7"/>
        <rect id="Rectangle_4492" data-name="Rectangle 4492" width="23" height="50" transform="translate(1498.12 831)" fill="#b7b7b7"/>
        <path id="Path_3822" data-name="Path 3822" d="M1432.6,883.833c-5.4,6.073-7.1,20.992-6.552,29.227l.1,1.077-.024.863v356.033c0,30.759-9.623,55.863-28.6,74.616-30.008,29.651-71.8,31.312-79.784,31.351H1340l.416,0c7.2,0,49.706-1.321,80.1-31.353,18.979-18.753,28.6-43.857,28.6-74.616V915l.023-.863-.1-1.077c-.549-8.234,1.147-23.153,6.552-29.227,1.092-1.227,2.6-2.548,6.672-2.833h-23C1435.195,881.285,1433.688,882.606,1432.6,883.833Z" fill="#b7b7b7"/>
      </g>
      <g id="Group_11479" data-name="Group 11479">
        <path id="Path_3823" data-name="Path 3823" d="M396.12,1113H324.615c-31.682,0-56.589-9.566-74.029-28.435-24.1-26.065-23.861-59.707-23.466-67.322V865.711c0-35.182-11.092-59.743-32.969-73A78.444,78.444,0,0,0,158.324,782l-.26.008.056-.009H.12V732h158c4.49,0,49.052.863,82.642,34.045,24.126,23.832,36.358,57.364,36.358,99.666v153.531l-.065.607c-.064,1.75-.428,19.474,10.47,31.015,7.6,8.053,20.084,12.136,37.091,12.136h71.505v50Z" fill="#ccc"/>
      </g>
      <g id="Group_11480" data-name="Group 11480">
        <path id="Path_3824" data-name="Path 3824" d="M432.823,1161l-83.952-2c-26.026-.044-39.052-11.323-45.4-20.789a44.009,44.009,0,0,1-7.342-21.671c-.249-4.834-8.012-157.235-8.012-264.962,0-41.962-12.277-74.357-36.49-96.286-44.013-39.862-114.05-33.425-114.754-33.354l-.616.061H.12V697H135.039c8.474-.751,82.827-5.882,133.234,39.636,29.758,26.872,44.847,65.545,44.847,114.942,0,108.271,7.9,262.233,7.983,263.775l.019.354a19.381,19.381,0,0,0,3.612,9.285c4.439,5.978,12.611,9.008,24.29,9.008l.3,0,84.1,2Z" fill="#e2e2e2"/>
      </g>
      <g id="Group_11481" data-name="Group 11481">
        <path id="Path_3825" data-name="Path 3825" d="M.18,1355.12v.03c-.21.02-.409.029-.579.029A2.93,2.93,0,0,0,.18,1355.12Z" fill="#b7b7b7"/>
        <path id="Path_3826" data-name="Path 3826" d="M421.98,1278.75c-29.07,32.68-73.1,49.25-130.86,49.25H167.18l-.79-.07c-3.97-.1-15.18.391-24.59,3.82-8.819,3.21-9.02,5.48-9.37,9.59-4.09,47.66-30.029,84.38-73.04,103.61A153.722,153.722,0,0,1,.13,1458H.061l.04-30.8.079-72.05a53.029,53.029,0,0,0,18.71-4.881c6.37-3.22,9.99-6.989,10.921-17.76,4.069-47.42,33.729-83.55,81.38-99.149a178.454,178.454,0,0,1,59.04-8.36h120.89c25.78,0,44.75-5.04,53.41-14.18,6.359-6.7,6.83-15.86,6.82-18.49l-.681-3.8.45-1.53V1041a103.956,103.956,0,0,0-2.96-26.26c-2.55-9.78-6.74-17.48-12.56-23.03-13.711-13.06-36.721-15.12-44.95-14.82l-2.271.221-1.26-.11H.119V874h285.62c14.11-.64,73.89-.56,119.6,41.91,22.25,20.68,48.78,59.16,48.78,125.09v144.17C454.95,1199.22,454.42,1242.27,421.98,1278.75Z" fill="#b7b7b7"/>
      </g>
      <path id="Path_3827" data-name="Path 3827" d="M421.98,1278.75c-29.07,32.68-73.1,49.25-130.86,49.25H167.18l-.79-.07c-3.97-.1-15.18.391-24.59,3.82-8.819,3.21-9.02,5.48-9.37,9.59-4.09,47.66-30.029,84.38-73.04,103.61A153.722,153.722,0,0,1,.13,1458H.061l.04-30.8c25.4-3.41,91.079-19.36,99.52-93.03,0,0,4.5-33.11,88.5-31.61,0,0,146.99,15.881,193.49-22.06s70.51-57.5,71.51-148.5a119.758,119.758,0,0,1,1-15.44v68.61C454.95,1199.22,454.42,1242.27,421.98,1278.75Z" fill="#a3a3a3"/>
      <path id="Path_3828" data-name="Path 3828" d="M348.16,1014.74c-2.55-9.78-6.74-17.48-12.56-23.03-13.711-13.06-36.721-15.12-44.95-14.82l-2.271.221-1.26-.11H.119V941h277S348.16,927.9,348.16,1014.74Z" fill="#a3a3a3"/>
      <path id="Path_3829" data-name="Path 3829" d="M465.12,1120a12,12,0,0,1-12,12h-8a12,12,0,0,1-12-12v-79a12,12,0,0,1,12-12h8a12,12,0,0,1,12,12Z" fill="#969696"/>
      <path id="Path_3830" data-name="Path 3830" d="M579.12,1059.279A16.721,16.721,0,0,1,562.4,1076H510.841a16.721,16.721,0,0,1-16.722-16.721V1046.72A16.721,16.721,0,0,1,510.841,1030H562.4a16.721,16.721,0,0,1,16.722,16.721Z" fill="#ccc"/>
      <path id="Path_3831" data-name="Path 3831" d="M543.12,1034a8,8,0,0,1-8,8h0a8,8,0,0,1-8-8V984a8,8,0,0,1,8-8h0a8,8,0,0,1,8,8Z" fill="#ccc"/>
      <g id="Group_11482" data-name="Group 11482">
        <path id="Path_3832" data-name="Path 3832" d="M535.454,1005c-28.822,0-58-9.16-58-26.667s29.178-26.667,58-26.667,58,9.16,58,26.667S564.276,1005,535.454,1005Zm0-39.334c-12.6,0-24.823,1.929-33.544,5.291-7.9,3.047-10.456,6.285-10.456,7.376s2.556,4.329,10.456,7.376c8.721,3.362,20.947,5.291,33.544,5.291s24.823-1.929,33.544-5.291c7.9-3.047,10.456-6.285,10.456-7.376S576.9,974,569,970.957C560.277,967.595,548.051,965.666,535.454,965.666Z" fill="#ccc"/>
      </g>
      <path id="Path_3833" data-name="Path 3833" d="M679.12,1170a12,12,0,0,1-12,12h-39a12,12,0,0,1-12-12v-8a12,12,0,0,1,12-12h39a12,12,0,0,1,12,12Z" fill="#969696"/>
      <path id="Path_3834" data-name="Path 3834" d="M1455.12,936a12,12,0,0,1-12,12h-39a12,12,0,0,1-12-12v-8a12,12,0,0,1,12-12h39a12,12,0,0,1,12,12Z" fill="#969696"/>
      <path id="Path_3835" data-name="Path 3835" d="M280.12,1327a12,12,0,0,1-12,12h-8a12,12,0,0,1-12-12v-99a12,12,0,0,1,12-12h8a12,12,0,0,1,12,12Z" fill="#969696"/>
      <path id="Path_3836" data-name="Path 3836" d="M280.12,974a12,12,0,0,1-12,12h-8a12,12,0,0,1-12-12V875a12,12,0,0,1,12-12h8a12,12,0,0,1,12,12Z" fill="#969696"/>
      <path id="Path_3837" data-name="Path 3837" d="M1526.12,875a12,12,0,0,1-12,12h-8a12,12,0,0,1-12-12V836a12,12,0,0,1,12-12h8a12,12,0,0,1,12,12Z" fill="#ff5000"/>
      <g id="Group_11483" data-name="Group 11483">
        <path id="Path_3838" data-name="Path 3838" d="M1539.12,846.935s44-20,64-13.968-1,11.9-11,13.968,57.484,4.679,84.242,27.872-33.727,3.807-55.484,0c0,0,77.242,39.193,75.242,73.193s-85-54.055-117-58.027c0,0,9,18.473-2,25.25s-15-38.8-33-49.512S1539.12,846.935,1539.12,846.935Z" fill="#4981fc"/>
        <path id="Path_3839" data-name="Path 3839" d="M1644.456,899.475s41.906,26.92,42.665,41.567S1644.456,899.475,1644.456,899.475Z" fill="#7ab4f9"/>
        <path id="Path_3840" data-name="Path 3840" d="M1565.122,848.743S1607.788,851,1607.788,861,1565.122,848.743,1565.122,848.743Z" fill="#7ab4f9"/>
        <path id="Path_3841" data-name="Path 3841" d="M1555.122,824s22-14.386,31.334-6.025S1555.122,824,1555.122,824Z" fill="#7ab4f9"/>
        <path id="Path_3842" data-name="Path 3842" d="M1603.122,932s3.021,23.268,9.334,20.335C1621.788,948,1603.122,932,1603.122,932Z" fill="#7ab4f9"/>
      </g>
      <g id="Group_11484" data-name="Group 11484">
        <circle id="Ellipse_13" data-name="Ellipse 13" cx="11.639" cy="11.639" r="11.639" transform="translate(384.385 1076.731)" fill="none" stroke="#231c69" stroke-linecap="round" stroke-miterlimit="10" stroke-width="2"/>
        <line id="Line_12" data-name="Line 12" x2="12.851" y2="19.389" transform="translate(389.268 1078.896)" fill="none" stroke="#231c69" stroke-linecap="round" stroke-miterlimit="10" stroke-width="2"/>
      </g>
      <g id="Group_11485" data-name="Group 11485">
        <path id="Path_3843" data-name="Path 3843" d="M54.253,563.65a69.049,69.049,0,1,1,15.774,19.384" fill="none" stroke="#231c69" stroke-linecap="round" stroke-miterlimit="10" stroke-width="3"/>
        <path id="Path_3844" data-name="Path 3844" d="M88.432,537.178a24.727,24.727,0,0,0,49.455,0c0-13.658-20.552-46.13-24.729-46.13C107.96,491.048,88.432,523.52,88.432,537.178Z" fill="#468af5"/>
        <path id="Path_3845" data-name="Path 3845" d="M120.036,532.607c1.012,6.238,4.318,10.894,7.382,10.4s4.73-5.959,3.718-12.2-4.316-10.9-7.381-10.4S119.024,526.367,120.036,532.607Z" fill="#7ab4f9"/>
      </g>
      <g id="Group_11486" data-name="Group 11486">
        <path id="Path_3846" data-name="Path 3846" d="M289.12,913s10,11,18,0,7-12,17-14,25-9.846,12-13.423-26.059-15.435-36.029-5.506S289.12,913,289.12,913Z" fill="#028e30"/>
        <path id="Path_3847" data-name="Path 3847" d="M277.327,917.09s-14.028-31.654,3.709-57.371,28.559-20.432,31.111-33.6S323.186,795,327.533,803.132s-16.993,39.541-12.47,52.026,4.526,22-6.948,25.937-16.166,13.992-14.171,24.855S286.022,922.2,277.327,917.09Z" fill="#00af41"/>
        <path id="Path_3848" data-name="Path 3848" d="M277.327,917.09s5.793-22.658,2.793-37.019,8.684-24.92.862-39.071-7.046-18.4-.454-32.2-10.789-12.2-12.6,0S273.12,834,264.12,840s-15.338,10.412-10.169,24.706S249.067,890,252.094,899,260.538,924.062,277.327,917.09Z" fill="#00af41"/>
        <path id="Path_3849" data-name="Path 3849" d="M306.12,846s-17,16.391-17,30.2-9.783,24.582-5.392,41.693" fill="none" stroke="#fff" stroke-linecap="round" stroke-miterlimit="10" stroke-width="3"/>
        <path id="Path_3850" data-name="Path 3850" d="M272.062,838.333s-5.94,11.837-4.44,20.585,1.167,14.638,0,23.026-5.51,26.966,2.1,31.056" fill="none" stroke="#fff" stroke-linecap="round" stroke-miterlimit="10" stroke-width="3"/>
      </g>
      <g id="Group_11487" data-name="Group 11487">
        <path id="Path_3851" data-name="Path 3851" d="M279.12,1326.755s8-37.048,42-46.9C321.12,1279.854,326.12,1320.51,279.12,1326.755Z" fill="#028e30"/>
        <path id="Path_3852" data-name="Path 3852" d="M276.837,1330.964s-13.551-46.444,18.616-78.181C295.453,1252.783,325.79,1295.373,276.837,1330.964Z" fill="#00af41"/>
        <path id="Path_3853" data-name="Path 3853" d="M295.453,1252.783S289.12,1307.666,279.12,1325" fill="none" stroke="#fff" stroke-linecap="round" stroke-miterlimit="10" stroke-width="3"/>
        <path id="Path_3854" data-name="Path 3854" d="M321.12,1279.854s-13.187,22.481-23.26,28.813" fill="none" stroke="#fff" stroke-linecap="round" stroke-miterlimit="10" stroke-width="3"/>
      </g>
      <g id="Group_11488" data-name="Group 11488">
        <path id="Path_3855" data-name="Path 3855" d="M227.159,1234.755s-8-37.048-42-46.9C185.159,1187.854,180.159,1228.51,227.159,1234.755Z" fill="#028e30"/>
        <path id="Path_3856" data-name="Path 3856" d="M229.442,1238.964s13.551-46.444-18.616-78.181C210.826,1160.783,180.489,1203.373,229.442,1238.964Z" fill="#00af41"/>
        <path id="Path_3857" data-name="Path 3857" d="M229.442,1238.964s49.414-40.6,30.982-88.785C260.425,1150.179,195.388,1178.847,229.442,1238.964Z" fill="#00af41"/>
        <path id="Path_3858" data-name="Path 3858" d="M210.826,1160.783s-.125,25.3,8.751,39.09" fill="none" stroke="#fff" stroke-linecap="round" stroke-miterlimit="10" stroke-width="3"/>
        <path id="Path_3859" data-name="Path 3859" d="M185.159,1187.854s11.142,18.48,22.885,28.146" fill="none" stroke="#fff" stroke-linecap="round" stroke-miterlimit="10" stroke-width="3"/>
        <path id="Path_3860" data-name="Path 3860" d="M260.425,1150.179s-31.365,44.33-30,84.576" fill="none" stroke="#fff" stroke-linecap="round" stroke-miterlimit="10" stroke-width="3"/>
      </g>
      <g id="Group_11489" data-name="Group 11489">
        <path id="Path_3861" data-name="Path 3861" d="M669.179,1148.529s6.527-30.228,34.268-38.268C703.446,1110.262,707.526,1143.435,669.179,1148.529Z" fill="#028e30"/>
        <path id="Path_3862" data-name="Path 3862" d="M667.315,1151.964s-11.057-37.9,15.189-63.789C682.505,1088.175,707.257,1122.925,667.315,1151.964Z" fill="#00af41"/>
        <path id="Path_3863" data-name="Path 3863" d="M682.505,1088.175s-5.168,44.78-13.326,58.922" fill="none" stroke="#fff" stroke-linecap="round" stroke-miterlimit="10" stroke-width="3"/>
        <path id="Path_3864" data-name="Path 3864" d="M703.446,1110.262s-10.759,18.344-18.978,23.51" fill="none" stroke="#fff" stroke-linecap="round" stroke-miterlimit="10" stroke-width="3"/>
      </g>
      <path id="Path_3865" data-name="Path 3865" d="M.12,354h123s96.787,13.772,128.394,98.386" fill="none" stroke="#231c69" stroke-linecap="round" stroke-miterlimit="10" stroke-width="2"/>
    </g>
    <g id="Group_11501" data-name="Group 11501">
      <g id="Group_11491" data-name="Group 11491">
        <path id="Path_3866" data-name="Path 3866" d="M788.032,1414.755l-4.5-2.067-6.51-2.994c-5.231-39.9,25.72-82.524,25.72-82.524l-5.928-5.358,11.71-29.495,21.139,7.173,64.682,22.021c12.509,4.242-24.457,56.1-24.457,56.1C824.493,1362.071,788.032,1414.755,788.032,1414.755Z" fill="#d6ae05"/>
        <path id="Path_3867" data-name="Path 3867" d="M783.532,1412.688l-6.51-2.994c-5.231-39.9,25.72-82.524,25.72-82.524l-5.928-5.358,11.71-29.495,21.139,7.173C817.438,1315.832,786.577,1361.787,783.532,1412.688Z" fill="#ff5000"/>
      </g>
      <path id="Path_3868" data-name="Path 3868" d="M887.12,1326s-30,55.473-19,61.236,111,.236,141,0,198,12.164,209-33.036-98-181.2-127-198.2-84,93-84,93l47,54S889.12,1304,887.12,1326Z" fill="#231c69"/>
      <g id="Group_11492" data-name="Group 11492">
        <path id="Path_3869" data-name="Path 3869" d="M1107.491,1083.6s53.906,60.792,86.935,64.178,160.36-35.28,181.694-39.947,32-10,43.334-10,42-19.648,52.666-30.491,7.334-26.843,7.334-26.843-10,7.79-17.334,10.229-18.666,0-18.666,0,5.333-5.562,10-6.9,8.666-2,8.666-3.334-13-3-18.333-1.666-26.334,13.666-35.667,18.666-23.334,8-27,8-144.332-1.314-167,1.843c0,0-25.377-28.177-41.688-37.511S1107.491,1083.6,1107.491,1083.6Z" fill="#f5c8c1"/>
        <path id="Path_3870" data-name="Path 3870" d="M1041.12,933.1c-20.19,14.4-32.255,40.157-4.432,76.212s92.438,92.806,111.435,113.245,28.663,23.089,51.33,25.431,166.667-33.657,174-34.991,14-3.334,12-17.334-6.667-37.334-18.667-38-52.135,1.334-73.067.667-68.957-.719-76.266,2c0,0-58-56.661-70.668-72.664S1086.788,900.541,1041.12,933.1Z" fill="#231c69"/>
      </g>
      <g id="Group_11494" data-name="Group 11494">
        <path id="Path_3871" data-name="Path 3871" d="M1057.907,918.062c-1.356-21.719,7.23-34.447,5.455-39.9s-23.189-17.972-8.063-28.343,15.522-49.048,48.362-43.005,66.406,13.1,62.723,39.4c0,0-25.331,44.6-29.367,59.032s-14.544,17.44-23.629,14.034a.182.182,0,0,0-.037-.017c-9.086-3.421-18.6-12.9-22.647-1.829-2.466,6.77,2.23,14.53,5.608,23.569,2.161,5.775,3.779,12.081,2.6,18.986C1095.921,977.67,1059.257,939.789,1057.907,918.062Z" fill="#f5c8c1"/>
        <path id="Path_3872" data-name="Path 3872" d="M1118.371,831.774s-17.226-3.612-24.476,8.439-4.936,28.977-11.838,28.287-7.508-11.086-13.662-13.976a87.938,87.938,0,0,0-13.1-4.709s-8.135-19.276,10.653-40.208,44.125-20.444,75.312-3.2,31.369,34.606,25.31,45.048" fill="#231c69"/>
        <path id="Path_3873" data-name="Path 3873" d="M1059,807.789c-4.4,13.961,48.863,23.817,72.74,28.708s42.307,10.438,42.307,10.438c7.5-48.639-35.308-67.478-49.128-72.249C1124.92,774.686,1071.915,766.765,1059,807.789Z" fill="#ffce00"/>
        <path id="Path_3874" data-name="Path 3874" d="M1118.371,831.774s51.011,34.079,74.4,33.937c8.743-.051-18.311-24.359-18.311-24.359S1130.423,832.394,1118.371,831.774Z" fill="#d6ae05"/>
        <path id="Path_3875" data-name="Path 3875" d="M1134.33,889.579s1.162,10.807-5.944,8.042" fill="none" stroke="#231c69" stroke-linecap="round" stroke-miterlimit="10" stroke-width="2"/>
        <path id="Path_3876" data-name="Path 3876" d="M1109.022,899.475s6.724,8.735,15.619,5.965" fill="none" stroke="#231c69" stroke-linecap="round" stroke-miterlimit="10" stroke-width="2"/>
        <path id="Path_3877" data-name="Path 3877" d="M1096.312,941c-29.436-27.975-21.858-60.251-16.037-48.575,6.174,12.374,32.034,26.276,33.076,26.835-9.086-3.421-18.6-12.9-22.647-1.829C1088.237,924.2,1092.934,931.963,1096.312,941Z" fill="#e0aaa4"/>
        <circle id="Ellipse_14" data-name="Ellipse 14" cx="2.069" cy="2.069" r="2.069" transform="translate(1109.36 870.669)" fill="#231c69"/>
        <circle id="Ellipse_15" data-name="Ellipse 15" cx="2.068" cy="2.068" r="2.068" transform="translate(1137.822 879.271)" fill="#231c69"/>
        <path id="Path_3878" data-name="Path 3878" d="M1079.677,782.125s53.019,24.938,77.947,24.632l-6.948,16.361s-52.2-6.228-81.507-32.878" fill="none" stroke="#231c69" stroke-linecap="round" stroke-miterlimit="10" stroke-width="2"/>
        <g id="Group_11493" data-name="Group 11493">
          <path id="Path_3879" data-name="Path 3879" d="M1186.161,821.121a15.225,15.225,0,0,1-17.969,11.863c-8.236-1.688-27.457-12.579-25.771-20.816s23.641-10.7,31.88-9.014A15.224,15.224,0,0,1,1186.161,821.121Z" fill="#ff5000"/>
          <circle id="Ellipse_16" data-name="Ellipse 16" cx="15.224" cy="15.224" r="15.224" transform="translate(1156.023 802.844)" fill="#231c69"/>
          <circle id="Ellipse_17" data-name="Ellipse 17" cx="7.976" cy="7.976" r="7.976" transform="translate(1163.271 810.093)" fill="#eee"/>
        </g>
      </g>
      <path id="Path_3880" data-name="Path 3880" d="M1196.992,1429.245l-1.142,4.818-1.654,6.972c-38.092,12.983-85.973-8.973-85.973-8.973l-4.086,6.866-31.224-5.675,2.872-22.138,8.859-67.75c1.7-13.1,59.818,12.936,59.818,12.936C1138.162,1403.867,1196.992,1429.245,1196.992,1429.245Z" fill="#d6ae05"/>
      <path id="Path_3881" data-name="Path 3881" d="M1195.851,1434.063l-1.654,6.972c-38.092,12.983-85.973-8.973-85.973-8.973l-4.086,6.866-31.224-5.675,2.872-22.138C1094.216,1419.886,1145.347,1441.1,1195.851,1434.063Z" fill="#ff5000"/>
      <path id="Path_3882" data-name="Path 3882" d="M1249.31,1161.784s-7.684-10.082-14.154-14.31-18.049-4.758-18.049-4.758,3.738,6.737,7.912,9.216,7.869,4.145,7.529,5.433-13.335-.412-18.152-3.062-21.98-19.927-29.73-27.141-20.523-13.684-24.068-14.618c-.467-.123-3.243-.831-7.75-1.986l10.984-41.67c1.045.568,1.956,1.055,2.721,1.446,19.44,9.95,28.4,17.826,39.354,20.715s35.6,29.7,43.154,42.909S1249.31,1161.784,1249.31,1161.784Z" fill="#f5c8c1"/>
      <path id="Path_3883" data-name="Path 3883" d="M816.593,1277.06s0-70.5,45-164.992S982.7,880.642,1052.64,902.61,1111.348,975.5,1118.371,998s-17.433,160.565-133.787,202.563C908.217,1228.128,816.593,1277.06,816.593,1277.06Z" fill="#4981fc"/>
      <path id="Path_3884" data-name="Path 3884" d="M968.12,949.465s-37.158,135.965-10.579,204.75,76.677,18.354,111.628,7.569,78.954-39.224,78.954-39.224l-89.378-18.622a460.349,460.349,0,0,1-16.449-60.12c-7.16-34.891,13.626-86.1,13.626-86.1Z" fill="#231c69"/>
      <path id="Path_3885" data-name="Path 3885" d="M876.591,1334.059c38.1,3.242,97.495-15,137.993-43.5s98.516-79.5,98.516-79.5-14.123,37.495-21.071,65.995-31.443,79.872,8.553,79.685,59.495,11.812,78.994-51.185,33-152.992,33-152.992-3-37.5-36-46.5-166.273,77.753-166.273,77.753L816.04,1268S806.095,1328.06,876.591,1334.059Z" fill="#4981fc"/>
      <path id="Path_3886" data-name="Path 3886" d="M1007.12,919c21.662-4.332,49,19,53,58s5.5,101,5.5,101,81.5-18.256,110.5-6.628,13.305,29.089,6.652,36.858-30.443,16.77-48.048,22.77-126.765,52-158.685,34-14.176-199.347-7.92-215.535S987.12,923,1007.12,919Z" fill="#4981fc"/>
      <path id="Path_3887" data-name="Path 3887" d="M1104.938,941.042s-43.213-62.112-70.646-41.088C1034.293,899.954,1080.014,941.045,1104.938,941.042Z" fill="#ff5000"/>
      <path id="Path_3888" data-name="Path 3888" d="M1047.679,1160.71s83.746-75.249,135.094-52.479" fill="none" stroke="#231c69" stroke-linecap="round" stroke-miterlimit="10" stroke-width="2"/>
      <path id="Path_3889" data-name="Path 3889" d="M1010.3,1183.822s-41.5,26.85-62.341,27.014" fill="none" stroke="#231c69" stroke-linecap="round" stroke-miterlimit="10" stroke-width="2"/>
      <path id="Path_3890" data-name="Path 3890" d="M1109.022,1070.453,1065.616,1078s1.3-80.969-6.871-113.446-12.7-46.583-32.165-46.068" fill="none" stroke="#231c69" stroke-linecap="round" stroke-miterlimit="10" stroke-width="2"/>
      <path id="Path_3891" data-name="Path 3891" d="M890.089,1247.061s37.093,37.5,89.043,10.5,145.568-138.235,187.53-109.568l-48.291,205.544" fill="none" stroke="#231c69" stroke-linecap="round" stroke-miterlimit="10" stroke-width="2"/>
      <g id="Group_11495" data-name="Group 11495">
        <path id="Path_3892" data-name="Path 3892" d="M1095.492,1196.232l-11.644-55.766s59.906-14.983,72.641-11.965,23.9,43.631,4.415,53.531C1142.483,1191.394,1095.492,1196.232,1095.492,1196.232Z" fill="#231c69"/>
        <path id="Path_3893" data-name="Path 3893" d="M1098.926,1195.846s18.851-19.8,14.747-35.954-29.824-19.425-29.824-19.425" fill="none" stroke="#fcfcfc" stroke-linecap="round" stroke-miterlimit="10" stroke-width="3"/>
      </g>
      <g id="Group_11496" data-name="Group 11496">
        <path id="Path_3894" data-name="Path 3894" d="M979.542,1015.637a35.638,35.638,0,1,1,8.141,10" fill="#fcfcfc"/>
        <path id="Path_3895" data-name="Path 3895" d="M997.182,1001.975a12.762,12.762,0,0,0,25.523,0c0-7.049-10.606-23.807-12.762-23.807C1007.26,978.168,997.182,994.926,997.182,1001.975Z" fill="#468af5"/>
        <ellipse id="Ellipse_18" data-name="Ellipse 18" cx="2.902" cy="5.907" rx="2.902" ry="5.907" transform="translate(1020.148 1004.508) rotate(170.782)" fill="#7ab4f9"/>
      </g>
      <path id="Path_3896" data-name="Path 3896" d="M974.62,1043.818s45.117,12.879,67.394-7.433l3.937,25.535s-38.33,15.921-71.33,0v-18.1Z" fill="none" stroke="#fcfcfc" stroke-linecap="round" stroke-linejoin="round" stroke-miterlimit="10" stroke-width="3"/>
      <g id="Group_11497" data-name="Group 11497">
        <line id="Line_13" data-name="Line 13" y1="2.898" x2="15.174" transform="translate(1156.776 1406.091)" fill="none" stroke="#231c69" stroke-linecap="round" stroke-miterlimit="10" stroke-width="2"/>
        <line id="Line_14" data-name="Line 14" y1="14.728" x2="4.659" transform="translate(1162.033 1400.176)" fill="none" stroke="#231c69" stroke-linecap="round" stroke-miterlimit="10" stroke-width="2"/>
      </g>
      <g id="Group_11498" data-name="Group 11498">
        <line id="Line_15" data-name="Line 15" y1="2.899" x2="15.174" transform="translate(1149.29 1393.247)" fill="none" stroke="#231c69" stroke-linecap="round" stroke-miterlimit="10" stroke-width="2"/>
        <line id="Line_16" data-name="Line 16" y1="14.73" x2="4.659" transform="translate(1154.547 1387.332)" fill="none" stroke="#231c69" stroke-linecap="round" stroke-miterlimit="10" stroke-width="2"/>
      </g>
      <g id="Group_11499" data-name="Group 11499">
        <line id="Line_17" data-name="Line 17" x1="1.886" y2="15.332" transform="translate(822.418 1371.05)" fill="none" stroke="#231c69" stroke-linecap="round" stroke-miterlimit="10" stroke-width="2"/>
        <line id="Line_18" data-name="Line 18" x2="12.595" y2="8.945" transform="translate(817.063 1374.243)" fill="none" stroke="#231c69" stroke-linecap="round" stroke-miterlimit="10" stroke-width="2"/>
      </g>
      <g id="Group_11500" data-name="Group 11500">
        <line id="Line_19" data-name="Line 19" x1="1.884" y2="15.333" transform="translate(836.937 1367.854)" fill="none" stroke="#231c69" stroke-linecap="round" stroke-miterlimit="10" stroke-width="2"/>
        <line id="Line_20" data-name="Line 20" x2="12.596" y2="8.944" transform="translate(831.581 1371.048)" fill="none" stroke="#231c69" stroke-linecap="round" stroke-miterlimit="10" stroke-width="2"/>
      </g>
    </g>
    <g id="Group_11503" data-name="Group 11503">
      <g id="Group_11502" data-name="Group 11502">
        <path id="Path_3897" data-name="Path 3897" d="M801.592,1016.069a1.5,1.5,0,0,0,0-3,1.5,1.5,0,0,0,0,3Z" fill="#e1bcaf"/>
      </g>
    </g>
    <g id="Group_11504" data-name="Group 11504">
      <path id="Path_3898" data-name="Path 3898" d="M1408.481,240.782c6.8,29.31,51.749,45.433,102.754,36.218s37.049,5.277,107.033,10.032,85.379-52.25,124.188-46.25S1883.969,257.224,1880.62,219s-134.906-8.221-153.136-35.224-97.487-63.006-116.364-39-91.111,6-113.5,36S1398.737,198.778,1408.481,240.782Z" fill="none" stroke="#fff" stroke-miterlimit="10" stroke-width="4"/>
      <path id="Path_3899" data-name="Path 3899" d="M842.644,417.518c4.689,27.4,91.441,13.822,137.585,12.113s63.542,30.909,102.054,20.812,54.066-84.966-12.1-73.622-87.333,35.366-109.054,20.87S835.334,374.812,842.644,417.518Z" fill="none" stroke="#fff" stroke-miterlimit="10" stroke-width="4"/>
      <path id="Path_3900" data-name="Path 3900" d="M534.12,289c-21.967,7.789-128.025,11.429-114-9.893s93.963-5.89,114-27.107,14.036-23.783,50.04-18c9.2,1.479,18.339-1.628,27.758-6.754,0-.229.009-.456.009-.684A127.363,127.363,0,1,0,593.309,292.9C570.078,284.89,547.929,284.1,534.12,289Z" fill="#ffce00"/>
      <path id="Path_3901" data-name="Path 3901" d="M710.173,194c45.553,15.31,49,19.215,81.505,40s92.512-11.791,86.512,36-31.037,18.21-93.526,24-115.585,48.212-150.543,21-78.033-33.789-100-26-128.025,11.429-114-9.893,93.963-5.89,114-27.107,14.036-23.783,50.04-18S655.1,175.492,710.173,194Z" fill="none" stroke="#fff" stroke-miterlimit="10" stroke-width="4"/>
    </g>
  </g>
</svg>
